<svg width="30" height="50" viewBox="0 0 30 50" fill="none" xmlns="http://www.w3.org/2000/svg">
<path fill-rule="evenodd" clip-rule="evenodd" d="M20.0645 0.857558C20.3441 1.20459 20.4866 1.67287 20.7717 2.60942L27 23.0693C24.6972 21.8748 22.1938 21.0132 19.5538 20.5484L15.4986 6.84453C15.4322 6.6203 15.2262 6.46648 14.9924 6.46648C14.758 6.46648 14.5517 6.6211 14.4858 6.8461L10.4797 20.5415C7.82738 21.0042 5.31262 21.8673 3 23.0662L9.25882 2.60469C9.54479 1.66974 9.6878 1.20227 9.96736 0.855874C10.2141 0.550067 10.5352 0.31257 10.8998 0.166011C11.3128 0 11.8017 0 12.7794 0H17.2497C18.2287 0 18.7182 0 19.1316 0.166358C19.4965 0.31322 19.8177 0.551199 20.0645 0.857558Z" fill="white"/>
<path fill-rule="evenodd" clip-rule="evenodd" d="M20.6921 24.0432C19.6654 24.9212 17.616 25.52 15.2555 25.52C12.3581 25.52 9.92977 24.618 9.28539 23.4049C9.05502 24.1001 9.00336 24.8958 9.00336 25.4041C9.00336 25.4041 8.85158 27.9 10.5875 29.6359C10.5875 28.7345 11.3183 28.0038 12.2196 28.0038C13.7646 28.0038 13.7629 29.3517 13.7615 30.4453C13.7614 30.4781 13.7614 30.5106 13.7614 30.5429C13.7614 32.2028 14.7759 33.6256 16.2186 34.2254C16.0031 33.7822 15.8822 33.2845 15.8822 32.7585C15.8822 31.1754 16.8116 30.586 17.8918 29.9009C18.7512 29.3559 19.7061 28.7503 20.3641 27.5355C20.7075 26.9016 20.9025 26.1756 20.9025 25.4041C20.9025 24.9296 20.8288 24.4724 20.6921 24.0432Z" fill="#FF5D01"/>
<path d="M2.10616 49.2064C3.1799 49.2064 3.98523 48.8244 4.31558 48.1739C4.31558 48.4837 4.33613 48.8037 4.38781 49.0515H6.1532C6.0707 48.6901 6.02944 48.1946 6.02944 47.5442V45.9542C6.02944 44.4469 5.14145 43.7345 3.16963 43.7345C1.4454 43.7345 0.28908 44.4469 0.15487 45.6135H1.99259C2.05454 45.1076 2.47779 44.8289 3.16963 44.8289C3.85088 44.8289 4.23291 45.1076 4.23291 45.6858V45.8406L2.3643 46.0058C1.45572 46.0988 0.939504 46.2536 0.578159 46.5014C0.196171 46.7595 0 47.1518 0 47.6371C0 48.6075 0.805294 49.2064 2.10616 49.2064ZM2.78759 48.1326C2.1887 48.1326 1.8274 47.8952 1.8274 47.5132C1.8274 47.1209 2.12674 46.9144 2.88053 46.8215L4.26389 46.6769V46.9867C4.26389 47.6784 3.66515 48.1326 2.78759 48.1326Z" fill="white"/>
<path d="M9.87676 49.2064C11.6733 49.2064 12.5921 48.5353 12.5921 47.4512C12.5921 46.553 12.0759 46.0575 10.8267 45.8923L9.26759 45.7168C8.82375 45.6548 8.63787 45.5412 8.63787 45.2934C8.63787 44.9941 8.93724 44.8598 9.61864 44.8598C10.5582 44.8598 11.2086 45.0766 11.7352 45.5L12.5714 44.6637C11.9932 44.0649 10.9919 43.7345 9.75299 43.7345C8.00815 43.7345 7.03765 44.3539 7.03765 45.3967C7.03765 46.3052 7.63639 46.8111 8.87528 46.9763L10.2795 47.1415C10.837 47.2138 11.0022 47.317 11.0022 47.5854C11.0022 47.8952 10.6924 48.0604 9.9697 48.0604C8.89598 48.0604 8.17333 47.7713 7.68808 47.2344L6.73828 48.0191C7.368 48.8037 8.44171 49.2064 9.87676 49.2064Z" fill="white"/>
<path d="M14.0499 45.056V47.2344C14.0499 48.5146 14.7726 49.1651 16.3213 49.1651C16.7963 49.1651 17.1679 49.1134 17.5189 49.0102V47.668C17.333 47.7093 17.1059 47.7506 16.8065 47.7506C16.1561 47.7506 15.836 47.4615 15.836 46.8524V45.056H17.5292V43.8893H15.836V42L14.0499 42.6607V43.8893H12.8936V45.056H14.0499Z" fill="white"/>
<path d="M20.0931 43.8893H18.4619V49.0515H20.248V47.1209C20.248 46.5633 20.3719 46.0574 20.7127 45.7374C20.9811 45.4896 21.3631 45.3554 21.8999 45.3554C22.0961 45.3554 22.251 45.376 22.4264 45.3967V43.7758C22.3129 43.7551 22.2303 43.7551 22.0858 43.7551C21.0636 43.7551 20.3719 44.3436 20.0931 45.3038V43.8893Z" fill="white"/>
<path d="M25.9565 49.2064C27.846 49.2064 29.1778 48.2049 29.1778 46.4601C29.1778 44.7256 27.846 43.7345 25.9565 43.7345C24.0569 43.7345 22.7251 44.7256 22.7251 46.4601C22.7251 48.2049 24.0569 49.2064 25.9565 49.2064ZM25.9565 48.0191C25.0894 48.0191 24.5422 47.4616 24.5422 46.4601C24.5422 45.4586 25.0894 44.9218 25.9565 44.9218C26.8135 44.9218 27.3607 45.4586 27.3607 46.4601C27.3607 47.4616 26.8135 48.0191 25.9565 48.0191Z" fill="white"/>
</svg>
