<svg width="161" height="48" viewBox="0 0 161 48" fill="none" xmlns="http://www.w3.org/2000/svg">
<path fill-rule="evenodd" clip-rule="evenodd" d="M24.1513 1.20271C24.5319 1.68941 24.726 2.34616 25.1141 3.65966L33.5946 32.3542C30.4591 30.6788 27.0506 29.4705 23.4558 28.8186L17.9342 9.59929C17.8438 9.28482 17.5634 9.06909 17.245 9.06909C16.9258 9.06909 16.6449 9.28595 16.5552 9.6015L11.1005 28.8089C7.48903 29.4579 4.0649 30.6684 0.916016 32.3499L9.43809 3.65301C9.82747 2.34178 10.0222 1.68615 10.4029 1.20034C10.7389 0.771457 11.176 0.438372 11.6725 0.232827C12.2348 0 12.9004 0 14.2317 0H20.3186C21.6516 0 22.3181 0 22.881 0.233313C23.3779 0.439284 23.8152 0.773044 24.1513 1.20271Z" fill="white"/>
<path fill-rule="evenodd" clip-rule="evenodd" d="M25.1681 33.7198C23.7701 34.9512 20.9797 35.7909 17.7655 35.7909C13.8205 35.7909 10.514 34.5259 9.63663 32.8246C9.32296 33.7996 9.25263 34.9156 9.25263 35.6284C9.25263 35.6284 9.04595 39.1288 11.4096 41.5635C11.4096 40.2993 12.4046 39.2745 13.6319 39.2745C15.7356 39.2745 15.7332 41.1649 15.7313 42.6986C15.7313 42.7445 15.7312 42.7902 15.7312 42.8355C15.7312 45.1634 17.1125 47.1589 19.0769 48.0001C18.7835 47.3785 18.6189 46.6805 18.6189 45.9428C18.6189 43.7226 19.8844 42.8959 21.3551 41.9351C22.5253 41.1707 23.8255 40.3214 24.7216 38.6176C25.1891 37.7286 25.4546 36.7104 25.4546 35.6284C25.4546 34.963 25.3542 34.3217 25.1681 33.7198Z" fill="yellow"/>
<path d="M55.5495 32.9673C59.7287 32.9673 62.8631 31.4358 64.1489 28.8284C64.1489 30.07 64.2288 31.3531 64.43 32.3465H71.3012C70.98 30.8977 70.8195 28.911 70.8195 26.3035V19.9295C70.8195 13.8867 67.3633 11.0308 59.6887 11.0308C52.9777 11.0308 48.4772 13.8867 47.9548 18.5637H55.1075C55.3486 16.5356 56.996 15.4181 59.6887 15.4181C62.3402 15.4181 63.8271 16.5356 63.8271 18.8535V19.4742L56.5542 20.1365C53.0179 20.5091 51.0087 21.1298 49.6023 22.1232C48.1156 23.1579 47.3521 24.7308 47.3521 26.676C47.3521 30.5666 50.4864 32.9673 55.5495 32.9673ZM58.2018 28.6627C55.8708 28.6627 54.4645 27.7108 54.4645 26.1794C54.4645 24.6067 55.6296 23.7788 58.5635 23.4063L63.9477 22.8269V24.0686C63.9477 26.8417 61.6173 28.6627 58.2018 28.6627Z" fill="white"/>
<path d="M85.794 32.9673C92.7863 32.9673 96.3625 30.277 96.3625 25.9311C96.3625 22.3302 94.3532 20.3434 89.4913 19.6812L83.423 18.9776C81.6955 18.7292 80.9721 18.2739 80.9721 17.2806C80.9721 16.0804 82.1373 15.5422 84.7894 15.5422C88.4461 15.5422 90.9777 16.4114 93.0275 18.1085L96.2819 14.7559C94.0315 12.3553 90.1342 11.0308 85.3123 11.0308C78.5211 11.0308 74.7438 13.5141 74.7438 17.6945C74.7438 21.3368 77.0742 23.3649 81.8961 24.0271L87.3615 24.6893C89.5313 24.9791 90.1742 25.393 90.1742 26.4691C90.1742 27.7108 88.9684 28.3731 86.1557 28.3731C81.9767 28.3731 79.164 27.2141 77.2753 25.0619L73.5786 28.2074C76.0296 31.3531 80.2086 32.9673 85.794 32.9673Z" fill="white"/>
<path d="M102.036 16.3286V25.0618C102.036 30.1941 104.849 32.8017 110.877 32.8017C112.726 32.8017 114.172 32.5947 115.538 32.1808V26.8001C114.815 26.9657 113.931 27.1312 112.765 27.1312C110.234 27.1312 108.988 25.9724 108.988 23.5304V16.3286H115.578V11.6515H108.988V4.0773L102.036 6.7262V11.6515H97.5356V16.3286H102.036Z" fill="white"/>
<path d="M125.557 11.6516H119.208V32.3464H126.16V24.6066C126.16 22.3714 126.643 20.3434 127.969 19.0603C129.014 18.0669 130.5 17.529 132.59 17.529C133.353 17.529 133.956 17.6116 134.639 17.6944V11.1963C134.197 11.1135 133.875 11.1135 133.313 11.1135C129.335 11.1135 126.643 13.4727 125.557 17.322V11.6516Z" fill="white"/>
<path d="M148.378 32.9673C155.732 32.9673 160.916 28.9525 160.916 21.9577C160.916 15.0042 155.732 11.0308 148.378 11.0308C140.985 11.0308 135.801 15.0042 135.801 21.9577C135.801 28.9525 140.985 32.9673 148.378 32.9673ZM148.378 28.2074C145.003 28.2074 142.874 25.9725 142.874 21.9577C142.874 17.9428 145.003 15.7906 148.378 15.7906C151.714 15.7906 153.844 17.9428 153.844 21.9577C153.844 25.9725 151.714 28.2074 148.378 28.2074Z" fill="white"/>
</svg>
