<svg width="43" height="49" viewBox="0 0 43 49" fill="none" xmlns="http://www.w3.org/2000/svg">
<path d="M42.8171 0.186829L38.9613 43.3818L21.6292 48.1868L4.3449 43.3886L0.493164 0.186829H42.8171Z" fill="#264DE4"/>
<path d="M35.6604 40.6313L38.9555 3.71924H21.6553V44.5141L35.6604 40.6313Z" fill="#2965F1"/>
<path d="M9.32422 19.7422L9.79911 25.0406H21.6562V19.7422H9.32422Z" fill="#EBEBEB"/>
<path d="M21.6553 9.0177H21.637H8.36914L8.8508 14.3163H21.6553V9.0177Z" fill="#EBEBEB"/>
<path d="M21.655 39.0155V33.5028L21.6318 33.509L15.7308 31.9156L15.3535 27.6898H12.4861H10.0347L10.777 36.0092L21.6306 39.0222L21.655 39.0155Z" fill="#EBEBEB"/>
<path d="M28.1613 25.0405L27.5462 31.9123L21.6367 33.5073V39.0197L32.499 36.0093L32.5787 35.1141L33.8238 21.1648L33.953 19.742L34.9096 9.0177H21.6367V14.3163H29.1029L28.6207 19.742H21.6367V25.0405H28.1613Z" fill="white"/>
</svg>
