<svg width="28" height="42" viewBox="0 0 28 42" fill="none" xmlns="http://www.w3.org/2000/svg">
<path d="M6.95327 41.8675C10.7435 41.8675 13.8196 38.7914 13.8196 35.0012V28.1349H6.95327C3.16304 28.1349 0.0869141 31.211 0.0869141 35.0012C0.0869141 38.7914 3.16304 41.8675 6.95327 41.8675Z" fill="#0ACF83"/>
<path d="M0.0869141 21.2684C0.0869141 17.4782 3.16304 14.4021 6.95327 14.4021H13.8196V28.1347H6.95327C3.16304 28.1347 0.0869141 25.0586 0.0869141 21.2684Z" fill="#A259FF"/>
<path d="M0.0869141 7.53575C0.0869141 3.74553 3.16304 0.669403 6.95327 0.669403H13.8196V14.4021H6.95327C3.16304 14.4021 0.0869141 11.326 0.0869141 7.53575Z" fill="#F24E1E"/>
<path d="M13.8198 0.669403H20.6862C24.4764 0.669403 27.5525 3.74553 27.5525 7.53575C27.5525 11.326 24.4764 14.4021 20.6862 14.4021H13.8198V0.669403Z" fill="#FF7262"/>
<path d="M27.5525 21.2684C27.5525 25.0586 24.4764 28.1347 20.6862 28.1347C16.896 28.1347 13.8198 25.0586 13.8198 21.2684C13.8198 17.4782 16.896 14.4021 20.6862 14.4021C24.4764 14.4021 27.5525 17.4782 27.5525 21.2684Z" fill="#1ABCFE"/>
</svg>
