<svg width="49" height="49" viewBox="0 0 49 49" fill="none" xmlns="http://www.w3.org/2000/svg">
<path d="M48.2729 0.186829H0.272949V48.1868H48.2729V0.186829Z" fill="#F7DF1E"/>
<path d="M32.5165 37.687C33.4833 39.2657 34.7412 40.4261 36.966 40.4261C38.8349 40.4261 40.0288 39.492 40.0288 38.2013C40.0288 36.6546 38.8022 36.1068 36.745 35.207L35.6174 34.7232C32.3626 33.3366 30.2003 31.5994 30.2003 27.927C30.2003 24.5442 32.7778 21.9689 36.806 21.9689C39.6738 21.9689 41.7355 22.967 43.2212 25.5804L39.7088 27.8356C38.9355 26.4489 38.1012 25.9026 36.806 25.9026C35.4848 25.9026 34.6475 26.7407 34.6475 27.8356C34.6475 29.1887 35.4856 29.7366 37.4209 30.5746L38.5485 31.0577C42.3809 32.7011 44.5447 34.3766 44.5447 38.1434C44.5447 42.2044 41.3546 44.4291 37.0704 44.4291C32.8814 44.4291 30.1751 42.4329 28.8509 39.8166L32.5165 37.687ZM16.5828 38.0779C17.2913 39.335 17.9359 40.3979 19.4856 40.3979C20.9675 40.3979 21.9024 39.8181 21.9024 37.5636V22.2265H26.4128V37.6246C26.4128 42.295 23.6746 44.4207 19.6776 44.4207C16.0662 44.4207 13.9748 42.5518 12.9111 40.3007L16.5828 38.0779Z" fill="black"/>
</svg>
