<svg width="239" height="49" viewBox="0 0 239 49" fill="none" xmlns="http://www.w3.org/2000/svg">
<path d="M158.627 0.351379H200.098V8.0058H183.647V48.2747H175.421V8.0058H158.627V0.351379Z" fill="black"/>
<path d="M90.4213 0.351379V8.0058H57.1797V20.3194H83.9126V27.9738H57.1797V40.6203H90.4213V48.2747H48.9541V8.0058H48.9507V0.351379H90.4213Z" fill="black"/>
<path d="M111.133 0.371521H100.369L138.926 48.2949H149.722L130.441 24.3497L149.691 0.408083L138.926 0.424719L125.051 17.6562L111.133 0.371521Z" fill="black"/>
<path d="M122.178 34.6036L116.787 27.9009L100.336 48.3316H111.131L122.178 34.6036Z" fill="black"/>
<path fill-rule="evenodd" clip-rule="evenodd" d="M49.2429 48.2749L10.634 0.331604H0.352051V48.2549H8.57763V10.5752L38.9094 48.2749H49.2429Z" fill="black"/>
<path d="M201.944 47.9824C201.342 47.9824 200.83 47.7737 200.4 47.3563C199.971 46.939 199.759 46.4336 199.765 45.835C199.759 45.2529 199.971 44.7531 200.4 44.3357C200.83 43.9183 201.342 43.7096 201.944 43.7096C202.524 43.7096 203.031 43.9183 203.46 44.3357C203.895 44.7531 204.112 45.2529 204.118 45.835C204.112 46.2304 204.012 46.5929 203.811 46.9169C203.605 47.2465 203.343 47.5046 203.014 47.6913C202.691 47.8836 202.334 47.9824 201.944 47.9824Z" fill="black"/>
<path d="M215.986 27.7935H219.631V41.8367C219.626 43.1273 219.347 44.2312 218.801 45.1594C218.249 46.0875 217.486 46.7959 216.505 47.2957C215.529 47.7899 214.387 48.0427 213.088 48.0427C211.901 48.0427 210.837 47.8284 209.889 47.4111C208.942 46.9937 208.189 46.3676 207.638 45.5438C207.08 44.7199 206.807 43.693 206.807 42.4628H210.458C210.463 43.001 210.586 43.4677 210.82 43.8577C211.054 44.2476 211.377 44.5442 211.79 44.7529C212.207 44.9616 212.687 45.066 213.227 45.066C213.813 45.066 214.314 44.9451 214.721 44.6979C215.128 44.4563 215.44 44.0938 215.658 43.6105C215.869 43.1328 215.981 42.5396 215.986 41.8367V27.7935Z" fill="black"/>
<path d="M234.629 33.2853C234.54 32.434 234.15 31.7695 233.47 31.2972C232.784 30.8194 231.899 30.5832 230.811 30.5832C230.048 30.5832 229.391 30.6986 228.844 30.9238C228.298 31.1544 227.875 31.4619 227.585 31.8519C227.295 32.2418 227.15 32.6867 227.139 33.1865C227.139 33.6039 227.239 33.9663 227.434 34.2684C227.629 34.5759 227.891 34.8341 228.231 35.0428C228.565 35.257 228.939 35.4327 229.346 35.5755C229.758 35.7183 230.171 35.8391 230.583 35.938L232.483 36.4048C233.247 36.5805 233.989 36.8167 234.696 37.1188C235.404 37.4153 236.045 37.7943 236.608 38.2501C237.171 38.706 237.617 39.2551 237.946 39.8977C238.274 40.5403 238.442 41.2927 238.442 42.1604C238.442 43.3302 238.141 44.3572 237.533 45.2469C236.926 46.1311 236.051 46.8231 234.902 47.3229C233.76 47.8172 232.378 48.0698 230.75 48.0698C229.179 48.0698 227.808 47.8282 226.654 47.3449C225.495 46.8671 224.592 46.1641 223.94 45.2414C223.287 44.3188 222.936 43.1929 222.886 41.8693H226.498C226.548 42.5613 226.771 43.138 227.15 43.6048C227.534 44.0661 228.036 44.4067 228.649 44.6373C229.268 44.8625 229.959 44.9778 230.723 44.9778C231.52 44.9778 232.222 44.857 232.829 44.6208C233.431 44.3847 233.905 44.0552 234.245 43.6268C234.591 43.2039 234.763 42.7042 234.769 42.133C234.763 41.6112 234.607 41.1773 234.306 40.8368C234 40.4963 233.576 40.2108 233.035 39.9801C232.49 39.7494 231.854 39.5407 231.129 39.3595L228.822 38.7773C227.155 38.3545 225.835 37.7119 224.87 36.8497C223.901 35.9874 223.421 34.8451 223.421 33.4117C223.421 32.2364 223.744 31.2039 224.397 30.3196C225.043 29.4355 225.929 28.7489 227.05 28.2601C228.176 27.7659 229.446 27.5242 230.862 27.5242C232.3 27.5242 233.559 27.7659 234.646 28.2601C235.733 28.7489 236.586 29.43 237.204 30.2977C237.823 31.1654 238.146 32.1595 238.163 33.2853H234.629Z" fill="black"/>
</svg>
