<svg width="80" height="80" viewBox="0 0 80 80" fill="none" xmlns="http://www.w3.org/2000/svg">
<path fill-rule="evenodd" clip-rule="evenodd" d="M42.4094 25C42.3512 25.0007 42.2924 25.0146 42.2405 25.0451C42.1368 25.1059 42.0716 25.2177 42.0716 25.3379V33.9526C42.0716 34.0373 42.0321 34.1129 41.959 34.1553C41.8856 34.1979 41.796 34.1979 41.7225 34.1553L40.3148 33.3445C40.1051 33.2236 39.8489 33.2237 39.6392 33.3445L34.0199 36.5877C33.8098 36.7089 33.682 36.9421 33.682 37.1846V43.671C33.682 43.9133 33.81 44.1352 34.0199 44.2566L39.6392 47.4998C39.8493 47.621 40.1047 47.621 40.3148 47.4998L45.9341 44.2566C46.144 44.1352 46.272 43.9133 46.272 43.671V27.5C46.272 27.254 46.1377 27.0232 45.9229 26.9032L42.5783 25.0338C42.5258 25.0045 42.4676 24.9994 42.4094 25ZM6.26119 33.0968C6.15403 33.1011 6.05335 33.1198 5.95714 33.1756L0.337834 36.4188C0.128449 36.5399 0 36.7603 0 37.0044L0.011237 45.7092C0.011237 45.8303 0.0737011 45.9427 0.180155 46.0021C0.284495 46.0645 0.414001 46.0645 0.517989 46.0021L3.85128 44.0876C4.06243 43.9622 4.20038 43.744 4.20038 43.502V39.4368C4.20038 39.1943 4.32793 38.9718 4.53821 38.8512L5.95711 38.0292C6.06301 37.9679 6.17671 37.9391 6.29495 37.9391C6.41076 37.9391 6.52981 37.9679 6.63278 38.0292L8.05168 38.8512C8.26195 38.9718 8.38952 39.1943 8.38952 39.4368V43.502C8.38952 43.744 8.52884 43.9636 8.73861 44.0876L12.0719 46.0021C12.1766 46.0645 12.3059 46.0645 12.4097 46.0021C12.5132 45.9427 12.5787 45.8303 12.5787 45.7092L12.5899 37.0044C12.5899 36.7603 12.4629 36.5399 12.2521 36.4188L6.63277 33.1756C6.53772 33.1198 6.4366 33.1012 6.32872 33.0968H6.26119ZM56.7561 33.1756C56.6387 33.1755 56.5236 33.2052 56.4182 33.2657L50.7989 36.5089C50.589 36.6301 50.4611 36.852 50.4611 37.0945V43.5809C50.4611 43.8248 50.5985 44.0459 50.8102 44.1665L56.3845 47.3421C56.5903 47.4597 56.8417 47.4684 57.0489 47.3533L60.4272 45.4726C60.5344 45.4132 60.6069 45.3021 60.6074 45.1799C60.6081 45.0576 60.5443 44.9479 60.4385 44.8871L54.7854 41.6439C54.6795 41.5835 54.6052 41.4612 54.6052 41.3398V39.3128C54.6052 39.1916 54.6804 39.0805 54.7854 39.02L56.5421 38.0065C56.6466 37.946 56.775 37.946 56.88 38.0065L58.6367 39.02C58.7416 39.0805 58.8056 39.1916 58.8056 39.3128V40.9119C58.8056 41.0333 58.8696 41.1442 58.9745 41.2047C59.0799 41.2653 59.2074 41.2656 59.3124 41.2047L62.6794 39.2453C62.8884 39.1239 63.0173 38.9014 63.0173 38.6597V37.0944C63.0173 36.8526 62.8889 36.6302 62.6794 36.5088L57.0939 33.2656C56.9887 33.2046 56.8735 33.1758 56.7561 33.1756ZM39.9545 38.0179C39.9838 38.0179 40.0183 38.0251 40.0446 38.0402L41.9702 39.1551C42.0225 39.1854 42.0603 39.2411 42.0603 39.3015V41.5312C42.0603 41.5917 42.0228 41.6475 41.9702 41.6776L40.0446 42.7924C39.9921 42.8223 39.9281 42.8223 39.8756 42.7924L37.95 41.6776C37.8976 41.6473 37.8599 41.5917 37.8599 41.5312V39.3015C37.8599 39.2411 37.8977 39.1855 37.95 39.1551L39.8756 38.0404C39.902 38.0253 39.9252 38.0181 39.9545 38.0181V38.0179Z" fill="white"/>
<path fill-rule="evenodd" clip-rule="evenodd" d="M73.5915 33.0178C73.3967 33.0178 73.2073 33.0581 73.0397 33.153L67.7357 36.216C67.3925 36.4136 67.1839 36.7871 67.1839 37.1844V43.2993C67.1839 43.6963 67.3925 44.0694 67.7357 44.2677L69.1208 45.0672C69.7938 45.3989 70.042 45.3938 70.3483 45.3938C71.3447 45.3938 71.9136 44.7892 71.9136 43.7384V37.7025C71.9136 37.6171 71.8397 37.556 71.7559 37.556H71.0915C71.0064 37.556 70.9339 37.6171 70.9339 37.7025V43.7384C70.9339 44.2042 70.4487 44.6726 69.6614 44.279L68.2199 43.4344C68.169 43.4066 68.1299 43.3577 68.1299 43.2993V37.1844C68.1299 37.1264 68.1686 37.0674 68.2199 37.0381L73.5127 33.9863C73.5622 33.9578 73.6212 33.9578 73.6703 33.9863L78.9631 37.0381C79.0135 37.0683 79.0531 37.1246 79.0531 37.1844V43.2993C79.0531 43.3577 79.0239 43.4175 78.9743 43.4456L73.6703 46.4974C73.6248 46.5244 73.5622 46.5244 73.5127 46.4974L72.1501 45.6866C72.1095 45.6628 72.0541 45.6646 72.0149 45.6866C71.6388 45.8998 71.5681 45.9246 71.2154 46.047C71.1285 46.0772 70.9965 46.1243 71.2604 46.2722L73.0397 47.3195C73.2091 47.4175 73.3978 47.4658 73.5915 47.4658C73.7879 47.4658 73.9739 47.4175 74.1433 47.3195L79.4473 44.2677C79.7905 44.068 79.9991 43.6963 79.9991 43.2993V37.1844C79.9991 36.7871 79.7905 36.4144 79.4473 36.216L74.1433 33.153C73.9771 33.0581 73.7863 33.0178 73.5915 33.0178ZM23.1416 33.1417C23.0246 33.1417 22.9087 33.1712 22.8038 33.2318L17.1845 36.4637C16.9744 36.5848 16.8467 36.8183 16.8467 37.0606V43.547C16.8467 43.7895 16.9746 44.0112 17.1845 44.1325L22.8038 47.3757C23.0139 47.4971 23.2694 47.4971 23.4795 47.3757L29.0988 44.1325C29.3085 44.0112 29.4366 43.7895 29.4366 43.547V37.0606C29.4366 36.8179 29.3089 36.5848 29.0988 36.4637L23.4795 33.2318C23.3746 33.1712 23.2587 33.1417 23.1416 33.1417ZM75.0104 37.3872C73.5001 37.3872 72.6005 38.03 72.6005 39.0989C72.6005 40.2585 73.4933 40.5771 74.9428 40.7205C76.677 40.8903 76.8122 41.1449 76.8122 41.4863C76.8122 42.0784 76.3401 42.3308 75.2244 42.3308C73.8226 42.3308 73.5145 41.9809 73.4113 41.2836C73.3992 41.2088 73.3415 41.1484 73.2649 41.1484H72.578C72.4933 41.1484 72.4203 41.2213 72.4203 41.3061C72.4203 42.1987 72.9059 43.2543 75.2244 43.2543C76.9027 43.2543 77.8707 42.5955 77.8707 41.4412C77.8707 40.2969 77.0888 39.9898 75.4608 39.7746C73.8158 39.5569 73.6591 39.4504 73.6591 39.0651C73.6591 38.7471 73.7919 38.3219 75.0104 38.3219C76.0987 38.3219 76.5009 38.5566 76.6658 39.2904C76.6802 39.3593 76.741 39.4142 76.8122 39.4142H77.4991C77.5415 39.4142 77.5824 39.3883 77.6117 39.3579C77.6406 39.3255 77.6608 39.2889 77.6568 39.2453C77.5505 37.9816 76.7077 37.3872 75.0104 37.3872ZM56.7449 38.93C56.7224 38.93 56.6976 38.93 56.6773 38.9412L55.5962 39.5718C55.5557 39.5949 55.5287 39.6378 55.5287 39.6844V40.9231C55.5287 40.9698 55.5557 41.0125 55.5962 41.0357L56.6773 41.6551C56.7178 41.6785 56.7611 41.6785 56.8012 41.6551L57.8822 41.0357C57.9223 41.0127 57.9498 40.9698 57.9498 40.9231V39.6844C57.9498 39.6378 57.9223 39.595 57.8822 39.5718L56.8012 38.9412C56.7811 38.9293 56.7673 38.93 56.7449 38.93Z" fill="#83CD29"/>
</svg>
