<svg width="128" height="48" viewBox="0 0 128 48" fill="none" xmlns="http://www.w3.org/2000/svg">
<path d="M94.2048 39.4026L97.9026 30.0893H108.58L103.512 15.9614L109.849 0L128 47.9994H114.615L111.513 39.4026H94.2048Z" fill="#3D3D3D"/>
<path d="M82.7851 48L102.216 0.000762939H89.3338L76.0415 31.0185L66.59 0.000762939H56.6881L46.5397 31.0185L39.3821 16.8845L32.9055 36.7587L39.4816 48H52.1589L61.3297 20.1833L70.0736 48H82.7851" fill="#5A0FC8"/>
<path d="M12.2277 31.5224H20.1622C22.566 31.5224 24.7064 31.255 26.583 30.7203L28.6356 24.4243L34.3702 6.82605C33.9335 6.13616 33.4345 5.48397 32.8737 4.8693C29.9288 1.6231 25.6207 0 19.9486 0H0V47.9994H12.2277V31.5224V31.5224ZM22.7308 11.043C23.8806 12.1956 24.4559 13.7388 24.4559 15.6717C24.4559 17.6195 23.9499 19.1639 22.9389 20.3057C21.8295 21.5745 19.7881 22.2083 16.813 22.2083H12.2277V9.31333H16.8466C19.6191 9.31333 21.5802 9.88958 22.7308 11.043" fill="#3D3D3D"/>
</svg>
