<svg width="179" height="48" viewBox="0 0 179 48" fill="none" xmlns="http://www.w3.org/2000/svg" >
<path d="M15.361 48C6.8779 48 0.000976562 41.1231 0.000976562 32.64C0.000976562 24.1569 6.8779 17.28 15.361 17.28V48Z" fill="black"/>
<path d="M15.36 0H0V15.36H15.36V0Z" fill="black"/>
<path d="M24.9598 15.36C29.2013 15.36 32.6398 11.9215 32.6398 7.68C32.6398 3.43845 29.2013 0 24.9598 0C20.7183 0 17.2798 3.43845 17.2798 7.68C17.2798 11.9215 20.7183 15.36 24.9598 15.36Z" fill="black"/>
<path d="M102.63 42.4752H108.509C108.082 40.24 107.864 38.1137 107.864 35.5516V24.8661C107.864 17.6699 103.754 14.1263 96.3814 14.1263C89.7031 14.1263 85.162 17.6154 84.5742 23.5577H91.1456C91.3596 20.9954 93.1759 19.3054 96.1677 19.3054C99.2667 19.3054 101.297 20.9409 101.297 24.3209V25.6294L93.1759 26.5562C87.6731 27.2104 83.3989 29.5 83.3989 35.0607C83.3989 40.0764 87.2455 43.0747 92.5348 43.0747C96.8623 43.0747 100.513 41.2757 102.025 38.1137C102.092 40.0081 102.63 42.4752 102.63 42.4752ZM94.4047 38.2229C91.6801 38.2229 90.1841 36.8598 90.1841 34.6793C90.1841 31.7899 92.3745 31.1357 95.2597 30.754L101.297 30.0453V31.7352C101.297 36.0966 97.931 38.2229 94.4047 38.2229ZM131.145 42.4752H137.877V3.23132H131.038V19.3054C129.756 16.525 126.657 14.1263 122.436 14.1263C115.1 14.1263 110.007 20.0686 110.007 28.6277C110.007 37.2414 115.1 43.1294 122.436 43.1294C126.55 43.1294 129.809 40.8395 131.145 38.0593V42.4752ZM131.198 29.1184C131.198 34.5157 128.687 38.0048 124.36 38.0048C119.925 38.0048 117.13 34.3521 117.13 28.6277C117.13 22.958 119.925 19.2509 124.36 19.2509C128.687 19.2509 131.198 22.74 131.198 28.1371V29.1184ZM141.87 10.092H149.136V3.27738H141.87V10.092ZM142.084 42.4752H148.923V14.7805H142.084V42.4752ZM157.463 42.4752L164.248 32.9892L170.98 42.4752H178.834L168.309 27.9735L177.979 14.7805H170.66L164.622 23.3396L158.639 14.7805H150.785L160.562 28.3008L150.144 42.4752H157.463Z" fill="black"/>
<path fill-rule="evenodd" clip-rule="evenodd" d="M58.8114 42.4611V28.6541H67.7775L76.2066 42.4611H83.7048L74.4484 27.6198C78.637 26.2754 82.3085 22.8624 82.3085 17.1224C82.3085 9.57251 77.0099 5.539 68.1434 5.539H52.0889V42.4611H58.8114ZM58.8114 10.9687V23.2761H67.8293C72.9487 23.2761 75.5342 21.1559 75.5342 17.1224C75.5342 13.0889 72.718 10.9687 67.3677 10.9687H58.8114Z" fill="black"/>
</svg>
