<svg width="39" height="35" viewBox="0 0 39 35" fill="none" xmlns="http://www.w3.org/2000/svg">
<path d="M30.0838 10.2785C30.7029 7.27951 30.8358 4.9793 30.4356 3.30902C30.1975 2.31564 29.7624 1.50525 29.1007 0.920569C28.4021 0.303298 27.5189 0.000402827 26.5265 0.000402827C24.8894 0.000402827 23.1683 0.746175 21.3291 2.16295C20.5789 2.74082 19.8003 3.43736 18.9917 4.25295C18.9273 4.17018 18.8546 4.09211 18.7735 4.01995C16.4874 1.98488 14.5627 0.720472 12.9165 0.232952C11.9377 -0.0569271 11.0187 -0.0845441 10.1818 0.196794C9.29844 0.493764 8.59457 1.10764 8.09796 1.9675C7.27839 3.38656 7.06225 5.25122 7.36781 7.5536C7.49236 8.49207 7.70528 9.51434 8.00612 10.622C7.89262 10.6357 7.77884 10.6608 7.6662 10.6981C4.76566 11.6583 2.71178 12.6908 1.46831 13.8709C0.728472 14.573 0.245352 15.3546 0.0707074 16.2198C-0.11363 17.1331 0.0661137 18.0491 0.562139 18.9083C1.38019 20.3253 2.88433 21.4429 5.02718 22.3281C5.88761 22.6835 6.86113 23.0054 7.94883 23.2949C7.8992 23.4069 7.86069 23.5258 7.83495 23.6505C7.21581 26.6495 7.08294 28.9497 7.48314 30.62C7.72116 31.6133 8.15632 32.4237 8.81801 33.0084C9.51658 33.6257 10.3998 33.9286 11.3922 33.9286C13.0293 33.9286 14.7504 33.1828 16.5896 31.766C17.3478 31.182 18.135 30.4768 18.9529 29.65C19.037 29.7815 19.1403 29.9037 19.2625 30.0125C21.5486 32.0475 23.4733 33.3119 25.1195 33.7995C26.0983 34.0893 27.0173 34.117 27.8542 33.8356C28.7376 33.5386 29.4415 32.9248 29.9381 32.0649C30.7577 30.6459 30.9738 28.7812 30.6682 26.4788C30.5392 25.5064 30.3153 24.4441 29.997 23.29C30.1214 23.2774 30.2463 23.2511 30.3698 23.2102C33.2704 22.25 35.3243 21.2175 36.5677 20.0374C37.3076 19.3353 37.7907 18.5537 37.9653 17.6885C38.1497 16.7753 37.9699 15.8592 37.4739 15C36.6559 13.583 35.1517 12.4654 33.0089 11.5802C32.1228 11.2142 31.1168 10.8837 29.9897 10.5876C30.0298 10.4894 30.0616 10.3861 30.0838 10.2785Z" fill="#002C4B"/>
<path fill-rule="evenodd" clip-rule="evenodd" d="M16.095 10.8103H21.9428C22.3014 10.8103 22.6325 11.0021 22.811 11.3131L25.7402 16.4179C25.9173 16.7265 25.9173 17.1058 25.7402 17.4143L22.811 22.5191C22.6325 22.8301 22.3014 23.0219 21.9428 23.0219H16.095C15.7364 23.0219 15.4053 22.8301 15.2268 22.5191L12.2976 17.4143C12.1205 17.1058 12.1205 16.7265 12.2976 16.4179L15.2268 11.3131C15.4053 11.0021 15.7364 10.8103 16.095 10.8103ZM21.2181 12.0668C21.5768 12.0668 21.9081 12.2588 22.0865 12.57L24.292 16.4184C24.4687 16.7267 24.4687 17.1055 24.292 17.4138L22.0865 21.2622C21.9081 21.5734 21.5768 21.7654 21.2181 21.7654H16.8197C16.461 21.7654 16.1297 21.5734 15.9513 21.2622L13.7458 17.4138C13.5691 17.1055 13.5691 16.7267 13.7458 16.4184L15.9513 12.57C16.1297 12.2588 16.461 12.0668 16.8197 12.0668H21.2181ZM20.4359 13.4411H17.6019C17.2435 13.4411 16.9125 13.6327 16.734 13.9435L15.3127 16.4175C15.1353 16.7263 15.1353 17.106 15.3127 17.4147L16.734 19.8888C16.9125 20.1995 17.2435 20.3911 17.6019 20.3911H20.4359C20.7942 20.3911 21.1253 20.1995 21.3038 19.8888L22.7251 17.4147C22.9025 17.106 22.9025 16.7263 22.7251 16.4175L21.3038 13.9435C21.1253 13.6327 20.7942 13.4411 20.4359 13.4411ZM19.6829 14.7565C20.041 14.7565 20.3718 14.9478 20.5504 15.2582L21.2172 16.4169C21.3951 16.7259 21.3951 17.1063 21.2172 17.4154L20.5504 18.574C20.3718 18.8844 20.041 19.0757 19.6829 19.0757H18.3549C17.9968 19.0757 17.666 18.8844 17.4874 18.574L16.8206 17.4154C16.6427 17.1063 16.6427 16.7259 16.8206 16.4169L17.4874 15.2582C17.666 14.9478 17.9968 14.7565 18.3549 14.7565H19.6829ZM19.0192 16.0523C18.71 16.0523 18.4247 16.2169 18.2703 16.4842C18.1159 16.7514 18.1159 17.0808 18.2703 17.348C18.4247 17.6153 18.71 17.78 19.0186 17.78C19.3278 17.78 19.6131 17.6153 19.7675 17.348C19.9219 17.0808 19.9219 16.7514 19.7675 16.4842C19.6131 16.2169 19.3278 16.0523 19.0192 16.0523ZM12.0117 16.9163H13.5668Z" fill="#FFD94C"/>
<path fill-rule="evenodd" clip-rule="evenodd" d="M10.9825 19.6903C11.245 19.5402 11.5783 19.6336 11.7268 19.8988L11.8218 20.0678C12.5833 21.417 13.3766 22.6976 14.2017 23.9098C15.1761 25.3412 16.2719 26.7903 17.4892 28.2571C17.6802 28.4873 17.6538 28.8297 17.4298 29.0272L17.3074 29.1346C13.282 32.6517 10.6658 33.3543 9.45865 31.2422C8.27793 29.1763 8.70522 25.4208 10.7405 19.9756C10.7857 19.8548 10.8713 19.7538 10.9825 19.6903ZM28.1337 23.831C28.4243 23.7797 28.7025 23.9712 28.7593 24.2619L28.79 24.4205C29.7849 29.6273 29.0844 32.2307 26.6886 32.2307C24.3452 32.2307 21.3621 30.0104 17.7395 25.5697C17.6591 25.4712 17.6157 25.3476 17.6168 25.2203C17.6194 24.9198 17.8642 24.6784 18.1635 24.681L18.3544 24.6824C19.8801 24.6907 21.3633 24.6378 22.8039 24.5236C24.5052 24.3888 26.2818 24.1579 28.1337 23.831ZM29.5099 12.7745C29.6147 12.4924 29.9302 12.3444 30.2197 12.4416L30.3775 12.495C35.5506 14.2571 37.5162 16.1937 36.2742 18.3048C35.0594 20.3696 31.5269 21.8729 25.6768 22.8144C25.5471 22.8353 25.414 22.8109 25.3007 22.7454C25.0333 22.5908 24.9442 22.2528 25.1017 21.9904L25.2019 21.8229C26.0002 20.4827 26.7218 19.1491 27.3665 17.8218C28.1278 16.2544 28.8423 14.572 29.5099 12.7745ZM12.3595 11.2179C12.4892 11.197 12.6223 11.2215 12.7356 11.287C13.003 11.4415 13.0921 11.7796 12.9346 12.042L12.8344 12.2095C12.0361 13.5496 11.3145 14.8833 10.6698 16.2106C9.90847 17.7779 9.19399 19.4604 8.52641 21.2578C8.42162 21.54 8.10607 21.6879 7.81656 21.5907L7.65882 21.5374C2.48565 19.7752 0.520057 17.8386 1.76204 15.7276C2.97689 13.6627 6.50936 12.1595 12.3595 11.2179ZM20.7289 4.89772C24.7543 1.38063 27.3705 0.678112 28.5776 2.79017C29.7584 4.85606 29.3311 8.6116 27.2958 14.0568C27.2506 14.1776 27.165 14.2785 27.0538 14.3421C26.7912 14.4921 26.458 14.3988 26.3095 14.1336L26.2145 13.9646C25.453 12.6154 24.6597 11.3347 23.8346 10.1226C22.8602 8.69117 21.7644 7.24205 20.5471 5.77525C20.356 5.54503 20.3825 5.2027 20.6065 5.00516L20.7289 4.89772ZM11.5479 1.6015C13.8913 1.6015 16.8744 3.82181 20.497 8.26244C20.5774 8.36093 20.6208 8.48458 20.6197 8.61188C20.617 8.91233 20.3723 9.15376 20.073 9.15114L19.882 9.14978C18.3564 9.14148 16.8732 9.19441 15.4326 9.30858C13.7313 9.44339 11.9547 9.67427 10.1028 10.0012C9.81215 10.0525 9.53401 9.86094 9.47713 9.57024L9.44647 9.41166C8.45161 4.20489 9.15208 1.6015 11.5479 1.6015Z" fill="#FF4154"/>
</svg>
