<svg width="70" height="19" viewBox="0 0 70 19" fill="none" xmlns="http://www.w3.org/2000/svg">
<path d="M10.4726 11.1876C11.5085 11.1876 12.3483 10.3477 12.3483 9.3116C12.3483 8.27551 11.5085 7.43561 10.4726 7.43561C9.4367 7.43561 8.59692 8.27551 8.59692 9.3116C8.59692 10.3477 9.4367 11.1876 10.4726 11.1876Z" fill="#61BBFB"/>
<path d="M10.4727 13.6107C8.2236 13.6674 5.9802 13.3594 3.82956 12.6988C2.83778 12.3801 1.91128 11.8859 1.09416 11.2397C0.364715 10.6144 0 9.96298 0 9.31159C0 8.06093 1.35468 6.86238 3.6472 6.05466C5.86141 5.34902 8.17507 5.00588 10.4987 5.0385C12.9997 5.0385 15.3964 5.37723 17.2461 6.02861C18.3402 6.39339 19.252 6.88844 19.9033 7.43561C20.6067 8.03488 20.9714 8.66021 20.9714 9.31159C20.9714 10.5883 19.4604 11.9171 17.0116 12.7249C14.8891 13.3482 12.6845 13.6469 10.4727 13.6107V13.6107ZM10.4727 5.95044C8.04989 5.95044 5.67922 6.28917 3.90772 6.9145C2.39673 7.43561 0.859695 8.39965 0.859695 9.31159C0.859695 9.67637 1.14626 10.1193 1.64124 10.5623C2.24042 11.0573 3.07407 11.5263 4.09007 11.865C6.1486 12.493 8.29526 12.7834 10.4466 12.7249C12.8173 12.7249 15.0317 12.4383 16.699 11.865C19.0176 11.1094 20.0596 10.0151 20.0596 9.31159C20.0596 8.97287 19.7991 8.52993 19.3041 8.1391C18.5927 7.58745 17.7904 7.16422 16.9334 6.88844C14.8425 6.23827 12.6622 5.92172 10.4727 5.95044V5.95044Z" fill="#61BBFB"/>
<path d="M6.22652 18.6655C5.83575 18.6655 5.49709 18.5873 5.23657 18.431C4.16846 17.8057 3.80374 16.0339 4.24661 13.6629C4.74122 11.3928 5.60361 9.21888 6.79966 7.22716C7.9242 5.22588 9.35726 3.41449 11.046 1.85974C11.9057 1.10413 12.7915 0.556967 13.573 0.270357C14.4327 -0.0423082 15.1882 -0.0423082 15.7353 0.270357C16.8555 0.921744 17.2202 2.8759 16.6992 5.40328C16.1908 7.55022 15.3561 9.60646 14.2243 11.5003C13.146 13.4742 11.766 15.2676 10.1342 16.8156C9.24849 17.5972 8.33669 18.1705 7.50304 18.4571C6.98201 18.5873 6.59124 18.6655 6.22652 18.6655ZM7.5291 7.64405C6.39057 9.55021 5.56387 11.6261 5.08026 13.7931C4.7937 15.3565 4.84579 17.1543 5.65339 17.6233C6.25257 17.962 7.71146 17.6493 9.48296 16.086C10.7855 14.9396 12.1402 13.1939 13.3907 11.0052C14.4836 9.19392 15.292 7.2255 15.7874 5.16878C16.0127 4.23963 16.0657 3.27701 15.9437 2.32874C15.8395 1.65129 15.6051 1.1823 15.2664 0.999907C14.9538 0.817519 14.4588 0.843577 13.8596 1.05202C13.0295 1.40005 12.2635 1.88441 11.5931 2.48507C9.98642 3.99022 8.61628 5.72951 7.5291 7.64405Z" fill="#61BBFB"/>
<path d="M14.7189 18.6655C13.7029 18.6655 12.4003 18.0402 11.0717 16.8937C9.35332 15.3334 7.90137 13.5028 6.77318 11.4742C5.52271 9.31159 4.6109 7.04477 4.24618 5.11667C4.01172 3.99628 3.98567 2.95406 4.14198 2.12029C4.29829 1.20835 4.66301 0.556961 5.21009 0.244295C6.3303 -0.407091 8.20601 0.270352 10.1338 1.96396C11.7212 3.48988 13.0811 5.23608 14.1718 7.14899C15.356 9.06257 16.2185 11.1574 16.7248 13.3502C16.9593 14.4966 16.9853 15.591 16.829 16.4508C16.6467 17.3888 16.2559 18.0402 15.7088 18.3789C15.4182 18.5783 15.0711 18.6788 14.7189 18.6655ZM7.55472 11.0313C8.75309 13.1157 10.2641 15.0177 11.6708 16.2163C12.8953 17.2585 14.4584 18.1183 15.266 17.6493C15.8651 17.3106 16.308 15.8776 15.8391 13.5847C15.3446 11.4866 14.5179 9.48104 13.3902 7.64404C12.3674 5.79748 11.0671 4.11904 9.53463 2.66745C8.83443 2.01533 8.02257 1.4946 7.1379 1.13018C6.51266 0.89568 5.96558 0.869628 5.65296 1.05202C5.34034 1.2344 5.13193 1.67734 5.00167 2.30267C4.88436 3.18801 4.91961 4.08691 5.10589 4.96033C5.47061 6.78422 6.3303 8.94682 7.55472 11.0313V11.0313Z" fill="#61BBFB"/>
<path d="M31.4445 15.9297L28.0317 10.5883H25.3484V15.9297H23.6812V2.51114H29.0738C31.5226 2.51114 33.2681 4.07447 33.2681 6.54974C33.2681 8.9729 31.6268 10.3017 29.7772 10.4581L33.3983 15.9297H31.4445V15.9297ZM31.5487 6.54974C31.5487 5.03852 30.4545 3.9963 28.8654 3.9963H25.3484V9.12923H28.8654C30.4545 9.12923 31.5487 8.06095 31.5487 6.54974Z" fill="#61BBFB"/>
<path d="M34.8831 11.0573C34.8831 8.24333 36.889 5.9765 39.6765 5.9765C42.6203 5.9765 44.3397 8.26938 44.3397 11.1876V11.5784H36.4722C36.6025 13.4023 37.879 14.9396 39.9631 14.9396C41.0572 14.9396 42.2035 14.4966 42.959 13.715L43.6884 14.7051C43.1792 15.2 42.5751 15.5867 41.9125 15.8419C41.2498 16.0972 40.5424 16.2157 39.8328 16.1902C36.9672 16.1642 34.8831 14.1058 34.8831 11.0573V11.0573ZM39.6505 7.22716C37.5664 7.22716 36.5504 8.97288 36.4722 10.458H42.8548C42.8287 8.99894 41.8648 7.22716 39.6505 7.22716Z" fill="#61BBFB"/>
<path d="M52.2593 15.9297V14.8354C51.8503 15.2807 51.3499 15.6324 50.7923 15.8662C50.2348 16.1001 49.6332 16.2106 49.029 16.1902C47.3877 16.1902 45.6162 15.0959 45.6162 12.9594C45.6162 10.7968 47.3617 9.75454 49.029 9.75454C50.3576 9.75454 51.4517 10.1714 52.2593 11.0834V9.33765C52.2593 8.03488 51.2173 7.27927 49.8105 7.27927C48.6382 7.27927 47.7003 7.69616 46.8406 8.63416L46.1372 7.59194C47.1793 6.49761 48.4298 5.9765 50.0189 5.9765C52.077 5.9765 53.7703 6.9145 53.7703 9.25949V15.9297H52.2593V15.9297ZM52.2593 13.8713V12.0474C51.6862 11.2397 50.6441 10.8489 49.576 10.8489C48.1693 10.8489 47.1793 11.7348 47.1793 12.9854C47.1793 14.21 48.1693 15.0959 49.576 15.0959C50.6441 15.0959 51.6601 14.679 52.2593 13.8713Z" fill="#61BBFB"/>
<path d="M55.2029 11.0573C55.2029 8.19121 57.1567 5.9765 60.0485 5.9765C61.8199 5.9765 62.862 6.70605 63.6175 7.6701L62.6015 8.6081C62.3315 8.20241 61.9626 7.87226 61.5295 7.64887C61.0965 7.42547 60.6136 7.3162 60.1266 7.33139C58.0425 7.33139 56.766 8.92077 56.766 11.0834C56.766 13.246 58.0425 14.8354 60.1266 14.8354C61.1426 14.8354 61.9502 14.4445 62.6015 13.5586L63.6175 14.4966C63.2074 15.0504 62.6673 15.4946 62.0448 15.79C61.4223 16.0854 60.7367 16.2228 60.0485 16.1902C57.1567 16.1642 55.2029 13.9495 55.2029 11.0573V11.0573ZM66.0403 13.8974V7.53983H64.4251V6.211H66.0403V3.55334H67.5513V6.211H69.5312V7.53983H67.5513V13.5847C67.5513 14.3142 67.8639 14.8354 68.5412 14.8354C68.958 14.8354 69.3749 14.653 69.5572 14.4445L70.0001 15.5649C69.7526 15.7846 69.464 15.953 69.151 16.0604C68.8379 16.1677 68.5067 16.2119 68.1765 16.1902C66.7437 16.1642 66.0403 15.3565 66.0403 13.8974Z" fill="#61BBFB"/>
</svg>
