<svg width="48" height="48" viewBox="0 0 48 48" fill="none" xmlns="http://www.w3.org/2000/svg">
<rect x="1.5222" y="1.5222" width="44.9556" height="44.9556" rx="6.59619" fill="#EC5990" stroke="white" stroke-width="3.0444"/>
<path d="M31.3999 11.896H26.5567C26.3837 11.3543 26.0429 10.8816 25.5837 10.5462C25.1244 10.2108 24.5704 10.03 24.0017 10.03C23.433 10.03 22.879 10.2108 22.4197 10.5462C21.9605 10.8816 21.6197 11.3543 21.4467 11.896H16.6004C15.6841 11.896 14.8053 12.26 14.1574 12.9079C13.5095 13.5559 13.1455 14.4346 13.1455 15.3509V33.3509C13.1455 34.2672 13.5095 35.1459 14.1574 35.7938C14.8053 36.4418 15.6841 36.8057 16.6004 36.8057H31.3999C32.3162 36.8057 33.1949 36.4418 33.8428 35.7938C34.4907 35.1459 34.8547 34.2672 34.8547 33.3509V15.3509C34.8547 14.4346 34.4907 13.5559 33.8428 12.9079C33.1949 12.26 32.3162 11.896 31.3999 11.896ZM21.6885 12.5242C21.7615 12.5258 21.8329 12.5019 21.8902 12.4566C21.9475 12.4114 21.9873 12.3475 22.0026 12.2761C22.1024 11.818 22.3559 11.4079 22.721 11.1138C23.0861 10.8198 23.5408 10.6594 24.0095 10.6594C24.4783 10.6594 24.933 10.8198 25.2981 11.1138C25.6632 11.4079 25.9167 11.818 26.0165 12.2761C26.0318 12.3475 26.0716 12.4114 26.1289 12.4566C26.1862 12.5019 26.2576 12.5258 26.3306 12.5242H28.0204V14.5814C28.0204 14.8313 27.9211 15.071 27.7444 15.2477C27.5677 15.4244 27.328 15.5237 27.0781 15.5237H20.9378C20.6879 15.5237 20.4483 15.4244 20.2716 15.2477C20.0949 15.071 19.9956 14.8313 19.9956 14.5814V12.5242H21.6885ZM34.2266 33.3509C34.2266 34.1006 33.9288 34.8195 33.3987 35.3497C32.8685 35.8798 32.1496 36.1776 31.3999 36.1776H16.6004C15.8507 36.1776 15.1317 35.8798 14.6016 35.3497C14.0715 34.8195 13.7737 34.1006 13.7737 33.3509V15.3509C13.7737 14.6012 14.0715 13.8822 14.6016 13.3521C15.1317 12.822 15.8507 12.5242 16.6004 12.5242H19.3674V14.5814C19.3674 14.9979 19.5329 15.3974 19.8274 15.6919C20.1219 15.9864 20.5213 16.1518 20.9378 16.1518H27.0624C27.4789 16.1518 27.8783 15.9864 28.1729 15.6919C28.4674 15.3974 28.6328 14.9979 28.6328 14.5814V12.5242H31.3999C32.1496 12.5242 32.8685 12.822 33.3987 13.3521C33.9288 13.8822 34.2266 14.6012 34.2266 15.3509V33.3509Z" fill="white"/>
<path d="M30.784 22.1351H25.2562C25.1729 22.1351 25.093 22.1682 25.0341 22.2271C24.9752 22.286 24.9421 22.3659 24.9421 22.4492C24.9421 22.5325 24.9752 22.6123 25.0341 22.6712C25.093 22.7301 25.1729 22.7632 25.2562 22.7632H30.784C30.8673 22.7632 30.9472 22.7301 31.0061 22.6712C31.065 22.6123 31.0981 22.5325 31.0981 22.4492C31.0981 22.3659 31.065 22.286 31.0061 22.2271C30.9472 22.1682 30.8673 22.1351 30.784 22.1351Z" fill="white"/>
<path d="M30.784 22.1351H25.2562C25.1729 22.1351 25.093 22.1682 25.0341 22.2271C24.9752 22.286 24.9421 22.3659 24.9421 22.4492C24.9421 22.5325 24.9752 22.6123 25.0341 22.6712C25.093 22.7301 25.1729 22.7632 25.2562 22.7632H30.784C30.8673 22.7632 30.9472 22.7301 31.0061 22.6712C31.065 22.6123 31.0981 22.5325 31.0981 22.4492C31.0981 22.3659 31.065 22.286 31.0061 22.2271C30.9472 22.1682 30.8673 22.1351 30.784 22.1351Z" fill="white"/>
<path d="M22.5863 22.1226H17.0585C16.9752 22.1226 16.8953 22.1557 16.8364 22.2146C16.7775 22.2735 16.7444 22.3534 16.7444 22.4367C16.7444 22.52 16.7775 22.5999 16.8364 22.6588C16.8953 22.7177 16.9752 22.7508 17.0585 22.7508H22.5863C22.6696 22.7508 22.7495 22.7177 22.8084 22.6588C22.8673 22.5999 22.9004 22.52 22.9004 22.4367C22.9004 22.3534 22.8673 22.2735 22.8084 22.2146C22.7495 22.1557 22.6696 22.1226 22.5863 22.1226Z" fill="white"/>
<path d="M30.6274 29.5379H25.0839C25.0006 29.5379 24.9207 29.571 24.8618 29.6299C24.8029 29.6888 24.7698 29.7687 24.7698 29.852C24.7698 29.9353 24.8029 30.0152 24.8618 30.0741C24.9207 30.133 25.0006 30.1661 25.0839 30.1661H30.6274C30.7107 30.1661 30.7906 30.133 30.8495 30.0741C30.9084 30.0152 30.9415 29.9353 30.9415 29.852C30.9415 29.7687 30.9084 29.6888 30.8495 29.6299C30.7906 29.571 30.7107 29.5379 30.6274 29.5379Z" fill="white"/>
<path d="M30.6274 29.5379H25.0839C25.0006 29.5379 24.9207 29.571 24.8618 29.6299C24.8029 29.6888 24.7698 29.7687 24.7698 29.852C24.7698 29.9353 24.8029 30.0152 24.8618 30.0741C24.9207 30.133 25.0006 30.1661 25.0839 30.1661H30.6274C30.7107 30.1661 30.7906 30.133 30.8495 30.0741C30.9084 30.0152 30.9415 29.9353 30.9415 29.852C30.9415 29.7687 30.9084 29.6888 30.8495 29.6299C30.7906 29.571 30.7107 29.5379 30.6274 29.5379Z" fill="white"/>
<path d="M22.602 29.5307H17.0585C16.9752 29.5307 16.8953 29.5638 16.8364 29.6227C16.7775 29.6816 16.7444 29.7615 16.7444 29.8448C16.7444 29.928 16.7775 30.0079 16.8364 30.0668C16.8953 30.1257 16.9752 30.1588 17.0585 30.1588H22.602C22.6853 30.1588 22.7652 30.1257 22.8241 30.0668C22.883 30.0079 22.9161 29.928 22.9161 29.8448C22.9161 29.7615 22.883 29.6816 22.8241 29.6227C22.7652 29.5638 22.6853 29.5307 22.602 29.5307Z" fill="white"/>
</svg>
