<svg width="383" height="48" viewBox="0 0 383 48" fill="none" xmlns="http://www.w3.org/2000/svg">
<path d="M51.9278 10.3271C51.9278 10.3271 34.8709 -2.55268 21.6356 0.455347L20.4734 0.776659C18.6636 1.29826 17.0802 2.41001 15.975 3.93509C15.7968 4.19376 15.6347 4.46317 15.4896 4.74179L10.6016 13.048L19.0445 14.6956C20.7723 15.9139 22.7375 16.7542 24.8119 17.1617C26.8862 17.5693 29.0233 17.535 31.0835 17.061L46.1236 20.0007L51.9278 10.3271Z" fill="#76B3E1"/>
<path opacity="0.3" d="M51.9278 10.3271C51.9278 10.3271 34.8709 -2.55268 21.6356 0.455347L20.4734 0.776659C18.6636 1.29826 17.0802 2.41001 15.975 3.93509C15.7968 4.19376 15.6347 4.46317 15.4896 4.74179L10.6016 13.048L19.0445 14.6956C20.7723 15.9139 22.7375 16.7542 24.8119 17.1617C26.8862 17.5693 29.0233 17.535 31.0835 17.061L46.1236 20.0007L51.9278 10.3271Z" fill="url(#paint0_linear_222_482)"/>
<path d="M15.826 10.1631L14.657 10.4912C9.25621 12.2345 7.41038 17.2866 10.5141 21.7166C12.3061 23.9696 14.7306 25.6356 17.4763 26.5005C20.2221 27.3654 23.1637 27.3898 25.9234 26.5705L46.1046 20.0007C46.1046 20.0007 29.0818 7.15503 15.826 10.1631Z" fill="#518AC8"/>
<path opacity="0.3" d="M15.826 10.1631L14.657 10.4912C9.25621 12.2345 7.41038 17.2866 10.5141 21.7166C12.3061 23.9696 14.7306 25.6356 17.4763 26.5005C20.2221 27.3654 23.1637 27.3898 25.9234 26.5705L46.1046 20.0007C46.1046 20.0007 29.0818 7.15503 15.826 10.1631Z" fill="url(#paint1_linear_222_482)"/>
<path d="M42.4109 24.7316C40.6218 22.4666 38.1945 20.7901 35.4427 19.9187C32.691 19.0474 29.7411 19.0212 26.9743 19.8436L6.81368 26.3792L0.469482 37.673L36.5863 43.8258L43.0604 32.3064C44.3525 30.0982 44.2226 27.3158 42.4109 24.7316Z" fill="url(#paint2_linear_222_482)"/>
<path d="M36.0668 36.0252C34.2783 33.7689 31.8568 32.0982 29.1125 31.2273C26.3683 30.3564 23.4265 30.325 20.6643 31.1371L0.469482 37.6727C0.469482 37.6727 17.5605 50.5526 30.7617 47.5445L31.9239 47.2232C37.3315 45.5073 39.1773 40.4552 36.0668 36.0252Z" fill="url(#paint3_linear_222_482)"/>
<path d="M83.2509 36.001C85.9535 38.633 89.5526 40.1437 93.324 40.2292C97.5522 40.2292 101.034 37.7421 101.034 33.5138C101.034 23.8138 81.7586 26.1766 81.7586 14.2381C81.7586 8.64193 86.733 3.91627 93.8215 3.91627C97.6111 3.80356 101.302 5.13746 104.143 7.64706L102.265 10.8804C99.9476 8.7719 96.9419 7.57848 93.809 7.5227C88.8346 7.5227 85.7257 10.756 85.6013 14.1137C85.6013 23.3164 104.877 20.7048 104.877 33.3895C104.877 39.11 100.4 43.8357 93.1872 43.8357C90.9241 43.8805 88.6757 43.4623 86.58 42.6069C84.4842 41.7515 82.5854 40.4769 81 38.8613L83.2509 36.001ZM144.311 4.16499C146.905 4.15329 149.476 4.65767 151.873 5.64878C154.271 6.63988 156.447 8.0979 158.275 9.938C160.104 11.7781 161.548 13.9635 162.524 16.367C163.5 18.7705 163.988 21.3442 163.96 23.9381C163.993 26.5512 163.511 29.1451 162.541 31.5718C161.572 33.9984 160.133 36.2103 158.309 38.0811C156.484 39.9519 154.309 41.445 151.907 42.475C149.506 43.5051 146.924 44.0519 144.311 44.0844H144.187C141.574 44.0519 138.993 43.5051 136.591 42.475C134.19 41.445 132.014 39.9519 130.19 38.0811C128.365 36.2103 126.927 33.9984 125.957 31.5718C124.988 29.1451 124.505 26.5512 124.538 23.9381V23.8138C124.527 21.2197 125.031 18.6492 126.022 16.2519C127.013 13.8546 128.471 11.6783 130.311 9.84978C132.151 8.02126 134.337 6.57699 136.74 5.60104C139.144 4.62508 141.717 4.13693 144.311 4.16499V4.16499ZM144.187 40.6023C148.473 40.5045 152.544 38.7084 155.506 35.609C158.468 32.5097 160.077 28.3608 159.981 24.0749V23.9381C159.981 14.7355 153.017 7.64706 144.311 7.64706C142.207 7.64985 140.123 8.0727 138.184 8.89082C136.245 9.70894 134.488 10.9059 133.017 12.4115C131.546 13.9171 130.391 15.7012 129.618 17.6591C128.846 19.617 128.471 21.7094 128.518 23.8138C128.518 33.2651 135.482 40.478 144.187 40.6023ZM186.345 4.91115H190.076L189.951 40.1049H207.859V43.4626H186.096L186.345 4.91115ZM228.503 5.03551H232.234L232.109 43.7113H228.378L228.503 5.03551ZM257.354 5.03551H269.79C281.356 5.03551 289.19 12.124 289.19 24.4356C289.19 36.7472 281.356 43.7113 269.79 43.7113H257.354V5.03551ZM269.293 40.3536C278.744 40.3536 285.086 34.7574 285.211 24.4356C285.335 14.1137 278.868 8.51757 269.417 8.51757H261.085L260.961 40.3536H269.293Z" fill="#47494F"/>
<path d="M321.734 43.7112C324.951 43.8101 328.087 42.6909 330.514 40.5774C331.719 39.4575 332.663 38.0857 333.278 36.5595C333.893 35.0334 334.163 33.3905 334.071 31.7478V31.7478V5.49554H326.298V31.1758C326.386 32.5339 325.939 33.8725 325.055 34.9066C324.608 35.3599 324.069 35.7131 323.475 35.9425C322.882 36.1719 322.246 36.2724 321.61 36.2372C319.173 36.2372 317.394 34.8071 316.275 31.9468L309.696 35.6154C311.844 41.0126 315.856 43.7112 321.734 43.7112Z" fill="#47494F"/>
<path d="M368.321 43.7983C372.637 43.7983 376.019 42.7288 378.444 40.5774C379.638 39.5278 380.584 38.2254 381.212 36.7649C381.84 35.3043 382.135 33.7222 382.076 32.1334C382.125 30.7994 381.871 29.4716 381.332 28.2501C380.794 27.0287 379.985 25.9455 378.967 25.0822C376.877 23.2914 373.532 21.7494 368.931 20.4311C367.27 20.0574 365.688 19.3966 364.255 18.4787C363.825 18.1792 363.476 17.7788 363.237 17.3125C362.999 16.8463 362.878 16.3286 362.887 15.805C362.872 15.2628 362.989 14.725 363.227 14.2377C363.465 13.7504 363.818 13.3281 364.255 13.0069C365.307 12.2557 366.583 11.8831 367.874 11.9498C369.399 11.8471 370.916 12.2427 372.197 13.0771C373.477 13.9114 374.452 15.1394 374.975 16.576V16.576L381.404 13.0566C380.408 10.5579 378.633 8.44706 376.343 7.03763C373.89 5.57724 371.075 4.84003 368.222 4.91108C364.842 4.81893 361.546 5.96932 358.957 8.14443C357.729 9.11154 356.743 10.3508 356.076 11.7644C355.409 13.1781 355.08 14.7273 355.114 16.29C355.082 17.5897 355.323 18.8818 355.82 20.0832C356.316 21.2847 357.059 22.369 358 23.2665C359.724 25.0076 362.779 26.5372 367.165 27.8554C369.14 28.3277 371.034 29.0904 372.786 30.1187C373.246 30.3764 373.626 30.7546 373.887 31.2126C374.148 31.6706 374.279 32.191 374.266 32.7179C374.263 33.2932 374.114 33.8584 373.833 34.3607C373.553 34.863 373.15 35.2861 372.662 35.5906C371.444 36.3838 370.01 36.7793 368.558 36.7222C366.821 36.7646 365.111 36.2862 363.648 35.3487C362.186 34.4113 361.037 33.0576 360.35 31.4618V31.4618L353.635 34.9315C354.739 37.6488 356.7 39.932 359.218 41.4355C361.972 43.0591 365.126 43.8777 368.321 43.7983Z" fill="#47494F"/>
<defs>
<linearGradient id="paint0_linear_222_482" x1="8.07892" y1="-0.139421" x2="48.3728" y2="19.4401" gradientUnits="userSpaceOnUse">
<stop offset="0.1" stop-color="#76B3E1"/>
<stop offset="0.3" stop-color="#DCF2FD"/>
<stop offset="1" stop-color="#76B3E1"/>
</linearGradient>
<linearGradient id="paint1_linear_222_482" x1="30.1825" y1="9.45207" x2="23.1273" y2="32.9489" gradientUnits="userSpaceOnUse">
<stop stop-color="#76B3E1"/>
<stop offset="0.5" stop-color="#4377BB"/>
<stop offset="1" stop-color="#1F3B77"/>
</linearGradient>
<linearGradient id="paint2_linear_222_482" x1="5.11825" y1="19.7" x2="45.8633" y2="47.4012" gradientUnits="userSpaceOnUse">
<stop stop-color="#315AA9"/>
<stop offset="0.5" stop-color="#518AC8"/>
<stop offset="1" stop-color="#315AA9"/>
</linearGradient>
<linearGradient id="paint3_linear_222_482" x1="23.5151" y1="23.0154" x2="7.07347" y2="83.3059" gradientUnits="userSpaceOnUse">
<stop stop-color="#4377BB"/>
<stop offset="0.5" stop-color="#1A336B"/>
<stop offset="1" stop-color="#1A336B"/>
</linearGradient>
</defs>
</svg>
