<svg  viewBox="0 0 124 16" fill="none" xmlns="http://www.w3.org/2000/svg">
<g clip-path="url(#clip0_232_121)">
<g clip-path="url(#clip1_232_121)">
<g clip-path="url(#clip2_232_121)">
<path d="M17.3694 3.73875C17.3694 3.73875 11.8828 -0.404241 7.62544 0.563341L7.2516 0.666696C6.66945 0.834478 6.16012 1.19209 5.80462 1.68266C5.74729 1.76586 5.69515 1.85252 5.64848 1.94215L4.07617 4.61398L6.79197 5.14396C7.34775 5.53584 7.97989 5.80614 8.64715 5.93722C9.31438 6.06833 10.0018 6.0573 10.6645 5.90483L15.5024 6.85043L17.3694 3.73875Z" fill="#76B3E1"/>
<path opacity="0.3" d="M17.3694 3.73875C17.3694 3.73875 11.8828 -0.404241 7.62544 0.563341L7.2516 0.666696C6.66945 0.834478 6.16012 1.19209 5.80462 1.68266C5.74729 1.76586 5.69515 1.85252 5.64848 1.94215L4.07617 4.61398L6.79197 5.14396C7.34775 5.53584 7.97989 5.80614 8.64715 5.93722C9.31438 6.06833 10.0018 6.0573 10.6645 5.90483L15.5024 6.85043L17.3694 3.73875Z" fill="url(#paint0_linear_232_121)"/>
<path d="M5.7565 3.68599L5.38048 3.79153C3.64322 4.35229 3.04948 5.97739 4.04784 7.40237C4.62427 8.12709 5.40415 8.66298 6.28735 8.94119C7.17058 9.2194 8.1168 9.22725 9.0045 8.96371L15.4961 6.85042C15.4961 6.85042 10.0205 2.7184 5.7565 3.68599Z" fill="#518AC8"/>
<path opacity="0.3" d="M5.7565 3.68599L5.38048 3.79153C3.64322 4.35229 3.04948 5.97739 4.04784 7.40237C4.62427 8.12709 5.40415 8.66298 6.28735 8.94119C7.17058 9.2194 8.1168 9.22725 9.0045 8.96371L15.4961 6.85042C15.4961 6.85042 10.0205 2.7184 5.7565 3.68599Z" fill="url(#paint1_linear_232_121)"/>
<path d="M14.3085 8.37226C13.733 7.64368 12.9523 7.10441 12.0671 6.82411C11.182 6.54384 10.2331 6.53541 9.3431 6.79995L2.8581 8.90224L0.817383 12.5351L12.435 14.5142L14.5175 10.8088C14.9331 10.0985 14.8913 9.20351 14.3085 8.37226Z" fill="url(#paint2_linear_232_121)"/>
<path d="M12.2679 12.005C11.6926 11.2792 10.9136 10.7418 10.0309 10.4617C9.14817 10.1815 8.20189 10.1714 7.31338 10.4327L0.817383 12.535C0.817383 12.535 6.31499 16.678 10.5614 15.7104L10.9352 15.607C12.6747 15.0551 13.2684 13.43 12.2679 12.005Z" fill="url(#paint3_linear_232_121)"/>
<path d="M27.4447 11.9972C28.3141 12.8438 29.4718 13.3297 30.6849 13.3572C32.045 13.3572 33.165 12.5572 33.165 11.1971C33.165 8.07694 26.9647 8.83697 26.9647 4.99675C26.9647 3.19665 28.5648 1.67656 30.845 1.67656C32.0639 1.64031 33.2512 2.06938 34.165 2.87663L33.5609 3.91669C32.8155 3.23846 31.8487 2.85457 30.8409 2.83663C29.2408 2.83663 28.2408 3.87668 28.2008 4.95674C28.2008 7.91694 34.4011 7.07687 34.4011 11.1571C34.4011 12.9972 32.961 14.5173 30.6409 14.5173C29.913 14.5317 29.1897 14.3972 28.5156 14.122C27.8415 13.8469 27.2307 13.4369 26.7207 12.9172L27.4447 11.9972ZM47.0857 1.75657C47.9201 1.7528 48.7471 1.91505 49.5182 2.23385C50.2895 2.55266 50.9895 3.02165 51.5775 3.61355C52.1658 4.20545 52.6303 4.90842 52.9443 5.68155C53.2582 6.45467 53.4152 7.28255 53.4062 8.11692C53.4168 8.95747 53.2617 9.79184 52.9497 10.5724C52.638 11.353 52.1752 12.0645 51.5884 12.6662C51.0014 13.268 50.3018 13.7483 49.5291 14.0796C48.7568 14.411 47.9263 14.5869 47.0857 14.5973H47.0459C46.2053 14.5869 45.3751 14.411 44.6025 14.0796C43.8302 13.7483 43.1302 13.268 42.5435 12.6662C41.9564 12.0645 41.4939 11.353 41.1819 10.5724C40.8702 9.79184 40.7148 8.95747 40.7254 8.11692V8.07693C40.7219 7.2425 40.884 6.41565 41.2028 5.64452C41.5216 4.87339 41.9905 4.17335 42.5824 3.58517C43.1743 2.997 43.8774 2.53243 44.6504 2.2185C45.4237 1.90456 46.2513 1.74754 47.0857 1.75657ZM47.0459 13.4772C48.4245 13.4458 49.734 12.868 50.6868 11.8711C51.6396 10.8741 52.1571 9.53955 52.1263 8.16092V8.11692C52.1263 5.15675 49.8862 2.87663 47.0857 2.87663C46.409 2.87753 45.7386 3.01355 45.1149 3.27671C44.4912 3.53987 43.926 3.92489 43.4528 4.40919C42.9797 4.8935 42.6081 5.46738 42.3595 6.09717C42.1112 6.72696 41.9905 7.40002 42.0057 8.07693C42.0057 11.1171 44.2457 13.4373 47.0459 13.4772ZM60.6067 1.99658H61.8068L61.7666 13.3172H67.527V14.3973H60.5266L60.6067 1.99658ZM74.1675 2.03658H75.3676L75.3274 14.4773H74.1273L74.1675 2.03658ZM83.4479 2.03658H87.4482C91.1686 2.03658 93.6885 4.31672 93.6885 8.27695C93.6885 12.2372 91.1686 14.4773 87.4482 14.4773H83.4479V2.03658ZM87.2883 13.3972C90.3284 13.3972 92.3684 11.5971 92.4086 8.27695C92.4485 4.95674 90.3682 3.15665 87.3282 3.15665H84.648L84.6082 13.3972H87.2883Z" fill="#BAC5E7"/>
<path d="M104.157 14.4773C105.192 14.5091 106.201 14.1491 106.982 13.4692C107.369 13.109 107.673 12.6677 107.871 12.1768C108.069 11.6859 108.155 11.1574 108.126 10.629V2.18457H105.625V10.4451C105.654 10.8819 105.51 11.3125 105.226 11.6451C105.082 11.7909 104.908 11.9046 104.717 11.9783C104.527 12.0521 104.322 12.0845 104.117 12.0731C103.334 12.0731 102.761 11.6131 102.401 10.6931L100.285 11.8731C100.976 13.6092 102.267 14.4773 104.157 14.4773Z" fill="#949BB0"/>
<path d="M119.143 14.5054C120.531 14.5054 121.619 14.1613 122.399 13.4693C122.783 13.1317 123.088 12.7128 123.29 12.243C123.492 11.7731 123.586 11.2642 123.567 10.7532C123.583 10.3241 123.502 9.89695 123.328 9.50403C123.155 9.11115 122.895 8.76272 122.567 8.48502C121.895 7.90898 120.819 7.41297 119.339 6.98892C118.805 6.86871 118.296 6.65616 117.835 6.3609C117.697 6.26456 117.584 6.13576 117.508 5.98577C117.431 5.83581 117.392 5.66928 117.395 5.50086C117.39 5.32645 117.428 5.15346 117.504 4.99671C117.581 4.83996 117.694 4.70412 117.835 4.6008C118.173 4.35917 118.584 4.23931 118.999 4.26077C119.49 4.22773 119.978 4.35499 120.39 4.62338C120.801 4.89175 121.115 5.28676 121.283 5.74886L123.351 4.61679C123.031 3.81304 122.46 3.13405 121.723 2.68069C120.934 2.21093 120.029 1.97379 119.111 1.99665C118.024 1.96701 116.964 2.33705 116.131 3.03671C115.736 3.3478 115.419 3.74642 115.204 4.20113C114.99 4.65587 114.884 5.1542 114.895 5.65687C114.884 6.07494 114.962 6.49056 115.122 6.87701C115.281 7.2635 115.52 7.61228 115.823 7.90097C116.378 8.46103 117.36 8.95305 118.771 9.37707C119.406 9.52899 120.016 9.77433 120.579 10.1051C120.727 10.188 120.849 10.3096 120.933 10.457C121.017 10.6043 121.059 10.7717 121.055 10.9412C121.054 11.1262 121.006 11.308 120.916 11.4696C120.826 11.6312 120.696 11.7673 120.539 11.8652C120.147 12.1204 119.686 12.2476 119.219 12.2292C118.66 12.2429 118.11 12.089 117.64 11.7874C117.17 11.4859 116.8 11.0504 116.579 10.5371L114.419 11.6532C114.774 12.5273 115.405 13.2617 116.215 13.7453C117.101 14.2676 118.115 14.5309 119.143 14.5054Z" fill="#949BB0"/>
</g>
</g>
</g>
<defs>
<linearGradient id="paint0_linear_232_121" x1="3.26471" y1="0.372024" x2="16.2259" y2="6.6701" gradientUnits="userSpaceOnUse">
<stop offset="0.1" stop-color="#76B3E1"/>
<stop offset="0.3" stop-color="#DCF2FD"/>
<stop offset="1" stop-color="#76B3E1"/>
</linearGradient>
<linearGradient id="paint1_linear_232_121" x1="10.3745" y1="3.45728" x2="8.10509" y2="11.0154" gradientUnits="userSpaceOnUse">
<stop stop-color="#76B3E1"/>
<stop offset="0.5" stop-color="#4377BB"/>
<stop offset="1" stop-color="#1F3B77"/>
</linearGradient>
<linearGradient id="paint2_linear_232_121" x1="2.31274" y1="6.75376" x2="15.4191" y2="15.6643" gradientUnits="userSpaceOnUse">
<stop stop-color="#315AA9"/>
<stop offset="0.5" stop-color="#518AC8"/>
<stop offset="1" stop-color="#315AA9"/>
</linearGradient>
<linearGradient id="paint3_linear_232_121" x1="8.23039" y1="7.82019" x2="2.94167" y2="27.2136" gradientUnits="userSpaceOnUse">
<stop stop-color="#4377BB"/>
<stop offset="0.5" stop-color="#1A336B"/>
<stop offset="1" stop-color="#1A336B"/>
</linearGradient>
<clipPath id="clip0_232_121">
<rect width="123.19" height="15.44" fill="white" transform="translate(0.669922 0.41687)"/>
</clipPath>
<clipPath id="clip1_232_121">
<rect width="123.19" height="15.44" fill="white" transform="translate(0.669922 0.41687)"/>
</clipPath>
<clipPath id="clip2_232_121">
<rect width="123.198" height="15.44" fill="white" transform="translate(0.666016 0.41687)"/>
</clipPath>
</defs>
</svg>
