<svg width="280" height="49" viewBox="0 0 280 49" fill="none" xmlns="http://www.w3.org/2000/svg">
<path d="M69.6299 29.1938C69.9236 31.9294 72.4217 36.6189 79.6715 36.6189C85.9902 36.6189 89.0277 32.6133 89.0277 28.7054C89.0277 25.1882 86.6271 22.306 81.876 21.329L78.4467 20.5963C77.1243 20.3521 76.2427 19.6193 76.2427 18.4469C76.2427 17.0791 77.6142 16.0533 79.3288 16.0533C82.0716 16.0533 83.1003 17.8607 83.2964 19.2774L88.7335 18.0562C88.4398 15.4671 86.1373 11.1196 79.2798 11.1196C74.0873 11.1196 70.2668 14.6856 70.2668 18.9842C70.2668 22.3548 72.3727 25.1394 77.0263 26.1651L80.2104 26.8979C82.0716 27.2887 82.8066 28.168 82.8066 29.2427C82.8066 30.5128 81.7779 31.6363 79.6225 31.6363C76.7816 31.6363 75.3607 29.8777 75.2141 27.9725L69.6299 29.1938Z" fill="white"/>
<path d="M109.847 35.8862H116.068C115.97 35.0557 115.823 33.3949 115.823 31.5385V11.8522H109.307V25.8231C109.307 28.6076 107.642 30.5616 104.752 30.5616C101.715 30.5616 100.343 28.4122 100.343 25.7255V11.8522H93.8286V27.0445C93.8286 32.2713 97.1593 36.5212 102.989 36.5212C105.535 36.5212 108.329 35.5443 109.651 33.2972C109.651 34.2741 109.749 35.3977 109.847 35.8862Z" fill="white"/>
<path d="M129.291 45.1676V33.5415C130.466 35.1535 132.916 36.4725 136.247 36.4725C143.056 36.4725 147.611 31.0989 147.611 23.8204C147.611 16.6884 143.546 11.315 136.492 11.315C132.868 11.315 130.173 12.9269 129.096 14.7833V11.8523H122.777V45.1676H129.291ZM141.194 23.8693C141.194 28.1681 138.549 30.6593 135.218 30.6593C131.888 30.6593 129.194 28.1192 129.194 23.8693C129.194 19.6194 131.888 17.128 135.218 17.128C138.549 17.128 141.194 19.6194 141.194 23.8693Z" fill="white"/>
<path d="M151.303 29.3404C151.303 33.1018 154.437 36.5701 159.581 36.5701C163.156 36.5701 165.459 34.9092 166.683 33.004C166.683 33.9322 166.781 35.2511 166.928 35.8862H172.904C172.757 35.0557 172.611 33.346 172.611 32.076V20.2543C172.611 15.4182 169.769 11.1196 162.128 11.1196C155.662 11.1196 152.184 15.2717 151.793 19.0331L157.572 20.2543C157.769 18.1538 159.336 16.3464 162.176 16.3464C164.92 16.3464 166.243 17.763 166.243 19.4728C166.243 20.3032 165.802 20.9872 164.43 21.1825L158.503 22.0618C154.487 22.648 151.303 25.0416 151.303 29.3404ZM160.952 31.734C158.846 31.734 157.817 30.3662 157.817 28.9496C157.817 27.0933 159.139 26.1651 160.806 25.9209L166.243 25.0905V26.1651C166.243 30.4151 163.695 31.734 160.952 31.734Z" fill="white"/>
<path d="M185.492 35.8863V32.9553C186.765 35.007 189.312 36.4725 192.643 36.4725C199.502 36.4725 204.008 31.0501 204.008 23.7716C204.008 16.6395 199.942 11.2173 192.888 11.2173C189.312 11.2173 186.667 12.7804 185.59 14.4901V0.519196H179.173V35.8863H185.492ZM197.492 23.8203C197.492 28.2168 194.848 30.6593 191.517 30.6593C188.235 30.6593 185.492 28.1681 185.492 23.8203C185.492 19.4239 188.235 17.0303 191.517 17.0303C194.848 17.0303 197.492 19.4239 197.492 23.8203Z" fill="white"/>
<path d="M207.699 29.3404C207.699 33.1018 210.834 36.5701 215.977 36.5701C219.553 36.5701 221.856 34.9092 223.079 33.004C223.079 33.9322 223.178 35.2511 223.325 35.8862H229.301C229.154 35.0557 229.007 33.346 229.007 32.076V20.2543C229.007 15.4182 226.166 11.1196 218.524 11.1196C212.059 11.1196 208.581 15.2717 208.189 19.0331L213.968 20.2543C214.165 18.1538 215.733 16.3464 218.573 16.3464C221.317 16.3464 222.639 17.763 222.639 19.4728C222.639 20.3032 222.198 20.9872 220.826 21.1825L214.9 22.0618C210.883 22.648 207.699 25.0416 207.699 29.3404ZM217.349 31.734C215.243 31.734 214.214 30.3662 214.214 28.9496C214.214 27.0933 215.536 26.1651 217.202 25.9209L222.639 25.0905V26.1651C222.639 30.4151 220.092 31.734 217.349 31.734Z" fill="white"/>
<path d="M233.517 29.1938C233.81 31.9294 236.308 36.6189 243.558 36.6189C249.877 36.6189 252.913 32.6133 252.913 28.7054C252.913 25.1882 250.514 22.306 245.762 21.329L242.333 20.5963C241.011 20.3521 240.129 19.6193 240.129 18.4469C240.129 17.0791 241.5 16.0533 243.215 16.0533C245.959 16.0533 246.987 17.8607 247.184 19.2774L252.62 18.0562C252.326 15.4671 250.024 11.1196 243.166 11.1196C237.974 11.1196 234.154 14.6856 234.154 18.9842C234.154 22.3548 236.259 25.1394 240.913 26.1651L244.097 26.8979C245.959 27.2887 246.693 28.168 246.693 29.2427C246.693 30.5128 245.665 31.6363 243.509 31.6363C240.668 31.6363 239.248 29.8777 239.101 27.9725L233.517 29.1938Z" fill="white"/>
<path d="M262.807 21.1336C262.954 18.9354 264.815 16.3952 268.195 16.3952C271.918 16.3952 273.486 18.74 273.584 21.1336H262.807ZM274.221 27.3864C273.437 29.5357 271.771 31.0501 268.734 31.0501C265.501 31.0501 262.807 28.7542 262.66 25.579H279.902C279.902 25.4812 280 24.5043 280 23.5761C280 15.8579 275.543 11.1196 268.097 11.1196C261.925 11.1196 256.243 16.1021 256.243 23.7715C256.243 31.8805 262.072 36.6189 268.685 36.6189C274.612 36.6189 278.433 33.1506 279.658 28.9984L274.221 27.3864Z" fill="white"/>
<path d="M27.4152 47.7217C26.1842 49.2659 23.688 48.4199 23.6584 46.4481L23.2246 17.6087H42.6928C46.219 17.6087 48.1856 21.6655 45.9929 24.4163L27.4152 47.7217Z" fill="url(#paint0_linear_222_602)"/>
<path d="M27.4152 47.7217C26.1842 49.2659 23.688 48.4199 23.6584 46.4481L23.2246 17.6087H42.6928C46.219 17.6087 48.1856 21.6655 45.9929 24.4163L27.4152 47.7217Z" fill="url(#paint1_linear_222_602)" fill-opacity="0.2"/>
<path d="M19.4994 1.31676C20.7305 -0.227634 23.2267 0.61858 23.2563 2.59037L23.4464 31.4297H4.22192C0.695606 31.4297 -1.27108 27.3729 0.921683 24.6222L19.4994 1.31676Z" fill="#3ECF8E"/>
<defs>
<linearGradient id="paint0_linear_222_602" x1="23.2246" y1="24.0031" x2="40.5068" y2="31.2799" gradientUnits="userSpaceOnUse">
<stop stop-color="#249361"/>
<stop offset="1" stop-color="#3ECF8E"/>
</linearGradient>
<linearGradient id="paint1_linear_222_602" x1="15.5535" y1="13.5414" x2="23.396" y2="28.3627" gradientUnits="userSpaceOnUse">
<stop/>
<stop offset="1" stop-opacity="0"/>
</linearGradient>
</defs>
</svg>
