<svg width="48" height="390" viewBox="0 0 48 390" fill="none" xmlns="http://www.w3.org/2000/svg">
<path d="M48 40.2939C48 29.5489 42.6667 22.8333 32 20.147C37.3333 24.1764 39.3333 28.8773 38 34.2498C37.2393 37.3151 35.0317 39.5061 32.588 41.9312C28.6073 45.8817 24 50.454 24 60.4407C24 71.1857 29.3333 77.9014 40 80.5876C34.6667 76.5582 32.6667 71.8573 34 66.4848C34.7607 63.4195 36.9683 61.2286 39.412 58.8035C43.3927 54.8529 48 50.2806 48 40.2939ZM24 20.147C24 9.40205 18.6667 2.68643 8 0.000181357C13.3333 4.02955 15.3333 8.73048 14 14.103C13.2393 17.1683 11.0317 19.3592 8.588 21.7843C4.60726 25.7349 -1.88906e-06 30.3072 -2.32559e-06 40.2939C-2.79527e-06 51.0389 5.33333 57.7545 16 60.4407C10.6667 56.4114 8.66667 51.7104 10 46.3379C10.7607 43.2726 12.9683 41.0817 15.412 38.6566C19.3927 34.706 24 30.1338 24 20.147Z" fill="url(#paint0_linear_225_442)"/>
<path d="M27.7747 120.874L27.7747 113.842L14.2636 113.842C10.6606 113.842 10.7169 116.223 10.9421 120.874L5.48134 120.874C4.35542 111.46 6.94505 107.717 14.2636 107.717L27.7747 107.717L27.7747 102.5L33.6295 102.5L33.6295 107.717L41.191 107.717L42.9925 113.842L33.6295 113.842L33.6295 120.874L27.7747 120.874ZM33.6295 147.679L33.6295 153.804L5.48134 153.804L5.48134 147.679L9.53467 147.679C6.55097 145.524 4.74949 142.179 4.74949 137.755C4.74949 130.043 11.2236 123.635 19.5554 123.635C27.9436 123.635 34.3613 130.043 34.3613 137.755C34.3613 142.179 32.5599 145.524 29.6324 147.679L33.6295 147.679ZM10.548 138.719C10.548 143.823 14.3199 147.679 19.5554 147.679C24.791 147.679 28.5628 143.823 28.5628 138.719C28.5628 133.615 24.791 129.759 19.5554 129.759C14.3199 129.759 10.548 133.615 10.548 138.719ZM37.8517 164.012C37.8517 161.857 39.6532 160.099 41.7362 160.099C43.8754 160.099 45.6206 161.857 45.6206 164.012C45.6206 166.167 43.8754 167.925 41.7362 167.925C39.6532 167.925 37.8517 166.167 37.8517 164.012ZM5.48134 160.949L33.6295 160.949L33.6295 167.074L5.48134 167.074L5.48134 160.949ZM5.48134 174.163L46.5776 174.163L46.5776 180.288L5.48134 180.287L5.48134 174.163ZM33.6295 220.041L33.6295 226.506L5.48134 217.602L5.48134 211.591L24.4532 205.693L5.48134 199.739L5.48134 193.728L33.6295 184.824L33.6295 191.289L14.2073 196.79L33.6295 202.745L33.6295 208.586L14.2073 214.483L33.6295 220.041ZM37.8517 234.105C37.8517 231.95 39.6532 230.192 41.7361 230.192C43.8754 230.192 45.6206 231.95 45.6206 234.105C45.6206 236.26 43.8754 238.018 41.7361 238.018C39.6532 238.018 37.8517 236.26 37.8517 234.105ZM5.48134 231.043L33.6295 231.043L33.6295 237.167L5.48134 237.167L5.48134 231.043ZM34.3613 259.171C34.3613 265.522 30.0828 270.059 22.7643 270.059L5.48134 270.059L5.48134 263.934L22.145 263.934C26.4236 263.934 28.6754 261.439 28.6754 257.583C28.6754 253.556 26.311 250.381 20.5687 250.381L5.48134 250.381L5.48134 244.256L33.6295 244.256L33.6295 250.381L30.0265 250.381C32.9539 252.252 34.3613 255.314 34.3613 259.171ZM44.8887 299.094L44.8887 305.219L5.48133 305.219L5.48133 299.094L9.53467 299.094C6.55096 296.939 4.74948 293.593 4.74948 289.17C4.74948 281.458 11.2236 275.049 19.5554 275.049C27.9436 275.049 34.3613 281.458 34.3613 289.17C34.3613 293.593 32.5599 296.939 29.6324 299.094L44.8887 299.094ZM10.548 290.134C10.548 295.238 14.3199 299.094 19.5554 299.094C24.791 299.094 28.5628 295.238 28.5628 290.134C28.5628 285.03 24.791 281.174 19.5554 281.174C14.3199 281.174 10.548 285.03 10.548 290.134ZM4.74948 325.748C4.74948 317.185 11.2236 310.776 19.5554 310.776C27.9436 310.776 34.3613 317.185 34.3613 325.748C34.3613 331.305 31.4902 336.126 27.0991 338.394L24.0591 333.12C26.705 331.872 28.3939 329.094 28.3939 325.691C28.3939 320.701 24.6221 316.901 19.5554 316.901C14.4887 316.901 10.7169 320.701 10.7169 325.691C10.7169 329.094 12.4621 331.872 15.0517 333.233L12.068 338.507C7.62059 336.126 4.74948 331.305 4.74948 325.748ZM25.8606 348.602C20.7376 348.602 23.8339 363.857 13.4191 363.857C7.78948 363.857 4.74948 358.923 4.74948 352.798C4.74948 347.127 7.28281 343.044 11.3361 341.23L14.3761 346.503C11.8428 347.411 10.3228 349.679 10.3228 352.798C10.3228 355.52 11.2236 357.619 13.4754 357.619C18.4858 357.619 15.671 342.364 25.748 342.364C31.0398 342.364 34.3613 346.957 34.3613 352.742C34.3613 357.392 32.2221 361.248 28.5065 363.233L25.6354 358.072C27.831 357.051 28.8443 355.067 28.8443 352.742C28.8443 350.53 27.8873 348.602 25.8606 348.602ZM25.8606 374.745C20.7376 374.745 23.8339 390 13.4191 390C7.78948 390 4.74948 385.066 4.74948 378.941C4.74948 373.27 7.28281 369.187 11.3361 367.373L14.3761 372.647C11.8428 373.554 10.3228 375.822 10.3228 378.941C10.3228 381.663 11.2236 383.762 13.4754 383.762C18.4858 383.762 15.671 368.507 25.748 368.507C31.0398 368.507 34.3613 373.1 34.3613 378.885C34.3613 383.535 32.2221 387.391 28.5065 389.376L25.6354 384.215C27.831 383.195 28.8443 381.21 28.8443 378.885C28.8443 376.673 27.8873 374.745 25.8606 374.745Z" fill="#2D3748"/>
<defs>
<linearGradient id="paint0_linear_225_442" x1="32.64" y1="-2.23836" x2="-7.63654" y2="67.1071" gradientUnits="userSpaceOnUse">
<stop stop-color="#2298BD"/>
<stop offset="1" stop-color="#0ED7B5"/>
</linearGradient>
</defs>
</svg>
