<svg  viewBox="0 0 390 48" fill="none" xmlns="http://www.w3.org/2000/svg">
<path d="M40.2937 0C29.5487 0 22.8331 5.33333 20.1469 16C24.1762 10.6667 28.8772 8.66667 34.2497 10C37.315 10.7607 39.5059 12.9683 41.931 15.412C45.8815 19.3927 50.4538 24 60.4406 24C71.1855 24 77.9012 18.6667 80.5874 8C76.558 13.3333 71.8571 15.3333 66.4846 14C63.4193 13.2393 61.2284 11.0317 58.8033 8.588C54.8527 4.60726 50.2804 0 40.2937 0ZM20.1469 24C9.40187 24 2.68625 29.3333 0 40C4.02937 34.6667 8.7303 32.6667 14.1028 34C17.1681 34.7607 19.359 36.9683 21.7841 39.412C25.7347 43.3927 30.307 48 40.2937 48C51.0387 48 57.7543 42.6667 60.4406 32C56.4112 37.3333 51.7103 39.3333 46.3378 38C43.2725 37.2393 41.0815 35.0317 38.6564 32.588C34.7059 28.6073 30.1336 24 20.1469 24Z" fill="url(#paint0_linear_222_528)"/>
<path d="M120.873 20.2252H113.841V33.7363C113.841 37.3392 116.223 37.283 120.873 37.0578V42.5185C111.46 43.6444 107.717 41.0548 107.717 33.7363V20.2252H102.5V14.3704H107.717V6.80888L113.841 5.0074V14.3704H120.873V20.2252ZM147.679 14.3704H153.804V42.5185H147.679V38.4652C145.524 41.4489 142.178 43.2504 137.755 43.2504C130.042 43.2504 123.634 36.7763 123.634 28.4444C123.634 20.0563 130.042 13.6385 137.755 13.6385C142.178 13.6385 145.524 15.44 147.679 18.3674V14.3704ZM138.719 37.4518C143.823 37.4518 147.679 33.68 147.679 28.4444C147.679 23.2089 143.823 19.437 138.719 19.437C133.615 19.437 129.759 23.2089 129.759 28.4444C129.759 33.68 133.615 37.4518 138.719 37.4518ZM164.012 10.1481C161.857 10.1481 160.099 8.34666 160.099 6.26369C160.099 4.12443 161.857 2.37925 164.012 2.37925C166.167 2.37925 167.925 4.12443 167.925 6.26369C167.925 8.34666 166.167 10.1481 164.012 10.1481ZM160.949 42.5185V14.3704H167.074V42.5185H160.949ZM174.163 42.5185V1.42221H180.287V42.5185H174.163ZM220.041 14.3704H226.506L217.602 42.5185H211.591L205.693 23.5467L199.739 42.5185H193.727L184.824 14.3704H191.289L196.79 33.7926L202.744 14.3704H208.585L214.483 33.7926L220.041 14.3704ZM234.105 10.1481C231.95 10.1481 230.192 8.34666 230.192 6.26369C230.192 4.12443 231.95 2.37925 234.105 2.37925C236.26 2.37925 238.018 4.12443 238.018 6.26369C238.018 8.34666 236.26 10.1481 234.105 10.1481ZM231.042 42.5185V14.3704H237.167V42.5185H231.042ZM259.17 13.6385C265.522 13.6385 270.059 17.917 270.059 25.2355V42.5185H263.934V25.8548C263.934 21.5763 261.439 19.3244 257.583 19.3244C253.556 19.3244 250.38 21.6889 250.38 27.4311V42.5185H244.256V14.3704H250.38V17.9733C252.252 15.0459 255.314 13.6385 259.17 13.6385ZM299.094 3.1111H305.219V42.5185H299.094V38.4652C296.939 41.4489 293.593 43.2504 289.17 43.2504C281.457 43.2504 275.049 36.7763 275.049 28.4444C275.049 20.0563 281.457 13.6385 289.17 13.6385C293.593 13.6385 296.939 15.44 299.094 18.3674V3.1111ZM290.134 37.4518C295.238 37.4518 299.094 33.68 299.094 28.4444C299.094 23.2089 295.238 19.437 290.134 19.437C285.03 19.437 281.174 23.2089 281.174 28.4444C281.174 33.68 285.03 37.4518 290.134 37.4518ZM325.748 43.2504C317.184 43.2504 310.776 36.7763 310.776 28.4444C310.776 20.0563 317.184 13.6385 325.748 13.6385C331.305 13.6385 336.125 16.5096 338.394 20.9007L333.12 23.9407C331.872 21.2948 329.093 19.6059 325.691 19.6059C320.7 19.6059 316.901 23.3778 316.901 28.4444C316.901 33.5111 320.7 37.283 325.691 37.283C329.093 37.283 331.872 35.5378 333.233 32.9481L338.507 35.9318C336.125 40.3792 331.305 43.2504 325.748 43.2504ZM348.602 22.1392C348.602 27.2622 363.856 24.1659 363.856 34.5807C363.856 40.2104 358.923 43.2504 352.798 43.2504C347.127 43.2504 343.044 40.717 341.229 36.6637L346.503 33.6237C347.411 36.157 349.679 37.677 352.798 37.677C355.52 37.677 357.618 36.7763 357.618 34.5244C357.618 29.5141 342.363 32.3289 342.363 22.2518C342.363 16.96 346.957 13.6385 352.741 13.6385C357.392 13.6385 361.248 15.7778 363.233 19.4933L358.072 22.3644C357.051 20.1689 355.066 19.1555 352.741 19.1555C350.53 19.1555 348.602 20.1126 348.602 22.1392ZM374.745 22.1392C374.745 27.2622 390 24.1659 390 34.5807C390 40.2104 385.066 43.2504 378.941 43.2504C373.27 43.2504 369.187 40.717 367.372 36.6637L372.646 33.6237C373.554 36.157 375.822 37.677 378.941 37.677C381.663 37.677 383.762 36.7763 383.762 34.5244C383.762 29.5141 368.507 32.3289 368.507 22.2518C368.507 16.96 373.1 13.6385 378.884 13.6385C383.535 13.6385 387.391 15.7778 389.376 19.4933L384.215 22.3644C383.194 20.1689 381.21 19.1555 378.884 19.1555C376.673 19.1555 374.745 20.1126 374.745 22.1392Z" fill="#2D3748"/>
<defs>
<linearGradient id="paint0_linear_222_528" x1="-2.23854" y1="15.36" x2="67.1069" y2="55.6365" gradientUnits="userSpaceOnUse">
<stop stop-color="#2298BD"/>
<stop offset="1" stop-color="#0ED7B5"/>
</linearGradient>
</defs>
</svg>
