<svg  viewBox="0 0 124 16" fill="none" xmlns="http://www.w3.org/2000/svg">
<g clip-path="url(#clip0_232_117)">
<path d="M13.3976 0.21582C10.0035 0.21582 7.88225 1.90047 7.03376 5.26977C8.3065 3.58513 9.79141 2.95338 11.4884 3.37454C12.4567 3.61482 13.1487 4.31214 13.9147 5.08404C15.1626 6.34143 16.6069 7.79674 19.7614 7.79674C23.1554 7.79674 25.2767 6.1121 26.1252 2.74279C24.8524 4.42743 23.3676 5.05918 21.6705 4.63803C20.7023 4.39774 20.0102 3.70042 19.2442 2.92853C17.9963 1.67112 16.5521 0.21582 13.3976 0.21582ZM7.03376 7.79674C3.63971 7.79674 1.51843 9.48138 0.669922 12.8507C1.94269 11.1661 3.42758 10.5343 5.1246 10.9555C6.09284 11.1957 6.78488 11.8931 7.5509 12.665C8.79879 13.9224 10.243 15.3777 13.3976 15.3777C16.7916 15.3777 18.9129 13.693 19.7614 10.3237C18.4886 12.0084 17.0037 12.6401 15.3067 12.2189C14.3385 11.9787 13.6464 11.2813 12.8804 10.5095C11.6325 9.25206 10.1883 7.79674 7.03376 7.79674Z" fill="url(#paint0_linear_232_117)"/>
<path d="M38.8504 6.60437H36.6292V10.8721C36.6292 12.0102 37.3816 11.9925 38.8504 11.9213V13.6462C35.8771 14.0018 34.6948 13.1839 34.6948 10.8721V6.60437H33.0469V4.75501H34.6948V2.36654L36.6292 1.7975V4.75501H38.8504V6.60437ZM47.3176 4.75501H49.2524V13.6462H47.3176V12.3659C46.6369 13.3083 45.58 13.8774 44.1829 13.8774C41.7466 13.8774 39.7225 11.8324 39.7225 9.20059C39.7225 6.55102 41.7466 4.52382 44.1829 4.52382C45.58 4.52382 46.6369 5.09286 47.3176 6.01755V4.75501ZM44.4874 12.0458C46.0996 12.0458 47.3176 10.8544 47.3176 9.20059C47.3176 7.54684 46.0996 6.3554 44.4874 6.3554C42.8752 6.3554 41.6572 7.54684 41.6572 9.20059C41.6572 10.8544 42.8752 12.0458 44.4874 12.0458ZM52.4768 3.4213C51.7961 3.4213 51.2408 2.85228 51.2408 2.19433C51.2408 1.51859 51.7961 0.967341 52.4768 0.967341C53.1575 0.967341 53.7128 1.51859 53.7128 2.19433C53.7128 2.85228 53.1575 3.4213 52.4768 3.4213ZM51.5093 13.6462V4.75501H53.444V13.6462H51.5093ZM55.6832 13.6462V0.665039H57.6176V13.6462H55.6832ZM70.1748 4.75501H72.2169L69.4044 13.6462H67.5056L65.6426 7.65354L63.7619 13.6462H61.8629L59.0507 4.75501H61.0928L62.8304 10.8899L64.7111 4.75501H66.5561L68.4191 10.8899L70.1748 4.75501ZM74.6172 3.4213C73.9365 3.4213 73.3812 2.85228 73.3812 2.19433C73.3812 1.51859 73.9365 0.967341 74.6172 0.967341C75.2979 0.967341 75.8532 1.51859 75.8532 2.19433C75.8532 2.85228 75.2979 3.4213 74.6172 3.4213ZM73.6497 13.6462V4.75501H75.5844V13.6462H73.6497ZM82.5345 4.52382C84.5409 4.52382 85.974 5.87528 85.974 8.18699V13.6462H84.0393V8.3826C84.0393 7.03115 83.2512 6.31984 82.0332 6.31984C80.7612 6.31984 79.758 7.06671 79.758 8.88051V13.6462H77.8236V4.75501H79.758V5.89306C80.3493 4.96838 81.3165 4.52382 82.5345 4.52382ZM95.1454 1.19851H97.0801V13.6462H95.1454V12.3659C94.4647 13.3083 93.4078 13.8774 92.0107 13.8774C89.5743 13.8774 87.5502 11.8324 87.5502 9.20059C87.5502 6.55102 89.5743 4.52382 92.0107 4.52382C93.4078 4.52382 94.4647 5.09286 95.1454 6.01755V1.19851ZM92.3152 12.0458C93.9274 12.0458 95.1454 10.8544 95.1454 9.20059C95.1454 7.54684 93.9274 6.3554 92.3152 6.3554C90.703 6.3554 89.485 7.54684 89.485 9.20059C89.485 10.8544 90.703 12.0458 92.3152 12.0458ZM103.565 13.8774C100.859 13.8774 98.8354 11.8324 98.8354 9.20059C98.8354 6.55102 100.859 4.52382 103.565 4.52382C105.32 4.52382 106.842 5.43072 107.559 6.81774L105.893 7.77799C105.499 6.94223 104.621 6.40875 103.547 6.40875C101.97 6.40875 100.77 7.60019 100.77 9.20059C100.77 10.801 101.97 11.9925 103.547 11.9925C104.621 11.9925 105.499 11.4412 105.929 10.6232L107.595 11.5656C106.842 12.9705 105.32 13.8774 103.565 13.8774ZM110.784 7.20895C110.784 8.82716 115.602 7.84913 115.602 11.1389C115.602 12.9171 114.044 13.8774 112.109 13.8774C110.318 13.8774 109.028 13.0772 108.455 11.7968L110.121 10.8366C110.407 11.6368 111.124 12.1169 112.109 12.1169C112.969 12.1169 113.631 11.8324 113.631 11.1211C113.631 9.53847 108.813 10.4276 108.813 7.24452C108.813 5.57299 110.264 4.52382 112.091 4.52382C113.56 4.52382 114.778 5.19956 115.405 6.37319L113.775 7.28009C113.452 6.58659 112.825 6.26648 112.091 6.26648C111.393 6.26648 110.784 6.56881 110.784 7.20895ZM119.041 7.20895C119.041 8.82716 123.86 7.84913 123.86 11.1389C123.86 12.9171 122.302 13.8774 120.367 13.8774C118.575 13.8774 117.286 13.0772 116.712 11.7968L118.378 10.8366C118.665 11.6368 119.382 12.1169 120.367 12.1169C121.227 12.1169 121.89 11.8324 121.89 11.1211C121.89 9.53847 117.071 10.4276 117.071 7.24452C117.071 5.57299 118.522 4.52382 120.349 4.52382C121.818 4.52382 123.036 5.19956 123.663 6.37319L122.033 7.28009C121.71 6.58659 121.084 6.26648 120.349 6.26648C119.65 6.26648 119.041 6.56881 119.041 7.20895Z" fill="#C2D5DA"/>
</g>
<defs>
<linearGradient id="paint0_linear_232_117" x1="-0.0371696" y1="5.06761" x2="21.8671" y2="17.7898" gradientUnits="userSpaceOnUse">
<stop stop-color="#2298BD"/>
<stop offset="1" stop-color="#0ED7B5"/>
</linearGradient>
<clipPath id="clip0_232_117">
<rect width="123.19" height="15.1618" fill="white" transform="translate(0.669922 0.21582)"/>
</clipPath>
</defs>
</svg>
