<svg width="48" height="49" viewBox="0 0 48 49" fill="none" xmlns="http://www.w3.org/2000/svg">
<path d="M0 0.186829H48V48.1868H0V0.186829Z" fill="#017ACB"/>
<path d="M23.0479 17.9618H25.3504V21.9368H19.1254V39.6218L18.9604 39.6668C18.7354 39.7268 15.7729 39.7268 15.1354 39.6593L14.6254 39.6143V21.9368H8.40039V17.9618L10.3729 17.9393C11.4529 17.9243 14.2279 17.9243 16.5379 17.9393C18.8479 17.9543 21.7729 17.9618 23.0479 17.9618V17.9618ZM40.6205 37.7468C39.7054 38.7143 38.7229 39.2543 37.0879 39.6968C36.3754 39.8918 36.2554 39.8993 34.6504 39.8918C33.0454 39.8843 32.9179 39.8843 32.1379 39.6818C30.1204 39.1643 28.4929 38.1518 27.3829 36.7193C27.0679 36.3143 26.5504 35.4743 26.5504 35.3693C26.5504 35.3393 26.6254 35.2718 26.7229 35.2268C26.8204 35.1818 27.0229 35.0543 27.1879 34.9568C27.3529 34.8593 27.6529 34.6793 27.8554 34.5743C28.0579 34.4693 28.6429 34.1243 29.1529 33.8168C29.6629 33.5093 30.1279 33.2618 30.1804 33.2618C30.2329 33.2618 30.3304 33.3668 30.4054 33.4943C30.8554 34.2518 31.9054 35.2193 32.6479 35.5493C33.1054 35.7443 34.1179 35.9618 34.6054 35.9618C35.0554 35.9618 35.8804 35.7668 36.3229 35.5643C36.7954 35.3468 37.0354 35.1293 37.3204 34.6943C37.5154 34.3868 37.5379 34.3043 37.5304 33.7193C37.5304 33.1793 37.5004 33.0293 37.3504 32.7818C36.9304 32.0918 36.3604 31.7318 34.0504 30.7118C31.6654 29.6543 30.5929 29.0243 29.7229 28.1768C29.0779 27.5468 28.9504 27.3743 28.5454 26.5868C28.0204 25.5743 27.9529 25.2443 27.9454 23.7368C27.9379 22.6793 27.9604 22.3343 28.0729 21.9743C28.2304 21.4343 28.7404 20.3918 28.9729 20.1293C29.4529 19.5668 29.6254 19.3943 29.9629 19.1168C30.9829 18.2768 32.5729 17.7218 34.0954 17.6693C34.2679 17.6693 34.8379 17.6993 35.3704 17.7368C36.9004 17.8643 37.9429 18.2393 38.9479 19.0418C39.7055 19.6418 40.853 21.0518 40.7405 21.2393C40.6655 21.3518 37.6729 23.3468 37.4779 23.4068C37.3579 23.4443 37.2754 23.3993 37.1104 23.2043C36.0904 21.9818 35.6779 21.7193 34.6879 21.6593C33.9829 21.6143 33.6079 21.6968 33.1354 22.0118C32.6404 22.3418 32.4004 22.8443 32.4004 23.5418C32.4079 24.5618 32.7979 25.0418 34.2379 25.7543C35.1679 26.2118 35.9629 26.5868 36.0229 26.5868C36.1129 26.5868 38.0404 27.5468 38.543 27.8468C40.883 29.2193 41.8355 30.6293 42.083 33.0593C42.263 34.8893 41.7455 36.5618 40.6205 37.7468V37.7468Z" fill="white"/>
</svg>
