<svg width="207" height="48" viewBox="0 0 207 48" fill="none" xmlns="http://www.w3.org/2000/svg">
<path d="M20.1929 32.7768C20.1929 28.3436 23.943 24.7497 28.569 24.7497C33.1949 24.7497 36.945 28.3436 36.945 32.7768C36.945 37.21 33.1949 40.8039 28.569 40.8039C23.943 40.8039 20.1929 37.21 20.1929 32.7768Z" fill="#565656"/>
<path d="M20.1929 14.3325C20.1929 9.8993 23.943 6.30545 28.569 6.30545C33.1949 6.30545 36.945 9.8993 36.945 14.3325V21.5569C36.945 22.0003 36.57 22.3596 36.1074 22.3596H21.0305C20.568 22.3596 20.1929 22.0003 20.1929 21.5569V14.3325Z" fill="#8B8B8B"/>
<path d="M17.6052 32.7768C17.6052 37.21 13.8551 40.8039 9.22912 40.8039C4.60313 40.8039 0.853027 37.21 0.853027 32.7768V25.5524C0.853027 25.109 1.22804 24.7497 1.69064 24.7497H16.7676C17.2301 24.7497 17.6052 25.109 17.6052 25.5524V32.7768Z" fill="#0E0E0E"/>
<g opacity="0.9">
<path d="M65.2194 12.7573V26.7584C65.2194 28.9647 65.7391 30.5981 66.7786 31.6588C67.8393 32.7195 69.2818 33.2499 71.1062 33.2499C72.9306 33.2499 74.3519 32.7301 75.3702 31.6906C76.4097 30.63 76.9294 28.9859 76.9294 26.7584V12.7573H79.1569V26.7266C79.1569 29.548 78.4038 31.6694 76.8976 33.0908C75.4126 34.5121 73.4716 35.2227 71.0744 35.2227C68.6772 35.2227 66.7256 34.5121 65.2194 33.0908C63.7344 31.6694 62.9919 29.548 62.9919 26.7266V12.7573H65.2194ZM100.895 35H98.6672L86.3526 16.2894V35H84.1251V12.7573H86.3526L98.6672 31.4361V12.7573H100.895V35ZM115.931 35.2227C113.874 35.2227 112.007 34.7454 110.331 33.7908C108.655 32.815 107.329 31.4679 106.353 29.7496C105.399 28.01 104.921 26.0478 104.921 23.8627C104.921 21.6777 105.399 19.7261 106.353 18.0077C107.329 16.2682 108.655 14.9211 110.331 13.9665C112.007 12.9907 113.874 12.5028 115.931 12.5028C118.01 12.5028 119.888 12.9907 121.564 13.9665C123.24 14.9211 124.555 16.2682 125.509 18.0077C126.464 19.7261 126.941 21.6777 126.941 23.8627C126.941 26.0478 126.464 28.01 125.509 29.7496C124.555 31.4679 123.24 32.815 121.564 33.7908C119.888 34.7454 118.01 35.2227 115.931 35.2227ZM115.931 33.2817C117.586 33.2817 119.071 32.8998 120.386 32.1361C121.702 31.3724 122.741 30.2799 123.505 28.8586C124.268 27.4161 124.65 25.7508 124.65 23.8627C124.65 21.9747 124.268 20.32 123.505 18.8987C122.741 17.4774 121.702 16.3849 120.386 15.6212C119.071 14.8575 117.586 14.4756 115.931 14.4756C114.277 14.4756 112.792 14.8575 111.477 15.6212C110.161 16.3849 109.122 17.4774 108.358 18.8987C107.594 20.32 107.213 21.9747 107.213 23.8627C107.213 25.7508 107.594 27.4161 108.358 28.8586C109.122 30.2799 110.161 31.3724 111.477 32.1361C112.792 32.8998 114.277 33.2817 115.931 33.2817Z" fill="#565656"/>
<path d="M129.999 23.8627C129.999 21.6777 130.476 19.7261 131.431 18.0077C132.385 16.2682 133.69 14.9211 135.345 13.9665C136.999 12.9907 138.845 12.5028 140.882 12.5028C143.364 12.5028 145.485 13.0967 147.246 14.2847C149.028 15.4515 150.322 17.1061 151.128 19.2487H148.519C147.882 17.7426 146.906 16.5652 145.591 15.7166C144.297 14.8681 142.727 14.4438 140.882 14.4438C139.248 14.4438 137.774 14.8257 136.459 15.5894C135.164 16.3531 134.146 17.4562 133.404 18.8987C132.661 20.32 132.29 21.9747 132.29 23.8627C132.29 25.7508 132.661 27.4055 133.404 28.8268C134.146 30.2481 135.164 31.3406 136.459 32.1043C137.774 32.868 139.248 33.2499 140.882 33.2499C142.727 33.2499 144.297 32.8362 145.591 32.0089C146.906 31.1603 147.882 29.9935 148.519 28.5086H151.128C150.322 30.63 149.028 32.274 147.246 33.4408C145.464 34.6075 143.342 35.1909 140.882 35.1909C138.845 35.1909 136.999 34.7136 135.345 33.759C133.69 32.7832 132.385 31.4361 131.431 29.7178C130.476 27.9994 129.999 26.0478 129.999 23.8627ZM162.312 35.2227C160.849 35.2227 159.555 34.9682 158.43 34.459C157.327 33.9499 156.457 33.2393 155.821 32.3271C155.185 31.4149 154.845 30.3966 154.803 29.2723H157.157C157.263 30.3542 157.741 31.3088 158.589 32.1361C159.438 32.9423 160.679 33.3453 162.312 33.3453C163.819 33.3453 165.007 32.9635 165.876 32.1998C166.767 31.4149 167.213 30.4284 167.213 29.2404C167.213 28.2858 166.969 27.5221 166.481 26.9494C165.993 26.3554 165.388 25.9205 164.667 25.6447C163.946 25.3477 162.949 25.0295 161.676 24.6901C160.191 24.287 159.014 23.8946 158.144 23.5127C157.274 23.1309 156.532 22.5369 155.916 21.7308C155.301 20.9246 154.994 19.8321 154.994 18.4532C154.994 17.3077 155.291 16.2894 155.885 15.3984C156.479 14.4862 157.317 13.7756 158.398 13.2664C159.48 12.7573 160.721 12.5028 162.121 12.5028C164.179 12.5028 165.834 13.0119 167.085 14.0301C168.358 15.0272 169.09 16.3212 169.281 17.9123H166.863C166.714 17.0001 166.216 16.194 165.367 15.4939C164.519 14.7726 163.373 14.412 161.931 14.412C160.594 14.412 159.48 14.7726 158.589 15.4939C157.698 16.194 157.253 17.1592 157.253 18.3896C157.253 19.323 157.497 20.0761 157.985 20.6489C158.473 21.2216 159.077 21.6565 159.799 21.9535C160.541 22.2505 161.538 22.5687 162.79 22.9081C164.232 23.3112 165.399 23.7143 166.29 24.1173C167.181 24.4992 167.934 25.0931 168.549 25.8993C169.164 26.7054 169.472 27.7873 169.472 29.145C169.472 30.1845 169.196 31.1709 168.645 32.1043C168.093 33.0377 167.276 33.7908 166.194 34.3636C165.113 34.9364 163.819 35.2227 162.312 35.2227ZM180.522 35.2227C179.059 35.2227 177.764 34.9682 176.64 34.459C175.537 33.9499 174.667 33.2393 174.031 32.3271C173.394 31.4149 173.055 30.3966 173.013 29.2723H175.367C175.473 30.3542 175.951 31.3088 176.799 32.1361C177.648 32.9423 178.889 33.3453 180.522 33.3453C182.028 33.3453 183.216 32.9635 184.086 32.1998C184.977 31.4149 185.423 30.4284 185.423 29.2404C185.423 28.2858 185.179 27.5221 184.691 26.9494C184.203 26.3554 183.598 25.9205 182.877 25.6447C182.156 25.3477 181.159 25.0295 179.886 24.6901C178.401 24.287 177.224 23.8946 176.354 23.5127C175.484 23.1309 174.741 22.5369 174.126 21.7308C173.511 20.9246 173.203 19.8321 173.203 18.4532C173.203 17.3077 173.5 16.2894 174.094 15.3984C174.688 14.4862 175.526 13.7756 176.608 13.2664C177.69 12.7573 178.931 12.5028 180.331 12.5028C182.389 12.5028 184.044 13.0119 185.295 14.0301C186.568 15.0272 187.3 16.3212 187.491 17.9123H185.073C184.924 17.0001 184.426 16.194 183.577 15.4939C182.729 14.7726 181.583 14.412 180.14 14.412C178.804 14.412 177.69 14.7726 176.799 15.4939C175.908 16.194 175.463 17.1592 175.463 18.3896C175.463 19.323 175.707 20.0761 176.195 20.6489C176.683 21.2216 177.287 21.6565 178.008 21.9535C178.751 22.2505 179.748 22.5687 181 22.9081C182.442 23.3112 183.609 23.7143 184.5 24.1173C185.391 24.4992 186.144 25.0931 186.759 25.8993C187.374 26.7054 187.682 27.7873 187.682 29.145C187.682 30.1845 187.406 31.1709 186.855 32.1043C186.303 33.0377 185.486 33.7908 184.404 34.3636C183.322 34.9364 182.028 35.2227 180.522 35.2227Z" fill="#8B8B8B"/>
</g>
</svg>
