<svg width="140" height="27" viewBox="0 0 140 27" fill="none" xmlns="http://www.w3.org/2000/svg">
<path d="M14.7627 20.3827C14.7627 17.0846 17.5526 14.4109 20.9942 14.4109C24.4357 14.4109 27.2256 17.0846 27.2256 20.3827C27.2256 23.6809 24.4357 26.3546 20.9942 26.3546C17.5526 26.3546 14.7627 23.6809 14.7627 20.3827Z" fill="#7C7C7C"/>
<path d="M14.7627 6.6609C14.7627 3.36277 17.5526 0.689087 20.9942 0.689087C24.4357 0.689087 27.2256 3.36277 27.2256 6.6609V12.0356C27.2256 12.3654 26.9466 12.6328 26.6025 12.6328H15.3858C15.0418 12.6328 14.7627 12.3654 14.7627 12.0356V6.6609Z" fill="#ADADAD"/>
<path d="M12.838 20.3827C12.838 23.6809 10.048 26.3546 6.60649 26.3546C3.16493 26.3546 0.375 23.6809 0.375 20.3827V15.0081C0.375 14.6782 0.653995 14.4109 0.998152 14.4109H12.2148C12.5589 14.4109 12.838 14.6782 12.838 15.0081V20.3827Z" fill="#5A5A5A"/>
<g opacity="0.9">
<path d="M48.2607 5.48902V15.9053C48.2607 17.5467 48.6473 18.7619 49.4207 19.551C50.2098 20.3401 51.283 20.7347 52.6402 20.7347C53.9975 20.7347 55.0549 20.348 55.8125 19.5747C56.5858 18.7856 56.9725 17.5625 56.9725 15.9053V5.48902H58.6296V15.8816C58.6296 17.9807 58.0694 19.5589 56.9488 20.6164C55.844 21.6738 54.4 22.2024 52.6166 22.2024C50.8332 22.2024 49.3812 21.6738 48.2607 20.6164C47.1559 19.5589 46.6035 17.9807 46.6035 15.8816V5.48902H48.2607ZM74.802 22.0367H73.1446L63.983 8.11677V22.0367H62.3258V5.48902H63.983L73.1446 19.3853V5.48902H74.802V22.0367ZM85.9882 22.2024C84.4578 22.2024 83.0689 21.8473 81.822 21.1371C80.5751 20.4112 79.5886 19.409 78.8625 18.1306C78.1528 16.8364 77.7971 15.3766 77.7971 13.751C77.7971 12.1255 78.1528 10.6735 78.8625 9.39512C79.5886 8.10099 80.5751 7.0988 81.822 6.38862C83.0689 5.66266 84.4578 5.29968 85.9882 5.29968C87.5349 5.29968 88.932 5.66266 90.1789 6.38862C91.4258 7.0988 92.4041 8.10099 93.1138 9.39512C93.8243 10.6735 94.1792 12.1255 94.1792 13.751C94.1792 15.3766 93.8243 16.8364 93.1138 18.1306C92.4041 19.409 91.4258 20.4112 90.1789 21.1371C88.932 21.8473 87.5349 22.2024 85.9882 22.2024ZM85.9882 20.7584C87.2194 20.7584 88.3242 20.4743 89.3025 19.9061C90.2816 19.3379 91.0545 18.5252 91.6229 17.4678C92.1906 16.3946 92.4748 15.1557 92.4748 13.751C92.4748 12.3464 92.1906 11.1154 91.6229 10.058C91.0545 9.00059 90.2816 8.18781 89.3025 7.61965C88.3242 7.05149 87.2194 6.76737 85.9882 6.76737C84.7576 6.76737 83.6529 7.05149 82.6746 7.61965C81.6955 8.18781 80.9225 9.00059 80.3541 10.058C79.7858 11.1154 79.5023 12.3464 79.5023 13.751C79.5023 15.1557 79.7858 16.3946 80.3541 17.4678C80.9225 18.5252 81.6955 19.3379 82.6746 19.9061C83.6529 20.4743 84.7576 20.7584 85.9882 20.7584Z" fill="#D2D2D2"/>
<path d="M96.4541 13.751C96.4541 12.1255 96.809 10.6735 97.5195 9.39512C98.2292 8.10099 99.2001 7.0988 100.431 6.38862C101.662 5.66266 103.035 5.29968 104.551 5.29968C106.397 5.29968 107.975 5.74152 109.285 6.62535C110.611 7.4934 111.574 8.72436 112.173 10.3184H110.232C109.758 9.19789 109.032 8.32195 108.054 7.69063C107.091 7.05937 105.923 6.74371 104.551 6.74371C103.335 6.74371 102.238 7.02783 101.26 7.59599C100.297 8.16416 99.5393 8.98482 98.9873 10.058C98.4345 11.1154 98.1585 12.3464 98.1585 13.751C98.1585 15.1557 98.4345 16.3867 98.9873 17.4441C99.5393 18.5015 100.297 19.3143 101.26 19.8824C102.238 20.4506 103.335 20.7347 104.551 20.7347C105.923 20.7347 107.091 20.4269 108.054 19.8115C109.032 19.1801 109.758 18.3121 110.232 17.2074H112.173C111.574 18.7856 110.611 20.0087 109.285 20.8767C107.959 21.7447 106.381 22.1788 104.551 22.1788C103.035 22.1788 101.662 21.8237 100.431 21.1135C99.2001 20.3875 98.2292 19.3853 97.5195 18.107C96.809 16.8286 96.4541 15.3766 96.4541 13.751ZM120.494 22.2024C119.405 22.2024 118.443 22.0131 117.606 21.6342C116.785 21.2555 116.138 20.7268 115.665 20.0482C115.192 19.3696 114.939 18.612 114.907 17.7755H116.659C116.737 18.5804 117.093 19.2906 117.724 19.9061C118.356 20.5059 119.279 20.8057 120.494 20.8057C121.615 20.8057 122.499 20.5217 123.145 19.9535C123.808 19.3696 124.14 18.6356 124.14 17.7518C124.14 17.0416 123.958 16.4735 123.595 16.0474C123.232 15.6055 122.782 15.2819 122.246 15.0767C121.709 14.8558 120.968 14.6191 120.021 14.3666C118.916 14.0667 118.04 13.7747 117.393 13.4906C116.746 13.2066 116.194 12.7647 115.735 12.165C115.278 11.5652 115.049 10.7524 115.049 9.72655C115.049 8.87434 115.27 8.11677 115.712 7.4539C116.154 6.77526 116.778 6.2466 117.582 5.86777C118.387 5.48902 119.31 5.29968 120.352 5.29968C121.883 5.29968 123.114 5.67843 124.045 6.43593C124.992 7.17774 125.536 8.14042 125.678 9.32414H123.88C123.769 8.6455 123.398 8.04579 122.767 7.52495C122.136 6.98833 121.283 6.72005 120.21 6.72005C119.216 6.72005 118.387 6.98833 117.724 7.52495C117.061 8.04579 116.73 8.76387 116.73 9.67924C116.73 10.3736 116.912 10.9339 117.275 11.3601C117.638 11.7861 118.087 12.1097 118.624 12.3306C119.176 12.5516 119.918 12.7883 120.849 13.0408C121.922 13.3407 122.79 13.6406 123.453 13.9404C124.116 14.2245 124.676 14.6664 125.134 15.2662C125.591 15.8659 125.82 16.6708 125.82 17.6808C125.82 18.4542 125.615 19.188 125.205 19.8824C124.795 20.5769 124.187 21.1371 123.382 21.5633C122.578 21.9894 121.615 22.2024 120.494 22.2024ZM134.041 22.2024C132.953 22.2024 131.989 22.0131 131.153 21.6342C130.333 21.2555 129.685 20.7268 129.212 20.0482C128.738 19.3696 128.486 18.612 128.455 17.7755H130.206C130.285 18.5804 130.641 19.2906 131.271 19.9061C131.903 20.5059 132.826 20.8057 134.041 20.8057C135.162 20.8057 136.045 20.5217 136.693 19.9535C137.356 19.3696 137.687 18.6356 137.687 17.7518C137.687 17.0416 137.506 16.4735 137.143 16.0474C136.78 15.6055 136.33 15.2819 135.793 15.0767C135.257 14.8558 134.515 14.6191 133.568 14.3666C132.463 14.0667 131.588 13.7747 130.94 13.4906C130.293 13.2066 129.74 12.7647 129.283 12.165C128.825 11.5652 128.596 10.7524 128.596 9.72655C128.596 8.87434 128.817 8.11677 129.259 7.4539C129.701 6.77526 130.324 6.2466 131.129 5.86777C131.934 5.48902 132.858 5.29968 133.899 5.29968C135.43 5.29968 136.661 5.67843 137.592 6.43593C138.539 7.17774 139.084 8.14042 139.226 9.32414H137.427C137.316 8.6455 136.946 8.04579 136.314 7.52495C135.683 6.98833 134.831 6.72005 133.757 6.72005C132.763 6.72005 131.934 6.98833 131.271 7.52495C130.609 8.04579 130.278 8.76387 130.278 9.67924C130.278 10.3736 130.459 10.9339 130.822 11.3601C131.185 11.7861 131.635 12.1097 132.171 12.3306C132.724 12.5516 133.465 12.7883 134.397 13.0408C135.47 13.3407 136.338 13.6406 137.001 13.9404C137.664 14.2245 138.224 14.6664 138.681 15.2662C139.139 15.8659 139.368 16.6708 139.368 17.6808C139.368 18.4542 139.163 19.188 138.753 19.8824C138.342 20.5769 137.734 21.1371 136.929 21.5633C136.124 21.9894 135.162 22.2024 134.041 22.2024Z" fill="#808080"/>
</g>
</svg>
