<svg  viewBox="0 0 155 36" fill="none" xmlns="http://www.w3.org/2000/svg">
<g clip-path="url(#clip0_232_105)">
<g clip-path="url(#clip1_232_105)">
<g clip-path="url(#clip2_232_105)">
<path d="M15.2822 24.6564C15.2822 21.3583 18.0722 18.6846 21.5137 18.6846C24.9552 18.6846 27.7451 21.3583 27.7451 24.6564C27.7451 27.9546 24.9552 30.6283 21.5137 30.6283C18.0722 30.6283 15.2822 27.9546 15.2822 24.6564Z" fill="#7C7C7C"/>
<path d="M15.2822 10.9346C15.2822 7.63645 18.0722 4.96277 21.5137 4.96277C24.9552 4.96277 27.7451 7.63645 27.7451 10.9346V16.3093C27.7451 16.6391 27.4662 16.9064 27.122 16.9064H15.9054C15.5613 16.9064 15.2822 16.6391 15.2822 16.3093V10.9346Z" fill="#ADADAD"/>
<path d="M13.3575 24.6564C13.3575 27.9546 10.5676 30.6283 7.12602 30.6283C3.68446 30.6283 0.894531 27.9546 0.894531 24.6564V19.2817C0.894531 18.9519 1.17353 18.6846 1.51768 18.6846H12.7344C13.0784 18.6846 13.3575 18.9519 13.3575 19.2817V24.6564Z" fill="#5A5A5A"/>
<g opacity="0.9">
<path d="M48.7802 9.7627V20.179C48.7802 21.8204 49.1669 23.0356 49.9402 23.8247C50.7293 24.6138 51.8025 25.0084 53.1598 25.0084C54.5171 25.0084 55.5744 24.6217 56.332 23.8483C57.1054 23.0593 57.492 21.8362 57.492 20.179V9.7627H59.1492V20.1553C59.1492 22.2543 58.5889 23.8326 57.4683 24.89C56.3636 25.9474 54.9195 26.4761 53.1361 26.4761C51.3527 26.4761 49.9008 25.9474 48.7802 24.89C47.6754 23.8326 47.123 22.2543 47.123 20.1553V9.7627H48.7802ZM75.3215 26.3104H73.6641L64.5025 12.3904V26.3104H62.8453V9.7627H64.5025L73.6641 23.659V9.7627H75.3215V26.3104ZM86.5077 26.4761C84.9774 26.4761 83.5884 26.121 82.3415 25.4108C81.0946 24.6849 80.1081 23.6827 79.382 22.4043C78.6723 21.1101 78.3167 19.6503 78.3167 18.0247C78.3167 16.3991 78.6723 14.9472 79.382 13.6688C80.1081 12.3747 81.0946 11.3725 82.3415 10.6623C83.5884 9.93634 84.9774 9.57336 86.5077 9.57336C88.0544 9.57336 89.4515 9.93634 90.6984 10.6623C91.9453 11.3725 92.9236 12.3747 93.6334 13.6688C94.3438 14.9472 94.6987 16.3991 94.6987 18.0247C94.6987 19.6503 94.3438 21.1101 93.6334 22.4043C92.9236 23.6827 91.9453 24.6849 90.6984 25.4108C89.4515 26.121 88.0544 26.4761 86.5077 26.4761ZM86.5077 25.0321C87.7389 25.0321 88.8437 24.7479 89.822 24.1798C90.8011 23.6116 91.5741 22.7988 92.1425 21.7414C92.7101 20.6683 92.9943 19.4294 92.9943 18.0247C92.9943 16.6201 92.7101 15.3891 92.1425 14.3317C91.5741 13.2743 90.8011 12.4615 89.822 11.8933C88.8437 11.3252 87.7389 11.0411 86.5077 11.0411C85.2772 11.0411 84.1724 11.3252 83.1941 11.8933C82.215 12.4615 81.4421 13.2743 80.8737 14.3317C80.3053 15.3891 80.0218 16.6201 80.0218 18.0247C80.0218 19.4294 80.3053 20.6683 80.8737 21.7414C81.4421 22.7988 82.215 23.6116 83.1941 24.1798C84.1724 24.7479 85.2772 25.0321 86.5077 25.0321Z" fill="#D2D2D2"/>
<path d="M96.9736 18.0247C96.9736 16.3991 97.3285 14.9472 98.039 13.6688C98.7487 12.3747 99.7196 11.3725 100.951 10.6623C102.181 9.93634 103.555 9.57336 105.07 9.57336C106.917 9.57336 108.495 10.0152 109.805 10.899C111.13 11.7671 112.093 12.998 112.693 14.5921H110.752C110.278 13.4716 109.552 12.5956 108.573 11.9643C107.611 11.3331 106.443 11.0174 105.07 11.0174C103.855 11.0174 102.758 11.3015 101.78 11.8697C100.816 12.4378 100.059 13.2585 99.5068 14.3317C98.9541 15.3891 98.678 16.6201 98.678 18.0247C98.678 19.4294 98.9541 20.6604 99.5068 21.7178C100.059 22.7752 100.816 23.588 101.78 24.1561C102.758 24.7243 103.855 25.0084 105.07 25.0084C106.443 25.0084 107.611 24.7006 108.573 24.0851C109.552 23.4538 110.278 22.5858 110.752 21.4811H112.693C112.093 23.0593 111.13 24.2824 109.805 25.1504C108.479 26.0184 106.9 26.4524 105.07 26.4524C103.555 26.4524 102.181 26.0973 100.951 25.3872C99.7196 24.6612 98.7487 23.659 98.039 22.3807C97.3285 21.1022 96.9736 19.6503 96.9736 18.0247ZM121.013 26.4761C119.925 26.4761 118.962 26.2868 118.125 25.9079C117.305 25.5292 116.657 25.0005 116.184 24.3219C115.711 23.6432 115.458 22.8857 115.427 22.0492H117.178C117.257 22.8541 117.613 23.5643 118.243 24.1798C118.875 24.7796 119.798 25.0794 121.013 25.0794C122.134 25.0794 123.018 24.7953 123.665 24.2272C124.328 23.6432 124.659 22.9093 124.659 22.0255C124.659 21.3153 124.478 20.7471 124.115 20.3211C123.752 19.8792 123.302 19.5556 122.765 19.3504C122.229 19.1295 121.487 18.8927 120.54 18.6402C119.435 18.3404 118.56 18.0484 117.912 17.7643C117.265 17.4803 116.713 17.0383 116.255 16.4386C115.797 15.8389 115.569 15.0261 115.569 14.0002C115.569 13.148 115.79 12.3904 116.232 11.7276C116.674 11.0489 117.297 10.5203 118.101 10.1415C118.906 9.7627 119.83 9.57336 120.871 9.57336C122.402 9.57336 123.633 9.95211 124.564 10.7096C125.511 11.4514 126.056 12.4141 126.198 13.5978H124.399C124.288 12.9192 123.918 12.3195 123.286 11.7986C122.655 11.262 121.803 10.9937 120.73 10.9937C119.735 10.9937 118.906 11.262 118.243 11.7986C117.581 12.3195 117.25 13.0375 117.25 13.9529C117.25 14.6473 117.431 15.2076 117.794 15.6337C118.157 16.0598 118.607 16.3834 119.144 16.6043C119.696 16.8253 120.437 17.062 121.369 17.3145C122.442 17.6144 123.31 17.9143 123.973 18.2141C124.636 18.4982 125.196 18.9401 125.653 19.5398C126.111 20.1396 126.34 20.9444 126.34 21.9545C126.34 22.7279 126.135 23.4617 125.725 24.1561C125.314 24.8505 124.706 25.4108 123.901 25.837C123.097 26.2631 122.134 26.4761 121.013 26.4761ZM134.561 26.4761C133.472 26.4761 132.509 26.2868 131.673 25.9079C130.852 25.5292 130.205 25.0005 129.732 24.3219C129.258 23.6432 129.006 22.8857 128.974 22.0492H130.726C130.805 22.8541 131.16 23.5643 131.791 24.1798C132.423 24.7796 133.346 25.0794 134.561 25.0794C135.681 25.0794 136.565 24.7953 137.212 24.2272C137.875 23.6432 138.207 22.9093 138.207 22.0255C138.207 21.3153 138.025 20.7471 137.662 20.3211C137.299 19.8792 136.849 19.5556 136.313 19.3504C135.776 19.1295 135.035 18.8927 134.088 18.6402C132.983 18.3404 132.107 18.0484 131.46 17.7643C130.813 17.4803 130.26 17.0383 129.802 16.4386C129.345 15.8389 129.116 15.0261 129.116 14.0002C129.116 13.148 129.337 12.3904 129.779 11.7276C130.221 11.0489 130.844 10.5203 131.649 10.1415C132.454 9.7627 133.377 9.57336 134.419 9.57336C135.95 9.57336 137.181 9.95211 138.112 10.7096C139.059 11.4514 139.603 12.4141 139.745 13.5978H137.947C137.836 12.9192 137.465 12.3195 136.834 11.7986C136.203 11.262 135.35 10.9937 134.277 10.9937C133.283 10.9937 132.454 11.262 131.791 11.7986C131.128 12.3195 130.797 13.0375 130.797 13.9529C130.797 14.6473 130.979 15.2076 131.342 15.6337C131.705 16.0598 132.154 16.3834 132.69 16.6043C133.243 16.8253 133.985 17.062 134.916 17.3145C135.989 17.6144 136.857 17.9143 137.52 18.2141C138.183 18.4982 138.743 18.9401 139.201 19.5398C139.658 20.1396 139.888 20.9444 139.888 21.9545C139.888 22.7279 139.682 23.4617 139.272 24.1561C138.862 24.8505 138.254 25.4108 137.449 25.837C136.644 26.2631 135.681 26.4761 134.561 26.4761Z" fill="#808080"/>
</g>
</g>
</g>
</g>
<defs>
<clipPath id="clip0_232_105">
<rect width="154" height="35.7" fill="white" transform="translate(0.259766 0.276855)"/>
</clipPath>
<clipPath id="clip1_232_105">
<rect width="154" height="35.7" fill="white" transform="translate(0.259766 0.276855)"/>
</clipPath>
<clipPath id="clip2_232_105">
<rect width="154" height="35.7101" fill="white" transform="translate(0.259766 0.271729)"/>
</clipPath>
</defs>
</svg>
