<svg width="41" height="43" viewBox="0 0 41 43" fill="none" xmlns="http://www.w3.org/2000/svg">
<path d="M40.5557 7.03601L21.5564 41.5986C21.1641 42.3122 20.1563 42.3164 19.7582 41.6063L0.382331 7.03922C-0.0515092 6.26548 0.598935 5.32811 1.46093 5.48498L20.4805 8.94336C20.6019 8.96542 20.7261 8.96521 20.8474 8.94272L39.4692 5.4898C40.3283 5.33052 40.9817 6.26066 40.5557 7.03601V7.03601Z" fill="url(#paint0_linear_223_335)"/>
<path d="M29.5405 0.948437L15.4806 3.75122C15.3683 3.77361 15.2664 3.83334 15.1911 3.92103C15.1158 4.00872 15.0712 4.1194 15.0645 4.23565L14.1996 19.0959C14.1949 19.1774 14.2089 19.259 14.2405 19.334C14.2721 19.409 14.3205 19.4756 14.3818 19.5283C14.4431 19.581 14.5156 19.6184 14.5936 19.6376C14.6716 19.6568 14.7529 19.6572 14.8311 19.6389L18.7456 18.7198C19.1119 18.6339 19.4429 18.9621 19.3675 19.3367L18.2045 25.1305C18.1263 25.5204 18.4861 25.8538 18.8603 25.738L21.2782 24.9908C21.653 24.8751 22.0132 25.2094 21.9339 25.5997L20.0857 34.7003C19.9701 35.2696 20.7144 35.5799 21.0246 35.0919L21.2321 34.766L32.6889 11.5054C32.8808 11.1159 32.5499 10.6719 32.1296 10.7545L28.1001 11.5456C27.7215 11.6198 27.3994 11.2611 27.5062 10.8843L30.1361 1.60951C30.243 1.2318 29.9196 0.872894 29.5406 0.948437H29.5405Z" fill="url(#paint1_linear_223_335)"/>
<defs>
<linearGradient id="paint0_linear_223_335" x1="-0.0907468" y1="8.27351" x2="20.8587" y2="36.2399" gradientUnits="userSpaceOnUse">
<stop stop-color="#41D1FF"/>
<stop offset="1" stop-color="#BD34FE"/>
</linearGradient>
<linearGradient id="paint1_linear_223_335" x1="22.2433" y1="1.70945" x2="26.6028" y2="31.1052" gradientUnits="userSpaceOnUse">
<stop stop-color="#FFEA83"/>
<stop offset="0.083" stop-color="#FFDD35"/>
<stop offset="1" stop-color="#FFA800"/>
</linearGradient>
</defs>
</svg>
