<svg width="20" height="20" viewBox="0 0 34 34" fill="none" xmlns="http://www.w3.org/2000/svg">
<path d="M17 27C19.6522 27 22.1957 25.9464 24.0711 24.0711C25.9464 22.1957 27 19.6522 27 17C27 14.3478 25.9464 11.8043 24.0711 9.92893C22.1957 8.05357 19.6522 7 17 7C14.3478 7 11.8043 8.05357 9.92893 9.92893C8.05357 11.8043 7 14.3478 7 17C7 19.6522 8.05357 22.1957 9.92893 24.0711C11.8043 25.9464 14.3478 27 17 27Z" stroke="currentColor" stroke-width="2" stroke-linecap="round" stroke-linejoin="round"/>
<path d="M27.71 27.71L27.515 27.515M27.515 6.485L27.71 6.29M6.29 27.71L6.485 27.515M17 2.12V2M17 32V31.88M2.12 17H2M32 17H31.88M6.485 6.485L6.29 6.29" stroke="currentColor" stroke-width="2.66667" stroke-linecap="round" stroke-linejoin="round"/>
</svg>
