<svg width="20" height="20" viewBox="0 0 20 20" fill="none" xmlns="http://www.w3.org/2000/svg">
<path d="M10 18C12.1217 18 14.1566 17.1571 15.6569 15.6569C17.1571 14.1566 18 12.1217 18 10C18 7.87827 17.1571 5.84344 15.6569 4.34315C14.1566 2.84285 12.1217 2 10 2C7.87827 2 5.84344 2.84285 4.34315 4.34315C2.84285 5.84344 2 7.87827 2 10C2 12.1217 2.84285 14.1566 4.34315 15.6569C5.84344 17.1571 7.87827 18 10 18Z" fill="black"/>
<path d="M10.2545 16.89C8.3595 16.89 6.54211 16.164 5.20214 14.8719C3.86216 13.5798 3.10938 11.8273 3.10938 10C3.10937 8.17267 3.86216 6.42018 5.20214 5.12807C6.54211 3.83595 8.3595 3.11005 10.2545 3.11005C11.202 3.11005 12.1107 3.473 12.7807 4.11906C13.4507 4.76512 13.8271 5.64136 13.8271 6.55502C13.8271 7.46869 13.4507 8.34493 12.7807 8.99099C12.1107 9.63705 11.202 10 10.2545 10C9.30701 10 8.39831 10.363 7.72832 11.009C7.05834 11.6551 6.68194 12.5313 6.68194 13.445C6.68194 14.3586 7.05834 15.2349 7.72832 15.8809C8.39831 16.527 9.30701 16.89 10.2545 16.89Z" fill="white"/>
<path d="M10.3827 14.5933C11.0169 14.5933 11.531 14.0792 11.531 13.445C11.531 12.8108 11.0169 12.2966 10.3827 12.2966C9.7485 12.2966 9.23438 12.8108 9.23438 13.445C9.23438 14.0792 9.7485 14.5933 10.3827 14.5933Z" fill="white"/>
<path d="M10.3827 7.70333C11.0169 7.70333 11.531 7.18921 11.531 6.555C11.531 5.9208 11.0169 5.40668 10.3827 5.40668C9.7485 5.40668 9.23438 5.9208 9.23438 6.555C9.23438 7.18921 9.7485 7.70333 10.3827 7.70333Z" fill="black"/>
</svg>
