<svg width="158" height="60" viewBox="0 0 158 60" fill="none" xmlns="http://www.w3.org/2000/svg">
<path d="M3 21.7227H16.7227L30.7608 35.7608H16.7227V49.799L3 35.7608V21.7227ZM3 8H30.7608V21.7227H16.7227L3 8Z" fill="white"/>
<path d="M57.0232 37.6539V16.9121H69.7995V21.092H61.834V26.5338H69.7995V30.6348H61.834V37.6539H57.0232Z" fill="white"/>
<path d="M72.6387 37.6534V23.2998H77.4495V26.5333C77.5284 25.5081 78.0016 24.6406 78.7113 23.9308C79.4211 23.2998 80.3675 22.9844 81.3139 22.9844C81.9449 22.9844 82.2603 23.2998 82.5758 23.2998V27.4797H81.3139C80.2098 27.322 79.1057 27.8741 78.3959 28.7416C77.765 29.3725 77.4495 30.6344 77.4495 32.2117V37.6534H72.6387Z" fill="white"/>
<path d="M91.4875 34.4988C92.5128 34.6565 93.538 34.1045 94.0112 33.237C94.6422 32.5272 94.9576 31.6596 94.9576 30.7132C94.9576 29.688 94.6422 28.6627 94.0112 27.8741C93.3803 27.1643 92.4339 26.8488 91.4875 26.9277C90.5411 26.9277 89.5947 27.2431 88.8849 27.8741C88.254 28.6627 87.8597 29.688 87.9386 30.7132C87.9386 31.6596 88.254 32.606 88.8849 33.237C89.5159 34.0256 90.4623 34.4988 91.4875 34.4988ZM90.2257 38.2844C88.254 38.2844 86.4401 37.4957 85.0994 36.0761C83.9953 34.4988 83.4432 32.606 83.5221 30.6344C83.5221 29.3725 83.7587 28.0318 84.153 26.8488C84.7051 25.6658 85.6514 24.7194 86.6767 23.9308C87.702 23.2998 88.9638 22.9844 90.2257 22.9844C91.1721 23.0632 92.1973 23.221 93.0648 23.6153C93.8535 24.0096 94.4056 24.7194 94.6422 25.5081V23.221H99.453V37.5746H94.6422V35.6818C94.2478 36.3916 93.6958 37.0225 93.0648 37.5746C92.1973 38.0478 91.2509 38.2055 90.2257 38.2844Z" fill="white"/>
<path d="M103.002 37.6527V23.2991H107.498V25.5862C107.813 24.6398 108.444 24.3244 109.075 23.6934C109.864 23.2991 110.731 23.1414 111.677 23.0625C113.886 23.0625 115.542 24.0089 116.173 25.6651C116.804 25.0342 117.435 24.4032 118.066 23.7723C119.012 23.378 119.958 23.2202 120.984 23.1414C124.454 23.1414 126.11 25.0342 126.11 28.8986V37.8104H121.615V29.6872C121.615 28.8986 121.378 28.1099 120.984 27.479C120.51 27.0847 119.958 26.8481 119.327 26.8481C118.539 26.7692 117.829 27.1635 117.435 27.7945C116.961 28.5831 116.725 29.4506 116.804 30.3182V37.6527H112.308V29.6872C112.308 28.8986 112.072 28.1099 111.677 27.479C111.283 27.0847 110.652 26.8481 110.1 26.8481C109.39 26.9269 108.681 27.2424 108.207 27.7945C107.734 28.5831 107.498 29.4506 107.576 30.3182V37.6527H103.002Z" fill="white"/>
<path d="M133.05 29.0579H139.123C139.123 28.2692 138.886 27.4806 138.492 26.8496C137.861 26.2187 137.23 26.2187 136.284 26.2187C135.416 26.2187 134.549 26.4553 133.76 26.8496C133.287 27.4806 133.05 28.2692 133.05 29.0579ZM143.539 29.6888V31.8971H132.971C132.971 32.7646 133.287 33.5532 133.918 34.1053C134.549 34.5785 135.337 34.8151 136.126 34.7362C137.703 34.7362 138.334 34.4208 138.965 33.4744H143.46C143.145 34.9728 142.199 36.2347 140.937 36.9445C139.438 37.7331 137.782 38.2063 136.126 38.2063C133.602 38.2063 131.631 37.5754 130.369 35.9981C128.949 34.5785 128.082 32.6068 128.082 30.5563C128.082 28.427 128.87 26.3764 130.369 24.7991C131.631 23.5373 133.523 22.9063 136.126 22.9063C138.098 22.8275 140.069 23.5373 141.568 24.7991C142.908 26.1398 143.618 27.8749 143.539 29.6888Z" fill="white"/>
<path d="M146.142 37.6534V23.2998H150.637V26.5333C150.953 25.587 151.505 24.7194 152.215 23.9308C152.924 23.2998 153.792 22.9844 154.738 22.9844C155.054 22.9844 155.685 23.2998 156 23.2998V27.4797H154.423C153.398 27.4009 152.451 27.9529 151.899 28.7416C150.953 29.3725 150.637 30.6344 150.637 32.2117V37.6534H146.142Z" fill="white"/>
</svg>
