<svg width="146" height="60" viewBox="0 0 146 60" fill="none" xmlns="http://www.w3.org/2000/svg">
<path d="M21.819 35.3051C23.9773 35.3051 25.7269 33.5554 25.7269 31.3972C25.7269 29.2389 23.9773 27.4893 21.819 27.4893C19.6608 27.4893 17.9111 29.2389 17.9111 31.3972C17.9111 33.5554 19.6608 35.3051 21.819 35.3051Z" fill="white"/>
<path d="M21.8191 40.3516C17.1333 40.4696 12.4593 39.828 7.97863 38.4519C5.91232 37.7881 3.98202 36.7586 2.2796 35.4125C0.75986 34.1098 0 32.7529 0 31.396C0 28.7907 2.82237 26.294 7.5987 24.6114C12.2118 23.1415 17.0322 22.4267 21.8734 22.4947C27.0839 22.4947 32.0774 23.2003 35.931 24.5572C38.2106 25.317 40.1103 26.3483 41.4672 27.4881C42.9327 28.7365 43.6925 30.0391 43.6925 31.396C43.6925 34.0555 40.5445 36.8236 35.4425 38.5062C31.0204 39.8048 26.4273 40.4269 21.8191 40.3516ZM21.8191 24.3943C16.7714 24.3943 11.8323 25.0999 8.14147 26.4026C4.99343 27.4881 1.79112 29.4963 1.79112 31.396C1.79112 32.1559 2.38816 33.0786 3.41941 34.0013C4.66777 35.0325 6.40461 36.0095 8.52139 36.7151C12.8102 38.0233 17.2826 38.6282 21.7649 38.5062C26.704 38.5062 31.3175 37.9092 34.7912 36.7151C39.6218 35.1411 41.7929 32.8615 41.7929 31.396C41.7929 30.6904 41.2501 29.7677 40.2188 28.9536C38.7366 27.8044 37.0651 26.9228 35.2797 26.3483C30.9233 24.9939 26.3808 24.3345 21.8191 24.3943Z" fill="white"/>
<path d="M12.9721 50.8829C12.158 50.8829 11.4524 50.72 10.9096 50.3944C8.68429 49.0917 7.92441 45.4009 8.84711 40.4618C9.87759 35.733 11.6743 31.2045 14.1662 27.0555C16.5091 22.8866 19.4948 19.1133 23.0133 15.8745C24.8044 14.3005 26.6498 13.1607 28.2781 12.5637C30.0692 11.9124 31.6432 11.9124 32.783 12.5637C35.1169 13.9206 35.8768 17.9913 34.7913 23.2561C33.7321 27.7284 31.9931 32.0118 29.635 35.9568C27.3884 40.0688 24.5133 43.8046 21.1136 47.0292C19.2682 48.6575 17.3685 49.8516 15.6317 50.4486C14.5461 50.72 13.732 50.8829 12.9721 50.8829ZM15.6859 27.9239C13.3139 31.8947 11.5915 36.2189 10.584 40.7332C9.98692 43.9897 10.0955 47.7348 11.778 48.7118C13.0264 49.4174 16.0659 48.7661 19.7567 45.5095C22.4705 43.1213 25.2929 39.4848 27.8981 34.9256C30.1752 31.1525 31.8593 27.052 32.8916 22.7676C33.361 20.8321 33.4714 18.8269 33.2172 16.8515C33.0001 15.4403 32.5116 14.4634 31.8061 14.0834C31.1547 13.7035 30.1235 13.7578 28.8751 14.192C27.1457 14.917 25.5497 15.9259 24.1531 17.1772C20.8056 20.3126 17.951 23.9357 15.6859 27.9239Z" fill="white"/>
<path d="M30.6662 50.8823C28.5494 50.8823 25.8356 49.5797 23.0675 47.1915C19.4874 43.9412 16.4624 40.1278 14.1119 35.902C11.5066 31.3971 9.60692 26.6751 8.84705 22.6586C8.35856 20.3247 8.30429 18.1536 8.62995 16.4168C8.95561 14.5171 9.71548 13.1602 10.8553 12.5089C13.1892 11.152 17.0971 12.5632 21.1135 16.0911C24.4208 19.2698 27.2541 22.9073 29.5264 26.8922C31.9937 30.8784 33.7905 35.2422 34.8455 39.8099C35.334 42.1981 35.3882 44.4777 35.0626 46.2688C34.6826 48.2228 33.8685 49.5797 32.7287 50.2853C32.1231 50.7006 31.4 50.9099 30.6662 50.8823ZM15.7402 34.9793C18.2369 39.3215 21.3849 43.2836 24.3158 45.7803C26.8668 47.9514 30.1234 49.7425 31.806 48.7656C33.0544 48.06 33.977 45.0748 33.0001 40.2984C31.9699 35.9278 30.2475 31.7501 27.8981 27.9234C25.7672 24.0768 23.0579 20.5804 19.8652 17.5566C18.4064 16.1982 16.7149 15.1134 14.8717 14.3543C13.5691 13.8658 12.4293 13.8115 11.778 14.1915C11.1267 14.5714 10.6924 15.4941 10.4211 16.7967C10.1766 18.641 10.2501 20.5135 10.6382 22.3329C11.3981 26.1323 13.1892 30.6372 15.7402 34.9793Z" fill="white"/>
<path d="M65.5117 45.1828L58.4014 34.0562H52.811V45.1828H49.3373V17.2305H60.5725C65.6745 17.2305 69.311 20.4871 69.311 25.6433C69.311 30.691 65.8916 33.4591 62.038 33.7848L69.5824 45.1828H65.5117ZM65.7288 25.6433C65.7288 22.4953 63.4492 20.3242 60.1383 20.3242H52.811V31.0167H60.1383C63.4492 31.0167 65.7288 28.7914 65.7288 25.6433Z" fill="white"/>
<path d="M72.6761 35.0331C72.6761 29.1713 76.8554 24.4492 82.663 24.4492C88.7962 24.4492 92.3785 29.2255 92.3785 35.3045V36.1187H75.987C76.2584 39.918 78.9179 43.1203 83.2601 43.1203C85.5397 43.1203 87.9278 42.1976 89.5018 40.5693L91.0216 42.6318C89.9606 43.6628 88.702 44.4684 87.3215 45C85.9409 45.5317 84.4671 45.7785 82.9887 45.7256C77.0183 45.6713 72.6761 41.3835 72.6761 35.0331ZM82.6087 27.0545C78.2666 27.0545 76.1498 30.691 75.987 33.7848H89.2847C89.2305 30.7453 87.2222 27.0545 82.6087 27.0545Z" fill="white"/>
<path d="M108.879 45.1828V42.9032C108.026 43.8309 106.984 44.5635 105.822 45.0506C104.661 45.5378 103.407 45.768 102.148 45.7256C98.7289 45.7256 95.0381 43.446 95.0381 38.9953C95.0381 34.4904 98.6746 32.3193 102.148 32.3193C104.916 32.3193 107.196 33.1877 108.879 35.0874V31.4509C108.879 28.7371 106.708 27.163 103.777 27.163C101.334 27.163 99.3802 28.0315 97.5891 29.9854L96.1236 27.8144C98.2947 25.5348 100.9 24.4492 104.211 24.4492C108.499 24.4492 112.027 26.4032 112.027 31.2881V45.1828H108.879ZM108.879 40.895V37.0956C107.684 35.4131 105.513 34.5989 103.288 34.5989C100.357 34.5989 98.2947 36.4443 98.2947 39.0496C98.2947 41.6006 100.357 43.446 103.288 43.446C105.513 43.446 107.63 42.5775 108.879 40.895Z" fill="white"/>
<path d="M115.012 35.033C115.012 29.0626 119.083 24.4491 125.107 24.4491C128.798 24.4491 130.969 25.9688 132.543 27.977L130.426 29.931C129.864 29.0859 129.095 28.3982 128.193 27.9328C127.291 27.4674 126.285 27.2398 125.27 27.2715C120.928 27.2715 118.268 30.5823 118.268 35.0873C118.268 39.5922 120.928 42.9031 125.27 42.9031C127.387 42.9031 129.069 42.0889 130.426 40.2435L132.543 42.1975C131.689 43.351 130.563 44.2764 129.266 44.8917C127.97 45.507 126.541 45.7934 125.107 45.7254C119.083 45.6712 115.012 41.0577 115.012 35.033ZM137.591 40.9491V27.7057H134.226V24.9376H137.591V19.4014H140.739V24.9376H144.864V27.7057H140.739V40.2978C140.739 41.8175 141.39 42.9031 142.801 42.9031C143.67 42.9031 144.538 42.5231 144.918 42.0889L145.841 44.4228C145.325 44.8805 144.724 45.2313 144.072 45.4549C143.419 45.6785 142.729 45.7705 142.041 45.7254C139.056 45.6712 137.591 43.9886 137.591 40.9491Z" fill="white"/>
</svg>
