<svg width="142" height="60" viewBox="0 0 142 60" fill="none" xmlns="http://www.w3.org/2000/svg">
<path d="M30.1257 16.2488C29.9836 16.2488 26.9995 15.9646 26.9995 15.9646C26.9995 15.9646 24.8679 13.833 24.5837 13.6909C24.4416 13.5488 24.4416 13.5488 24.2995 13.5488L22.5943 48.506L34.8151 45.8061C34.8151 45.8061 30.552 16.8172 30.552 16.533C30.552 16.3909 30.2678 16.2488 30.1257 16.2488Z" fill="white"/>
<path fill-rule="evenodd" clip-rule="evenodd" d="M16.5648 10.454C16.3975 10.3574 16.2656 10.2813 16.0576 10.2813C12.3629 10.2813 10.3735 15.1127 9.37877 17.9548L12.505 17.1022C13.3576 13.1233 15.0629 11.276 16.7681 10.5655C16.6919 10.5274 16.626 10.4893 16.5648 10.454ZM18.1891 15.1127C18.1891 13.5496 17.9049 12.5549 17.6207 11.7023C16.3418 12.2707 14.9208 13.5496 14.0681 16.5338L18.1891 15.3969V15.1127ZM19.468 14.8285L21.3154 14.2601C20.8891 12.8391 20.0365 11.5602 19.0417 11.276C19.3259 12.1286 19.468 13.1233 19.468 14.4022V14.8285ZM30.2678 16.2496C30.4099 16.2496 30.552 16.3917 30.552 16.5338C30.552 16.818 34.8151 45.8069 34.8151 45.8069L22.5943 48.5068L0 44.2438C0 44.2438 2.84205 21.7916 2.98415 21.081C2.98673 21.063 2.98926 21.0452 2.99175 21.0278C3.12663 20.0811 3.14687 19.9391 4.26307 19.66C4.58976 19.5511 4.90718 19.4422 5.21769 19.3357C6.12278 19.0252 6.96921 18.7348 7.81564 18.5232C8.66825 15.2548 11.084 8.86023 16.1997 9.00233C16.9102 9.00233 17.7628 9.28653 18.3312 10.1391H18.4733C20.6049 10.1391 21.8838 11.9865 22.5943 13.9759C23.3048 13.6917 23.7311 13.5496 23.7311 13.5496C23.7595 13.5496 23.7993 13.5439 23.8471 13.5371C24.0381 13.5098 24.3564 13.4643 24.5837 13.6917C24.8679 13.8338 26.9995 15.9654 26.9995 15.9654C26.9995 15.9654 29.9836 16.2496 30.2678 16.2496ZM16.9102 27.6176L18.4734 23.0703C18.4734 23.0703 17.4786 22.3598 15.0629 22.5019C9.8051 22.5019 7.10515 26.0545 7.10515 29.7491C7.10515 32.22 8.49101 33.3496 9.7081 34.3417C10.6609 35.1184 11.5103 35.8108 11.5103 36.9964C11.5103 37.7069 11.084 38.5595 9.9472 38.5595C8.24197 38.5595 6.25254 36.8543 6.25254 36.8543L5.25782 40.2647C5.25782 40.2647 7.24726 42.6805 11.084 42.6805C14.3524 42.6805 16.7681 40.2647 16.7681 36.428C16.7681 33.485 14.7646 32.0183 13.1983 30.8717C12.1932 30.136 11.3682 29.532 11.3682 28.7544C11.3682 28.3281 11.5103 26.9071 13.9261 26.9071C15.6313 26.9071 16.9102 27.6176 16.9102 27.6176Z" fill="white"/>
<path d="M49.1675 31.4544C47.8885 30.7439 47.3201 30.1755 47.3201 29.465C47.3201 28.4703 48.1727 27.9019 49.5938 27.9019C51.1569 27.9019 52.5779 28.6124 52.5779 28.6124L53.7147 25.2019C53.7147 25.2019 52.72 24.3493 49.7359 24.3493C45.4728 24.3493 42.6307 26.7651 42.6307 30.1755C42.6307 32.165 44.0518 33.586 45.757 34.5807C47.178 35.4333 47.7464 36.0017 47.7464 36.8543C47.7464 37.707 47.0359 38.5596 45.6149 38.5596C43.6255 38.5596 41.636 37.5648 41.636 37.5648L40.4992 40.9753C40.4992 40.9753 42.2044 42.1121 45.1886 42.1121C49.4517 42.1121 52.5779 39.9806 52.5779 36.1438C52.5779 34.0123 51.0148 32.4492 49.1675 31.4544ZM66.3619 24.2072C64.2303 24.2072 62.5251 25.2019 61.2462 26.7651L63.0935 17.1021H58.262L53.5726 41.6858H58.4041L59.9672 33.3018C60.5357 30.1755 62.2409 28.1861 63.804 28.1861C64.9408 28.1861 65.3671 28.8966 65.3671 30.0334C65.3671 30.7439 65.3671 31.4544 65.225 32.165L63.3777 41.8279H68.2092L70.0565 31.8807C70.1986 30.886 70.3407 29.6071 70.3407 28.7545C70.3407 25.9124 68.9197 24.2072 66.3619 24.2072ZM78.7248 38.2754C77.0195 38.2754 76.4511 36.8543 76.4511 35.1491C76.4511 32.4492 77.8722 27.9019 80.43 27.9019C82.1352 27.9019 82.7036 29.3229 82.7036 30.7439C82.7036 33.8702 81.2826 38.2754 78.7248 38.2754ZM81.1405 24.2072C75.3143 24.2072 71.4775 29.465 71.4775 35.2912C71.4775 38.9859 73.7512 41.97 78.1564 41.97C83.8405 41.97 87.6772 36.8543 87.6772 30.886C87.6772 27.4756 85.6878 24.2072 81.1405 24.2072ZM95.3508 38.4175C94.0718 38.4175 93.3613 37.7069 93.3613 37.7069L94.214 33.1597C94.7824 30.1755 96.3455 28.1861 98.0507 28.1861C99.4717 28.1861 100.04 29.6071 100.04 30.886C99.8981 34.0123 98.0507 38.4175 95.3508 38.4175ZM100.04 24.2072C96.7718 24.2072 94.9245 27.0493 94.9245 27.0493L95.2087 24.4914H90.9456C90.8035 26.1966 90.3772 28.8966 89.9509 30.886L86.5404 48.5067H91.3719L92.6508 41.4016H92.7929C92.7929 41.4016 93.7876 41.97 95.635 41.97C101.319 41.97 105.014 36.1438 105.014 30.3176C105.014 27.1914 103.593 24.2072 100.04 24.2072ZM111.835 17.3863C110.272 17.3863 109.135 18.6652 109.135 20.2283C109.135 21.6494 109.987 22.6441 111.408 22.6441C112.971 22.6441 114.25 21.6494 114.25 19.802C114.25 18.381 113.256 17.3863 111.835 17.3863ZM105.156 41.6858H109.987L113.256 24.6335H108.424L105.156 41.6858ZM125.477 24.6335H122.066L122.208 23.7809C122.492 22.0757 123.487 20.6547 125.05 20.6547C125.903 20.6547 126.613 20.9389 126.613 20.9389L127.608 17.1021C127.608 17.1021 126.755 16.6758 125.05 16.6758C123.345 16.6758 121.64 17.1021 120.361 18.2389C118.656 19.6599 117.945 21.6494 117.519 23.6388L117.377 24.4914H115.103L114.393 28.1861H116.666L114.108 41.6858H118.94L121.498 28.1861H124.766L125.477 24.6335ZM136.987 24.6335C136.987 24.6335 134.003 32.165 132.582 36.2859C132.44 35.007 131.445 24.6335 131.445 24.6335H126.329L129.171 40.2648C129.171 40.549 129.171 40.8332 129.029 41.1174C128.461 42.2542 127.466 43.2489 126.471 43.9595C125.619 44.67 124.482 45.0963 123.771 45.3805L125.05 49.5015C126.045 49.3594 128.034 48.5067 129.74 46.9436C131.871 44.9542 134.003 41.6858 135.992 37.4227L141.818 24.7756L136.987 24.6335Z" fill="white"/>
</svg>
