<svg width="282" height="60" viewBox="0 0 282 60" fill="none" xmlns="http://www.w3.org/2000/svg">
<path fill-rule="evenodd" clip-rule="evenodd" d="M13.2818 31.13L28.8089 15.4128C29.8638 14.3449 31.2674 13.7578 32.7636 13.7578C34.2587 13.7578 35.6623 14.3444 36.7162 15.4122L37.9259 16.6368L40.3459 14.1871L39.1362 12.9626C37.4367 11.2423 35.1737 10.2949 32.7625 10.2949C30.3524 10.2955 28.0889 11.2429 26.3894 12.9637L10.8623 28.6804L13.2818 31.13Z" fill="white"/>
<path fill-rule="evenodd" clip-rule="evenodd" d="M34.0561 20.6341L31.6246 18.1881L16.0246 33.882C13.8339 36.0858 10.2695 36.0863 8.07934 33.8831C5.88864 31.6793 5.88864 28.093 8.07934 25.8891L21.5407 12.3478L19.1092 9.90234L5.64843 23.4437C2.11719 26.9961 2.11719 32.7767 5.64843 36.3286C7.35593 38.0463 9.62965 38.9928 12.0511 38.9928C14.4732 38.9928 16.748 38.0457 18.4555 36.328L34.0561 20.6341Z" fill="white"/>
<path fill-rule="evenodd" clip-rule="evenodd" d="M49.4905 23.573C47.7835 21.8552 45.5098 20.9092 43.0872 20.9092C40.6651 20.9097 38.3903 21.8558 36.6828 23.5741L21.0833 39.2677L23.5136 41.7138L39.1143 26.0196C41.3055 23.8157 44.8694 23.8163 47.0596 26.019C48.119 27.0847 48.7023 28.5035 48.7023 30.0152C48.7023 31.5275 48.119 32.9468 47.0596 34.0126L33.5988 47.5542L36.0302 49.9997L49.4905 36.4586C53.0223 32.9062 53.0223 27.1254 49.4905 23.573Z" fill="white"/>
<path fill-rule="evenodd" clip-rule="evenodd" d="M41.8577 28.7715L26.3309 44.4887C24.15 46.6952 20.6029 46.6963 18.4231 44.4892L17.2134 43.2647L14.7935 45.7144L16.0032 46.9389C17.7026 48.6592 19.9656 49.6066 22.3773 49.6066C24.7873 49.606 27.0503 48.6586 28.7503 46.9378L44.2771 31.2211L41.8577 28.7715Z" fill="white"/>
<path fill-rule="evenodd" clip-rule="evenodd" d="M66.4783 34.0435C66.6785 35.0464 67.1479 35.8316 67.8852 36.3973C68.622 36.9641 69.5915 37.247 70.7938 37.247C71.9768 37.247 72.8913 36.9686 73.5378 36.4113C74.1843 35.8546 74.5073 35.1211 74.5073 34.2108C74.5073 33.7652 74.4209 33.3892 74.2481 33.0827C74.0748 32.7763 73.8338 32.5165 73.5246 32.3026C73.2142 32.0899 72.8324 31.9081 72.3773 31.76C71.9223 31.6112 71.4122 31.4535 70.8477 31.2863L69.3736 30.8687C68.4993 30.6274 67.7163 30.335 67.0246 29.991C66.3324 29.6475 65.7409 29.2435 65.2496 28.7793C64.7582 28.3152 64.3846 27.7815 64.1298 27.1776C63.8751 26.5743 63.7474 25.8728 63.7474 25.0748C63.7474 24.2391 63.9114 23.4686 64.2393 22.7626C64.5667 22.0577 65.0311 21.4533 65.632 20.9521C66.2329 20.4509 66.9608 20.0564 67.817 19.7679C68.672 19.4811 69.6366 19.3369 70.7112 19.3369C72.7322 19.3369 74.334 19.824 75.5181 20.7989C76.7011 21.7743 77.3927 23.0785 77.5936 24.7128L74.3164 24.9911C74.1155 24.1555 73.7155 23.5056 73.1147 23.0415C72.5138 22.5774 71.6763 22.345 70.6023 22.345C69.6008 22.345 68.8179 22.5819 68.2539 23.0555C67.6888 23.5292 67.4065 24.1375 67.4065 24.88C67.4065 25.3071 67.489 25.664 67.653 25.9519C67.817 26.2404 68.053 26.4907 68.3628 26.704C68.672 26.9178 69.0501 27.1081 69.4957 27.2747C69.942 27.442 70.4471 27.6193 71.0116 27.8045L72.4049 28.2501C73.2781 28.5285 74.066 28.8209 74.7665 29.1273C75.4675 29.4337 76.0639 29.8008 76.5553 30.2278C77.0472 30.6549 77.4252 31.1656 77.6888 31.76C77.9529 32.3543 78.0849 33.0878 78.0849 33.9605C78.0849 34.8893 77.9028 35.739 77.5391 36.509C77.1743 37.2801 76.6653 37.9344 76.0094 38.4726C75.3541 39.0114 74.5761 39.4295 73.6742 39.7258C72.773 40.0227 71.7765 40.172 70.6843 40.172C68.6632 40.172 66.979 39.6894 65.632 38.7235C64.2845 37.7577 63.4564 36.3002 63.1466 34.35L66.4783 34.0435Z" fill="white"/>
<path fill-rule="evenodd" clip-rule="evenodd" d="M92.1823 22.7247C91.1999 22.7247 90.3215 22.9096 89.5482 23.2783C88.7743 23.6476 88.1192 24.1593 87.5829 24.814C87.0455 25.4693 86.6357 26.2446 86.3535 27.1384C86.0719 28.0339 85.9311 29.0071 85.9311 30.0584C85.9311 31.1103 86.0763 32.0879 86.3678 32.9923C86.6583 33.8962 87.073 34.6799 87.6098 35.3447C88.1461 36.0083 88.8018 36.5295 89.5757 36.9083C90.3485 37.2859 91.2269 37.4747 92.2098 37.4747C93.1927 37.4747 94.0706 37.2954 94.8445 36.9357C95.6173 36.5759 96.273 36.0731 96.8098 35.4268C97.3467 34.7816 97.7608 34.0017 98.0518 33.089C98.3428 32.1756 98.4885 31.1745 98.4885 30.0863C98.4885 29.016 98.3428 28.0289 98.0518 27.125C97.7608 26.2217 97.3467 25.4464 96.8098 24.8006C96.273 24.1554 95.6129 23.6476 94.8302 23.2783C94.0481 22.9096 93.1652 22.7247 92.1823 22.7247ZM92.2098 19.7305C93.6839 19.7305 95.031 19.9846 96.2504 20.493C97.4693 21.0013 98.5067 21.7125 99.3626 22.6275C100.217 23.5431 100.881 24.638 101.355 25.9134C101.828 27.1887 102.065 28.5842 102.065 30.0997C102.065 31.6717 101.815 33.0901 101.315 34.3559C100.813 35.6223 100.1 36.7172 99.1711 37.6412L101.792 40.7746V41.7449H98.4616L96.6322 39.4718C95.9952 39.7674 95.3121 39.9981 94.5849 40.1645C93.8566 40.331 93.0739 40.4142 92.2373 40.4142C90.7264 40.4142 89.3661 40.1595 88.156 39.6517C86.9454 39.1434 85.9168 38.4317 85.0708 37.5166C84.2243 36.6016 83.5692 35.5117 83.1055 34.2448C82.6413 32.9789 82.4092 31.5974 82.4092 30.0997C82.4092 28.5842 82.6413 27.1937 83.1055 25.9268C83.5692 24.6615 84.2287 23.5705 85.0846 22.6554C85.9393 21.7404 86.9723 21.0243 88.183 20.5064C89.3936 19.9897 90.7357 19.7305 92.2098 19.7305Z" fill="white"/>
<path fill-rule="evenodd" clip-rule="evenodd" d="M115.431 37.3039C116.827 37.3039 117.915 36.8634 118.695 35.9812C119.475 35.0991 119.865 33.7484 119.865 31.9286V19.7305H123.293V32.0123C123.293 33.4606 123.112 34.6996 122.749 35.7304C122.385 36.7607 121.869 37.6058 121.198 38.2651C120.527 38.9244 119.702 39.407 118.723 39.7134C117.743 40.0198 116.646 40.1724 115.431 40.1724C114.197 40.1724 113.095 40.0198 112.126 39.7134C111.155 39.407 110.334 38.9244 109.663 38.2651C108.993 37.6058 108.476 36.7607 108.112 35.7304C107.749 34.6996 107.569 33.4606 107.569 32.0123V19.7305H110.997V31.9286C110.997 33.7484 111.386 35.0991 112.166 35.9812C112.946 36.8634 114.034 37.3039 115.431 37.3039Z" fill="white"/>
<path fill-rule="evenodd" clip-rule="evenodd" d="M133.114 31.2101H139.673L138.594 28.0894C138.169 26.8671 137.828 25.8721 137.57 25.1059C137.311 24.3392 137.08 23.6641 136.878 23.08H136.02C135.909 23.39 135.798 23.7005 135.688 24.0105C135.577 24.321 135.453 24.668 135.314 25.0508C135.175 25.4341 135.024 25.8721 134.858 26.3652C134.691 26.8572 134.488 27.4324 134.249 28.0894L133.114 31.2101ZM126.831 38.8207L133.889 20.123H139.12L146.094 38.8207V39.7788H142.662L140.67 34.1666H132.062L130.07 39.7788H126.831V38.8207Z" fill="white"/>
<path fill-rule="evenodd" clip-rule="evenodd" d="M153.817 29.1023H156.805C158.121 29.1023 159.157 28.8624 159.915 28.3836C160.674 27.9043 161.054 27.1221 161.054 26.036C161.054 24.9329 160.669 24.1645 159.902 23.7304C159.135 23.2969 158.102 23.0795 156.805 23.0795H153.817V29.1023ZM165.356 39.7788H162.039L156.037 32.0588H153.817V39.7788H150.418V20.123H156.805C157.809 20.123 158.765 20.1914 159.669 20.3282C160.573 20.465 161.391 20.78 162.122 21.2726C163.675 22.2941 164.452 23.8363 164.452 25.8976C164.452 26.7923 164.32 27.5722 164.054 28.2385C163.789 28.9043 163.437 29.4697 162.999 29.9352C162.56 30.4007 162.053 30.7791 161.478 31.0704C160.902 31.3627 160.304 31.5817 159.682 31.7273L165.356 38.8201V39.7788Z" fill="white"/>
<path fill-rule="evenodd" clip-rule="evenodd" d="M169.681 20.123H182.461V23.1341H173.061V28.2808H181.801V31.2372H173.061V36.7672H182.653V39.7788H169.681V20.123Z" fill="white"/>
<path fill-rule="evenodd" clip-rule="evenodd" d="M190.31 34.0435C190.51 35.0464 190.979 35.8316 191.716 36.3973C192.453 36.9641 193.423 37.247 194.625 37.247C195.808 37.247 196.722 36.9686 197.369 36.4113C198.015 35.8546 198.339 35.1211 198.339 34.2108C198.339 33.7652 198.252 33.3892 198.079 33.0827C197.906 32.7763 197.665 32.5165 197.355 32.3026C197.046 32.0899 196.663 31.9081 196.209 31.76C195.753 31.6112 195.243 31.4535 194.679 31.2863L193.205 30.8687C192.331 30.6274 191.547 30.335 190.856 29.991C190.163 29.6475 189.572 29.2435 189.081 28.7793C188.589 28.3152 188.216 27.7815 187.961 27.1776C187.706 26.5743 187.579 25.8728 187.579 25.0748C187.579 24.2391 187.743 23.4686 188.07 22.7626C188.398 22.0577 188.862 21.4533 189.463 20.9521C190.064 20.4509 190.792 20.0564 191.648 19.7679C192.503 19.4811 193.468 19.3369 194.542 19.3369C196.563 19.3369 198.165 19.824 199.349 20.7989C200.532 21.7743 201.224 23.0785 201.424 24.7128L198.147 24.9911C197.947 24.1555 197.546 23.5056 196.946 23.0415C196.345 22.5774 195.507 22.345 194.433 22.345C193.432 22.345 192.649 22.5819 192.085 23.0555C191.52 23.5292 191.238 24.1375 191.238 24.88C191.238 25.3071 191.32 25.664 191.484 25.9519C191.648 26.2404 191.884 26.4907 192.194 26.704C192.503 26.9178 192.881 27.1081 193.327 27.2747C193.773 27.442 194.279 27.6193 194.843 27.8045L196.236 28.2501C197.109 28.5285 197.897 28.8209 198.598 29.1273C199.298 29.4337 199.895 29.8008 200.386 30.2278C200.878 30.6549 201.256 31.1656 201.52 31.76C201.783 32.3543 201.916 33.0878 201.916 33.9605C201.916 34.8893 201.734 35.739 201.37 36.509C201.005 37.2801 200.496 37.9344 199.84 38.4726C199.185 39.0114 198.407 39.4295 197.506 39.7258C196.604 40.0227 195.607 40.172 194.515 40.172C192.495 40.172 190.81 39.6894 189.463 38.7235C188.116 37.7577 187.287 36.3002 186.978 34.35L190.31 34.0435Z" fill="white"/>
<path fill-rule="evenodd" clip-rule="evenodd" d="M210.51 29.2664H213.853C214.467 29.2664 215.028 29.2168 215.539 29.1169C216.05 29.0177 216.496 28.8505 216.877 28.615C217.258 28.38 217.555 28.0634 217.769 27.6652C217.982 27.2675 218.089 26.7788 218.089 26.1997C218.089 25.6029 217.982 25.1015 217.769 24.6945C217.555 24.2874 217.262 23.9664 216.891 23.7309C216.519 23.4953 216.078 23.3282 215.567 23.2289C215.056 23.1297 214.504 23.0795 213.91 23.0795H210.51V29.2664ZM207.027 20.123H214.327C215.683 20.123 216.821 20.278 217.741 20.5886C218.66 20.8986 219.403 21.3271 219.97 21.8754C220.536 22.4225 220.945 23.0657 221.196 23.8053C221.446 24.5439 221.572 25.3426 221.572 26.2002C221.572 27.2229 221.4 28.112 221.056 28.8693C220.713 29.6266 220.216 30.2515 219.566 30.7446C218.915 31.2372 218.126 31.6067 217.197 31.8533C216.268 32.0998 215.219 32.2228 214.049 32.2228H210.51V39.7788H207.027V20.123Z" fill="white"/>
<path fill-rule="evenodd" clip-rule="evenodd" d="M228.641 31.2101H235.2L234.121 28.0894C233.696 26.8671 233.354 25.8721 233.096 25.1059C232.838 24.3392 232.607 23.6641 232.405 23.08H231.547C231.436 23.39 231.325 23.7005 231.214 24.0105C231.104 24.321 230.979 24.668 230.841 25.0508C230.702 25.4341 230.551 25.8721 230.385 26.3652C230.218 26.8572 230.015 27.4324 229.776 28.0894L228.641 31.2101ZM222.358 38.8207L229.416 20.123H234.646L241.621 38.8207V39.7788H238.189L236.197 34.1666H227.589L225.596 39.7788H222.358V38.8207Z" fill="white"/>
<path fill-rule="evenodd" clip-rule="evenodd" d="M262.456 34.5824C262.144 35.3499 261.734 36.072 261.229 36.7494C260.723 37.4269 260.112 38.0204 259.395 38.5272C258.678 39.034 257.846 39.4348 256.899 39.7297C255.952 40.0245 254.9 40.1724 253.741 40.1724C252.271 40.1724 250.933 39.9163 249.729 39.4045C248.525 38.8938 247.497 38.1854 246.646 37.2817C245.795 36.3768 245.137 35.2996 244.674 34.048C244.211 32.797 243.979 31.4405 243.979 29.9785C243.979 28.5177 244.211 27.1612 244.674 25.9095C245.137 24.6585 245.798 23.5758 246.659 22.6621C247.52 21.7495 248.553 21.0318 249.757 20.5117C250.961 19.9905 252.307 19.7305 253.797 19.7305C255.965 19.7305 257.782 20.2334 259.243 21.2377C260.705 22.242 261.739 23.5758 262.346 25.2382L258.844 25.9228C258.365 24.9185 257.698 24.1279 256.844 23.5526C255.989 22.9774 254.955 22.6897 253.741 22.6897C252.767 22.6897 251.898 22.8763 251.135 23.2495C250.372 23.6228 249.729 24.1368 249.205 24.7921C248.681 25.4469 248.281 26.2204 248.005 27.1126C247.73 28.0042 247.592 28.9593 247.592 29.9785C247.592 31.0159 247.734 31.976 248.019 32.8588C248.304 33.7422 248.718 34.5057 249.26 35.1522C249.802 35.7982 250.46 36.3028 251.232 36.6666C252.004 37.031 252.887 37.2132 253.879 37.2132C255.166 37.2132 256.228 36.9024 257.064 36.2813C257.901 35.6601 258.549 34.9021 259.009 34.0066L262.456 34.5824Z" fill="white"/>
<mask id="mask0_276_2168" style="mask-type:luminance" maskUnits="userSpaceOnUse" x="266" y="19" width="14" height="21">
<path d="M266.953 19.8867H280V39.7329H266.953V19.8867Z" fill="white"/>
</mask>
<g mask="url(#mask0_276_2168)">
<path fill-rule="evenodd" clip-rule="evenodd" d="M266.953 19.8867H279.806V22.9269H270.353V28.1235H279.143V31.1085H270.353V36.6921H280V39.7329H266.953V19.8867Z" fill="white"/>
</g>
</svg>
