<svg width="156" height="60" viewBox="0 0 156 60" fill="none" xmlns="http://www.w3.org/2000/svg">
<path d="M51.3889 26.3374C51.3889 23.5658 48.6936 20.6222 44.0299 20.6222C38.7927 20.6222 33.0394 24.4641 32.1601 32.1287C31.2618 39.8699 36.0784 43.3106 40.9333 43.3106C45.7883 43.3106 48.3306 41.4183 50.9302 38.8953C48.6936 36.0853 45.8076 37.3853 45.2533 37.672C44.6416 37.9776 43.8579 38.3983 42.2523 38.3983C40.379 38.3983 38.4677 37.5573 38.4677 34.0593C50.4715 32.8743 51.3889 29.1087 51.3889 26.3374ZM45.4443 26.7961C45.3679 27.6561 45.0239 29.128 38.9457 29.9497C40.2263 25.4008 42.6726 25.0568 43.8006 25.0568C44.8519 25.0568 45.5206 25.8784 45.4443 26.7961ZM25.1068 27.5414C25.1068 27.5414 22.5268 35.6457 22.3162 36.3147C22.2399 35.6267 20.3476 21.0808 20.3476 21.0808C15.9513 21.0808 13.6003 24.2155 12.358 27.5224C12.358 27.5224 9.22303 35.6457 8.95567 36.3337C8.93636 35.703 8.47769 27.6181 8.47769 27.6181C8.21003 23.5655 4.50206 21.1001 1.5011 21.1001L5.13273 43.1386C9.73933 43.1196 12.224 40.0039 13.5239 36.697C13.5239 36.697 16.2953 29.5294 16.4099 29.2044C16.4293 29.5101 18.3979 43.1386 18.3979 43.1386C23.0235 43.1386 25.5085 40.2139 26.8465 37.022L33.3261 21.1001C28.7575 21.1001 26.3495 24.2155 25.1068 27.5414ZM68.362 20.5838C65.514 20.5838 63.3351 22.1321 61.5001 24.4068V24.3878L63.144 11.1416C59.3594 11.1416 56.2821 14.4292 55.6895 19.3222L52.8222 42.9666C55.0015 42.9666 57.3141 42.3359 58.5565 40.7303C59.6651 42.1636 61.3281 43.3106 63.7937 43.3106C70.178 43.3106 74.5549 35.8943 74.5549 28.9367C74.5169 22.5908 71.4393 20.5838 68.362 20.5838ZM67.7697 31.9573C67.1007 35.8373 64.9407 38.4752 62.8571 38.4752C60.7547 38.4752 59.8564 37.5383 59.8564 37.5383C60.2578 34.136 60.5061 32.0527 61.2707 30.256C62.0354 28.4594 63.8511 25.5921 65.7434 25.5921C67.5974 25.5921 68.4387 28.058 67.7697 31.9573ZM90.4961 21.0995H86.0425L86.0618 20.8702C86.3675 17.9649 87.0555 16.4359 89.3301 16.1876C90.8784 16.0346 91.5664 15.2316 91.7384 14.3526C91.8724 13.6646 92.2927 11.275 92.2927 11.275C83.3475 11.2176 80.5378 15.0789 79.8115 20.9659L79.7922 21.0998H79.6966C78.2439 21.0998 76.6386 22.7435 76.3709 24.8268L76.2752 25.5915H79.2572L76.7532 46.2729L75.9886 49.9812C76.0842 49.9812 76.1989 50.0002 76.2943 50.0002C80.4805 49.8472 83.1562 46.5406 83.7488 41.7429L85.6985 25.5915H87.0938C88.4698 25.5915 90.0757 24.2155 90.3624 21.9215L90.4961 21.0995ZM113.662 20.7175C108.521 20.7175 103.666 24.5021 102.175 30.4464C100.684 36.391 102.939 43.4249 110.509 43.4249C118.058 43.4249 122.417 36.1043 122.417 30.0068C122.417 23.9475 118.307 20.7175 113.662 20.7175ZM115.746 31.7654C115.478 34.4604 114.293 38.551 111.044 38.551C107.775 38.551 108.234 33.7724 108.559 31.4977C108.903 29.0704 110.26 25.6105 113.185 25.6105C115.803 25.6105 116.051 28.7261 115.746 31.7654ZM147.819 27.5411C147.819 27.5411 145.239 35.6454 145.028 36.3144C144.952 35.6264 143.06 21.0805 143.06 21.0805C138.664 21.0805 136.313 24.2152 135.07 27.5221C135.07 27.5221 131.935 35.6454 131.668 36.3334C131.649 35.7027 131.19 27.6178 131.19 27.6178C130.922 23.5652 127.214 21.0998 124.213 21.0998L127.826 43.1383C132.432 43.1193 134.917 40.0036 136.217 36.6967C136.217 36.6967 138.989 29.5291 139.084 29.2041C139.103 29.5098 141.072 43.1383 141.072 43.1383C145.698 43.1383 148.182 40.2136 149.52 37.0217L156 21.1001C151.451 21.1001 149.042 24.2152 147.819 27.5411ZM94.7013 11.2753L90.9548 41.4946L90.1904 45.2219C90.2858 45.2219 90.4004 45.2412 90.4961 45.2412C94.5291 45.1839 97.3963 41.6476 97.9313 37.194L100.091 19.8575C100.741 14.5629 97.5873 11.2756 94.7013 11.2756" fill="white"/>
</svg>
