<svg width="118" height="60" viewBox="0 0 118 60" fill="none" xmlns="http://www.w3.org/2000/svg">
<path d="M60.1589 25.3926C57.9072 25.3926 56.3612 27.1402 56.1259 29.2911H64.2255C63.9567 27.1066 62.5787 25.3926 60.1589 25.3926ZM80.0214 25.8631C77.2992 25.8631 76.022 28.3837 76.022 30.8707C76.022 33.3241 77.232 36.1472 80.0214 36.1472C82.6765 36.1472 83.9872 33.3914 83.9872 31.0388C83.92 28.6526 82.6429 25.8631 80.0214 25.8631ZM40.33 25.3926C38.0782 25.3926 36.5323 27.1402 36.297 29.2911H44.3966C44.0941 27.1066 42.7162 25.3926 40.33 25.3926ZM112.453 18.234C109.899 18.234 107.849 19.6792 106.908 22.099L106.27 23.7794L105.665 22.099C104.791 19.7128 102.673 18.2004 100.119 18.2004C99.7831 18.2004 99.4807 18.234 99.1446 18.3012V16.0159C99.1446 12.5542 96.6576 10 93.3639 10C90.0703 10 87.5833 12.5878 87.5833 16.0159V20.4522C85.6676 18.839 83.3151 17.9988 80.7608 17.9988C80.1895 17.9988 79.6181 18.0324 79.0804 18.1332V16.0495C79.0804 12.5879 76.627 10.0336 73.4006 10.0336C70.1742 10.0336 67.7208 12.6215 67.7208 16.0495V20.9227C65.5362 19.0407 62.8476 18.0324 59.9237 18.0324C56.462 18.0324 53.2692 19.4775 50.9838 22.099C50.6141 22.5023 50.2781 22.9392 49.9756 23.4433C49.6731 23.0064 49.337 22.5695 48.9673 22.1326C46.6148 19.4775 43.3884 18.0324 39.9603 18.0324C37.3725 18.0324 34.9527 18.839 32.9362 20.3514C31.9279 18.9062 30.2475 18.0324 28.1974 18.0324C25.5759 18.0324 23.3578 19.8136 22.652 22.4351C21.4085 18.4693 18.3165 18.0324 17.0058 18.0324C15.6951 18.0324 12.6031 18.4693 11.3596 22.4351C10.6874 19.8136 8.5029 18.0324 5.81424 18.0324C2.58784 18.0324 0 20.3514 0 23.3089C0 24.6196 0.302471 25.6615 0.705771 26.8042L5.10846 39.2728C6.58723 43.4067 9.57837 44.0116 11.2588 44.0116C13.8466 44.0116 15.8967 42.6673 16.9722 40.3147C18.0141 42.7009 20.0642 44.0452 22.6856 44.0452C24.366 44.0452 27.3572 43.4403 28.836 39.2728L29.3401 37.8277C31.491 41.6591 35.4904 44.0452 40.3636 44.0452C43.8925 44.0452 48.564 42.5329 50.715 39.777C53.0003 42.432 56.4284 44.0452 60.3942 44.0452C63.0828 44.0452 66.4773 43.1714 68.8635 41.491C69.8717 42.9361 71.5185 43.81 73.4342 43.81C74.5769 43.81 75.5851 43.5411 76.4254 43.037C77.7025 43.6756 79.114 44.0116 80.5928 44.0116C83.4831 44.0116 86.1718 42.9362 88.2219 40.8861C89.1629 42.8017 91.045 44.0116 93.3303 44.0116C95.7837 44.0116 97.8002 42.5329 98.6405 40.3819C98.6405 40.3819 97.8003 45.0535 97.8003 45.9273C97.8003 48.9857 100.321 51.3046 103.648 51.3046C106.001 51.3046 108.017 49.7923 108.992 47.2716L117.495 26.132C117.831 25.359 117.999 24.5188 117.999 23.5778C118.066 20.4186 115.142 18.234 112.453 18.234ZM30.2811 25.6951L25.8448 38.1974C25.3071 39.7097 24.3996 40.8188 22.7192 40.8188C21.1396 40.8188 20.1986 39.945 19.7281 38.4326L17.073 30.0977H17.0394L14.3844 38.4326C13.9138 39.945 12.9728 40.8188 11.3932 40.8188C9.6792 40.8188 8.80538 39.6761 8.26765 38.1974L3.86495 25.7623C3.49526 24.7204 3.32722 24.0483 3.32722 23.3089C3.32722 22.1326 4.40269 21.2251 5.91506 21.2251C7.19218 21.2251 8.06599 22.0318 8.36847 23.2753L11.3596 33.1897H11.4268L14.4516 23.5105C14.8549 22.099 15.5943 21.2251 17.073 21.2251C18.5518 21.2251 19.2912 22.0654 19.6945 23.5105L22.7192 33.1897H22.7865L25.7776 23.2753C26.0465 22.0318 26.9875 21.2251 28.231 21.2251C29.7434 21.2251 30.8188 22.1326 30.8188 23.7458C30.7852 24.3171 30.5164 24.8885 30.2811 25.6951ZM40.8677 36.4497C43.4892 36.4497 45.2704 34.366 46.6484 34.366C47.7238 34.366 48.7321 35.4415 48.7321 36.5505C48.7321 38.7351 44.2286 40.8524 40.4308 40.8524C34.6838 40.8524 30.9197 36.685 30.9197 31.106C30.9197 25.9639 34.6838 21.2923 40.0275 21.2923C45.5393 21.2923 49.169 26.3 49.169 30.5683C49.169 32.0806 48.4968 32.8536 46.9508 32.8536H36.0953C36.4314 35.2734 38.5151 36.4497 40.8677 36.4497ZM66.9478 32.7864H56.0923C56.4284 35.2734 58.5121 36.4161 60.8983 36.4161C63.5197 36.4161 65.301 34.3324 66.6789 34.3324C67.7544 34.3324 68.7627 35.4079 68.7627 36.517C68.7627 38.7015 64.2591 40.8188 60.4614 40.8188C54.7144 40.8188 50.9502 36.6514 50.9502 31.0724C50.9502 25.9303 54.7144 21.2587 60.0581 21.2587C65.5699 21.2587 69.1996 26.2664 69.1996 30.5347C69.1659 32.047 68.4602 32.7864 66.9478 32.7864ZM80.66 40.8524C78.9124 40.8524 76.9631 40.0794 76.022 38.5334C75.7196 39.8778 74.8794 40.6508 73.5014 40.6508C72.0227 40.6508 70.9808 39.5081 70.9808 37.8277V16.0831C70.9808 14.3691 71.9554 13.26 73.4678 13.26C74.9466 13.26 75.9548 14.4027 75.9548 16.0831V23.0064C77.4 21.8301 79.0468 21.2251 80.828 21.2251C86.2726 21.2251 89.0621 26.3336 89.0621 31.3076C89.0284 36.0464 85.7685 40.8524 80.66 40.8524ZM95.9854 37.9957C95.9854 39.7097 94.9099 40.8188 93.4312 40.8188C91.9524 40.8188 90.8769 39.6761 90.8769 37.9957V16.0159C90.8769 14.3018 91.9524 13.1928 93.4312 13.1928C94.9099 13.1928 95.9854 14.3355 95.9854 16.0159V37.9957ZM114.638 24.9221L106.169 46.1289C105.765 47.1708 104.959 48.1454 103.783 48.1454C102.035 48.1454 101.127 47.07 101.127 45.9609C101.127 45.4904 101.262 44.9526 101.43 44.4821L103.648 38.9703L98.0355 24.9557C97.9011 24.586 97.8003 24.1827 97.8003 23.6449C97.8003 22.3678 99.1446 21.4604 100.186 21.4604C101.43 21.4604 102.304 22.1326 102.707 23.2753L106.202 32.82L109.966 23.2753C110.37 22.1326 111.277 21.4604 112.487 21.4604C113.529 21.4604 114.873 22.3678 114.873 23.6449C114.907 24.1491 114.806 24.5188 114.638 24.9221Z" fill="white"/>
</svg>
