<svg width="83" height="60" viewBox="0 0 83 60" fill="none" xmlns="http://www.w3.org/2000/svg">
<path d="M1.50055 13.0367C1.50055 13.0367 4.7156 12.6312 6.85912 14.5299C8.18205 15.7011 8.56748 17.5682 8.56748 17.5682L12.9447 34.6104L16.5854 20.6622C16.939 19.1798 17.5786 17.3461 18.5892 16.1068C19.8788 14.5285 22.497 14.4289 22.7761 14.4289C23.0552 14.4289 25.6721 14.5287 26.9607 16.1068C27.9712 17.3461 28.6107 19.1785 28.9657 20.6622L32.6063 34.6104L36.9822 17.568C36.9822 17.568 37.3692 15.7013 38.6922 14.5299C40.8357 12.631 44.0495 13.0366 44.0495 13.0366L35.6674 44.8857C35.6674 44.8857 32.903 45.0866 31.5188 44.3779C29.7013 43.447 28.8384 42.7291 27.7374 38.3945C27.1809 36.1774 26.6314 33.9586 26.0886 31.7382L25.8825 30.9017C25.3624 28.7771 24.8394 26.6532 24.3134 24.5301L24.1139 23.7323C23.9305 23.009 23.8042 22.5223 23.7591 22.3761C23.6354 21.9758 23.4877 21.0225 22.775 21.0225C22.0783 21.0225 21.9173 21.9771 21.7911 22.3761C21.7445 22.5223 21.6183 23.0076 21.4361 23.7322L21.2365 24.5301C20.812 26.2365 20.3909 27.9437 19.9734 29.6518L19.7687 30.4843C19.1248 33.1233 18.4733 35.7604 17.8141 38.3956C16.7131 42.7291 15.8489 43.4484 14.0311 44.3779C12.647 45.0866 9.88265 44.8857 9.88265 44.8857L1.50055 13.0367ZM52.0247 18.3194V19.4695H52.0274V38.6952C52.0127 42.6404 51.6312 43.5166 49.9718 44.4247C48.682 45.1306 46.7088 44.8636 46.7088 44.8636V23.3266C46.7088 22.2457 47.0438 21.537 48.2792 20.9014C49.0171 20.5212 49.7044 20.2299 50.4198 19.7992C51.3973 19.2141 51.8931 18.5187 52.0021 18.3538L52.0247 18.3194ZM54.6868 13.143C54.6868 13.143 59.0174 12.3758 61.1622 14.4062C62.3682 15.5484 63.7017 17.495 64.0037 17.9444L64.0607 18.0295L64.0674 18.0401L67.8437 23.6992C68.0259 23.9931 68.2651 24.3135 68.6481 24.3135C69.0297 24.3135 69.2704 23.9943 69.4538 23.6992L73.2289 18.0401L73.2354 18.0295L73.2926 17.9444C73.5943 17.495 74.928 15.5484 76.1353 14.4049C78.2787 12.3758 82.6095 13.1417 82.6095 13.1417L72.3485 29.0125L82.5816 44.8314C82.5816 44.8314 78.1512 45.4244 76.0064 43.3941C74.6342 42.0964 73.2287 39.9834 73.2287 39.9834L69.4525 34.3257C69.2704 34.0306 69.0296 33.7101 68.6481 33.7101C68.2652 33.7101 68.0259 34.0293 67.8423 34.3257L64.0674 39.9834C64.0674 39.9834 62.739 42.0964 61.3683 43.3941C59.2235 45.4244 54.7132 44.8314 54.7132 44.8314L64.9464 29.0125L54.6868 13.143ZM52.0141 13.0008H52.0274C52.0274 15.115 51.8278 16.3715 50.5515 17.3475C49.9589 17.8029 49.3055 18.1729 48.6103 18.4469C47.9053 18.7222 47.2598 19.1303 46.7088 19.6491C46.7088 15.7984 47.2712 14.4035 48.7831 13.5779C49.7231 13.0646 51.2669 13.006 51.8213 13.0008H52.0141Z" fill="white"/>
</svg>
