<svg width="167" height="60" viewBox="0 0 167 60" fill="none" xmlns="http://www.w3.org/2000/svg">
<path d="M113.382 36.327V37.0592H104.998V36.327C107.452 36.327 107.891 35.7046 107.891 32.0431V26.1861C107.891 22.5242 107.452 21.939 104.998 21.939V21.2064H112.577C116.347 21.2064 118.435 23.1469 118.435 25.7465C118.435 28.2729 116.347 30.2495 112.577 30.2495H110.49V32.0428C110.49 35.7046 110.929 36.327 113.382 36.327ZM112.577 22.5242H110.49V28.895H112.577C114.627 28.895 115.579 27.4672 115.579 25.7465C115.579 23.9894 114.627 22.5242 112.577 22.5242ZM143.585 33.6178L143.402 34.2769C143.073 35.4848 142.67 35.9244 140.07 35.9244H139.558C137.654 35.9244 137.325 35.4848 137.325 32.8859V31.2016C140.181 31.2016 140.4 31.4578 140.4 33.3619H141.096V27.9062H140.4C140.4 29.8099 140.181 30.0662 137.325 30.0662V25.966H139.338C141.938 25.966 142.34 26.4056 142.67 27.6135L142.853 28.3087H143.438L143.183 24.8676H132.419V25.5628C134.469 25.5628 134.799 26.0021 134.799 28.6017V33.2881C134.799 35.6659 134.519 36.2649 132.902 36.3504C131.366 36.1156 130.312 35.2777 128.868 33.6906L127.184 31.8603C129.454 31.4572 130.662 30.0297 130.662 28.4186C130.662 26.4056 128.942 24.8679 125.72 24.8679H119.277V25.5628C121.327 25.5628 121.656 26.0021 121.656 28.6017V33.2881C121.656 35.8874 121.327 36.3634 119.277 36.3634V37.0589H126.562V36.3631C124.512 36.3631 124.183 35.8874 124.183 33.2881V31.9706H124.805L128.868 37.0592H143.915L144.135 33.6181L143.585 33.6178ZM124.182 30.8355V25.9663H125.683C127.331 25.9663 128.063 27.1011 128.063 28.4193C128.063 29.7007 127.331 30.8351 125.683 30.8351L124.182 30.8355ZM151.017 37.5352C149.552 37.5352 148.271 36.7666 147.722 36.2902C147.539 36.4736 147.209 37.0228 147.137 37.5352H146.441V32.483H147.173C147.466 34.8989 149.15 36.327 151.31 36.327C152.481 36.327 153.433 35.6682 153.433 34.5698C153.433 33.6181 152.591 32.8856 151.09 32.1904L149.004 31.2019C147.539 30.5058 146.441 29.2975 146.441 27.687C146.441 25.9299 148.088 24.429 150.358 24.429C151.566 24.429 152.591 24.8683 153.214 25.3807C153.397 25.2344 153.58 24.8312 153.69 24.3916H154.386V28.7125H153.617C153.36 26.9915 152.408 25.5638 150.468 25.5638C149.443 25.5638 148.491 26.1497 148.491 27.0653C148.491 28.017 149.26 28.5292 151.017 29.3349L153.03 30.3233C154.788 31.1652 155.483 32.5204 155.483 33.6184C155.483 35.9248 153.47 37.5352 151.017 37.5352ZM162.293 37.5352C160.828 37.5352 159.546 36.7666 158.998 36.2902C158.814 36.4736 158.485 37.0228 158.413 37.5352H157.717V32.483H158.449C158.741 34.8989 160.426 36.327 162.586 36.327C163.757 36.327 164.709 35.6682 164.709 34.5698C164.709 33.6181 163.867 32.8856 162.366 32.1904L160.279 31.2019C158.814 30.5058 157.716 29.2975 157.716 27.687C157.716 25.9299 159.364 24.429 161.633 24.429C162.842 24.429 163.867 24.8683 164.489 25.3807C164.672 25.2344 164.855 24.8312 164.965 24.3916H165.661V28.7125H164.892C164.635 26.9915 163.684 25.5638 161.744 25.5638C160.719 25.5638 159.766 26.1497 159.766 27.0653C159.766 28.017 160.535 28.5292 162.293 29.3349L164.306 30.3233C166.063 31.1652 166.759 32.5204 166.759 33.6184C166.759 35.9248 164.745 37.5352 162.293 37.5352ZM2.96547 28.8858C2.96547 35.2992 6.69269 40.8411 12.0971 43.4676L4.36818 22.2921C3.44129 24.3667 2.96327 26.6135 2.96547 28.8858ZM30.1053 28.0687C30.1053 26.0664 29.3861 24.6797 28.7689 23.6002C27.9476 22.2657 27.178 21.1355 27.178 19.8011C27.178 18.3116 28.3075 16.9251 29.8985 16.9251C29.9704 16.9251 30.0383 16.9342 30.1086 16.9381C27.2261 14.2972 23.3857 12.6851 19.1675 12.6851C13.5072 12.6851 8.52753 15.5891 5.63042 19.988C6.01085 19.9991 6.36884 20.0072 6.67318 20.0072C8.36788 20.0072 10.9912 19.8014 10.9912 19.8014C11.8646 19.75 11.9673 21.0328 11.0953 21.1362C11.0953 21.1362 10.2173 21.2396 9.24059 21.2906L15.1408 38.8401L18.6863 28.2063L16.1621 21.2903C15.2897 21.2389 14.4632 21.1355 14.4632 21.1355C13.5898 21.0845 13.6926 19.7494 14.5653 19.8011C14.5653 19.8011 17.2413 20.0066 18.8332 20.0066C20.5273 20.0066 23.1513 19.8011 23.1513 19.8011C24.025 19.7494 24.1277 21.0321 23.255 21.1355C23.255 21.1355 22.3755 21.2389 21.4007 21.29L27.2557 38.7064L28.8717 33.3056C29.5721 31.065 30.1053 29.4558 30.1053 28.0687ZM19.4517 30.3032L14.5907 44.4288C16.0768 44.8666 17.6182 45.0889 19.1675 45.0889C21 45.0893 22.8193 44.7787 24.5478 44.1703C24.503 44.0995 24.4645 44.0248 24.4327 43.9472L19.4517 30.3032ZM33.3842 21.1127C33.4537 21.6288 33.4934 22.1825 33.4934 22.7788C33.4934 24.4228 33.1861 26.271 32.2611 28.5818L27.3123 42.8908C32.1291 40.0818 35.3689 34.8635 35.3689 28.8865C35.3733 26.1694 34.6905 23.4952 33.3842 21.1127ZM19.1675 10C8.75384 10 0.281006 18.4722 0.281006 28.8858C0.281006 39.3011 8.75384 47.773 19.1675 47.773C29.5812 47.773 38.055 39.3011 38.055 28.8858C38.055 18.4722 29.5812 10 19.1675 10ZM19.1675 46.9071C9.23148 46.9071 1.14689 38.8228 1.14689 28.8858C1.14689 18.9498 9.23116 10.8659 19.1675 10.8659C29.1038 10.8659 37.1875 18.9498 37.1875 28.8858C37.1875 38.8228 29.1035 46.9071 19.1675 46.9071Z" fill="white"/>
<path d="M96.835 24.8683H90.2816V25.5634C92.3313 25.5634 92.6611 26.0027 92.6611 28.6023V33.2887C92.6611 35.888 92.3317 36.364 90.2816 36.364C88.7078 36.1445 87.6456 35.3021 86.1814 33.6913L84.4971 31.861C86.7667 31.4578 87.9749 30.0304 87.9749 28.4192C87.9749 26.4062 86.2549 24.8686 83.0326 24.8686H76.5894V25.5634C78.6392 25.5634 78.9689 26.0027 78.9689 28.6023V33.2887C78.9689 35.888 78.6392 36.364 76.5894 36.364V37.0595H83.8744V36.3637C81.8247 36.3637 81.4953 35.888 81.4953 33.2887V31.9709H82.1173L86.1811 37.0595H96.835C102.07 37.0595 104.34 34.2775 104.34 30.9454C104.34 27.6138 102.07 24.8683 96.835 24.8683ZM81.4956 30.8355V25.9666H82.9962C84.6434 25.9666 85.376 27.1014 85.376 28.4196C85.376 29.701 84.6434 30.8355 82.9962 30.8355H81.4956ZM96.9449 35.9247H96.6884C95.3709 35.9247 95.1878 35.5954 95.1878 33.9111V25.9666H96.9449C100.752 25.9666 101.448 28.7486 101.448 30.9089C101.448 33.1421 100.752 35.9247 96.9449 35.9247ZM56.1984 32.1907L58.7245 24.7216C59.4571 22.5616 59.1274 21.9396 56.7843 21.9396V21.207H63.6669V21.9396C61.3606 21.9396 60.8117 22.4885 59.8964 25.1612L55.7224 37.6819H55.2467L51.512 26.2222L47.7045 37.6819H47.2284L43.1653 25.1612C42.2868 22.4885 41.7008 21.9396 39.5773 21.9396V21.207H47.7048V21.9396C45.5448 21.9396 44.9585 22.452 45.7279 24.7216L48.1805 32.1904L51.8781 21.207H52.574L56.1984 32.1907ZM68.6453 37.5352C64.6183 37.5352 61.3235 34.5698 61.3235 30.945C61.3235 27.3576 64.6186 24.3916 68.6453 24.3916C72.6726 24.3916 75.9671 27.3576 75.9671 30.945C75.9671 34.5698 72.6726 37.5352 68.6453 37.5352ZM68.6453 25.5273C65.2773 25.5273 64.1058 28.5656 64.1058 30.9454C64.1058 33.3622 65.2773 36.364 68.6453 36.364C72.0503 36.364 73.2218 33.3622 73.2218 30.9454C73.2218 28.5656 72.0503 25.5273 68.6453 25.5273Z" fill="white"/>
</svg>
